<?xml version="1.0" encoding="UTF-8"?>
<svg id="Layer_2" data-name="Layer 2" xmlns="http://www.w3.org/2000/svg" viewBox="0 0 109.57 169.79">
  <defs>
    <style>
      .cls-1 {
        fill: #dc7053;
      }

      .cls-2 {
        fill: #c5413e;
      }

      .cls-3 {
        fill: #deb2ce;
      }

      .cls-4 {
        fill: #8a96bb;
      }

      .cls-5 {
        fill: #dbd9eb;
      }

      .cls-6 {
        fill: #e99249;
      }

      .cls-7 {
        fill: #fff;
      }

      .cls-8 {
        fill: #f1b664;
      }

      .cls-9 {
        fill: #656ca2;
      }

      .cls-10 {
        fill: #f1b24f;
      }

      .cls-11 {
        fill: #9e5d46;
      }

      .cls-12 {
        fill: #e9e9f4;
      }

      .cls-13 {
        fill: #864036;
      }

      .cls-14 {
        fill: #efb291;
      }
    </style>
  </defs>
  <g id="Layer_8_copy_2" data-name="Layer 8 copy 2">
    <g>
      <path class="cls-4" d="M60.49,166.39c2.02-10,2.53-20.3,1.51-30.44-10.79-1.46-21.53-1.57-32.35-.35.81,10.59,4.29,20.52,10.25,29.31,6.97,2.41,13.37,2.99,20.58,1.48"/>
      <path class="cls-9" d="M41.98,145.36c-1.59-.4-2.86-.39-4.15.63-.1.08-.07.26.04.31,1.16.57,2.29.78,3.51,1.19,1.12.38,2.25,1.57,3.45,1.2.34-.1.62-.43.61-.8-.04-1.6-2.17-2.22-3.47-2.55"/>
      <path class="cls-9" d="M49.38,162.73c-.5-1.65-.93-3.31-1.36-4.98-.91-3.5-1.64-7.3-3.01-10.65-.48-1.18-2.16-.76-1.93.53.63,3.54,2.05,7.19,3.25,10.58.57,1.63,1.16,3.25,1.72,4.88.42,1.24.71,2.77,1.75,3.67.11.09.26.05.3-.08.44-1.23-.37-2.8-.72-3.96"/>
      <path class="cls-14" d="M53.24,94.05c-.36.61-.5,1.33-.7,2.01-.22.74-.45,1.48-.67,2.22-.05.16-.1.31-.14.47-.21.71-.5,1.46-.75,2.23-.06.02-.12.04-.19.06-.63.17-1.29.26-1.95.26-.99,0-1.95-.21-2.85-.61,0-.88-.02-1.77.06-2.64.15-1.61.57-3.17.75-4.76,2.13.35,4.28.61,6.43.77"/>
      <path class="cls-14" d="M98.6,86.52c.1,2.4-.97,4.89-2.91,6.35-1.62,1.22-3.69,1.69-5.69,1.49-.56-.05-1.11-.16-1.65-.31-1.47-.42-2.82-1.22-3.82-2.39-.5-.58-.9-1.26-1.13-2-.21-.71-.07-1.47-.35-2.15-.08-.21-.35-.33-.53-.14-.46.5-.53,1.19-.4,1.88-11.27,4.07-23.55,5.1-35.35,3.13-4.86-.81-9.64-2.14-14.24-3.97-3.42-1.36-6.87-2.97-9.94-5.05-.58-.39-1.14-.8-1.7-1.23-1.38-1.07-2.61-2.29-3.66-3.63-1.54-1.96-2.73-4.18-3.53-6.61-2.28-6.88-1.78-14.56.12-21.54.25-.92.52-1.82.82-2.71,1.44-4.34,3.49-8.47,6.05-12.25,2.04-3.02,4.46-5.66,7.01-8.21,3.53.4,7.08.68,10.62.96,2.34.18,4.68.35,7.02.47,1.42.07,2.89.21,4.35.24-.5.11-.99.24-1.48.38-1.25.36-3.17,1.38-2.75,2.98.49,1.87,3.54,1.8,5.01,2.02,2.58.4,5.17.77,7.76,1.11,5.3.7,10.61,1.27,15.94,1.73,4.89.43,9.83.85,14.75,1.01.17.35.33.7.48,1.05.61,1.42,1.15,2.88,1.63,4.36.91,2.84,1.62,5.74,2.07,8.7.9,6.01.77,12.18-.42,18.13-.67,3.33-1.78,6.43-3.06,9.56-.03.08-.04.15-.04.21-.47.2-.91.47-1.33.79-.21.17.06.5.28.37,1.88-1.12,4.07-1.17,5.92-.42,2.26.91,4.04,2.98,4.15,5.68"/>
      <path class="cls-1" d="M93.73,86.87c-.42-.61-1.05-1.03-1.71-1.38-.52-.28-1.29-.63-1.9-.56-.62.08-1.09.67-.74,1.28.25.44.71.8,1.06,1.18.36.39.6.88.98,1.25.52.5,1.35.57,1.93.11.53-.42.8-1.28.38-1.89"/>
      <path class="cls-1" d="M51.67,93.52c-1.5-.27-3.15-.39-4.61.08-.38.12-.42.6-.11.82,1.28.87,2.89,1.22,4.41,1.38,1.29.14,1.6-2.05.31-2.28"/>
      <path class="cls-1" d="M93.69,51.91c-.44-2.84-1.13-5.65-2.06-8.37-.46-1.34-.98-2.66-1.54-3.96-.53-1.24-1.09-3.09-2.4-3.7-.52-.24-1.41-.1-1.51.62-.19,1.42.68,2.63,1.28,3.87.61,1.26,1.16,2.55,1.65,3.87.97,2.59,1.73,5.26,2.27,7.97.54,2.73.88,5.48.97,8.26.05,1.41.03,2.82.05,4.23.01,1.4.13,2.8.11,4.2,0,.21.3.24.36.05.45-1.45.9-2.85,1.14-4.36.21-1.37.28-2.74.3-4.12.04-2.86-.17-5.73-.61-8.57"/>
      <path class="cls-1" d="M92.75,69.14c-.64,1.6-1.37,3.17-2.03,4.76-.64,1.55-1.35,3.14-1.54,4.81-.12,1.04,1.59,1.51,2.01.55.66-1.5.84-3.18,1.06-4.79.24-1.76.39-3.53.65-5.29.01-.1-.11-.14-.15-.04"/>
      <path class="cls-1" d="M89.48,36.77c-.25-.08-.51-.14-.76-.19.03-.68-.4-1.37-1.3-1.35-4.88.11-9.76.28-14.65.36-1.48-.12-2.95-.31-4.43-.45-2.1-.2-4.19-.44-6.28-.74-4.22-.61-8.4-1.41-12.54-2.44-.52-.13-1.05-.29-1.6-.43.09-.13.12-.3.02-.43-.07-.1-.15-.19-.24-.27.66-.13,1.33-.19,1.93-.24,1.94-.15,1.98-3.01,0-3.05-7.21-.14-14.35-.8-21.49-1.8-2.26-.32-2.73,2.87-.42,3.11,4.87.51,9.76.9,14.64,1.25-.72.87-1.2,1.94-1.25,3.08-.17,4.03,4.26,6.18,7.62,6.73,4.13.68,8.44.68,12.62.78,4.46.1,8.92.06,13.38-.13,2.48-.1,4.95-.26,7.42-.5,1.3-.12,2.59-.26,3.89-.41,1.3-.15,2.54-.3,3.67-.97.8-.47.59-1.63-.25-1.91"/>
      <path class="cls-1" d="M44.66,62.44c-.17-.72-.54-1.27-1.01-1.83-.49-.58-.94-.93-1.71-1.03-.35-.04-.65.28-.75.57-.26.73,0,1.34.29,2.01.25.59.57,1.11,1.07,1.51.96.79,2.42.07,2.12-1.24"/>
      <path class="cls-1" d="M81.91,87.42c-.94.04-1.81.33-2.72.56-1.03.27-2.04.45-3.09.63-1.84.31-3.67.66-5.52.93-3.79.55-7.62.86-11.44.95-3.89.1-7.83.03-11.7-.34-1.92-.18-3.83-.42-5.73-.71-1.91-.29-3.84-.5-5.73-.89-1.43-.29-2.89-.62-4.27-1.13-.89-.08-1.77-.19-2.64-.36-.61-.12-1.21-.27-1.8-.46,1.35,1.61,3.98,2.52,5.71,3.07,3.78,1.2,7.58,2.2,11.5,2.78,8.13,1.2,16.26,1.38,24.41.31,2.33-.3,4.64-.7,6.94-1.2,1.14-.25,2.25-.6,3.38-.87,1.12-.27,2.29-.47,3.3-1.03,1.04-.57.59-2.31-.61-2.27"/>
      <path class="cls-1" d="M19.47,80.22c.53.29,1.01.64,1.43,1.08.41.43.74.93.98,1.47.14.3.21.61.29.93.66.51,1.34.99,2.04,1.43.26-.16.47-.4.57-.7.56-1.78-.98-3.88-2.32-4.89-1.03-.78-3.42-1.88-4.53-.68-.13.14-.13.35,0,.49.39.42,1.05.6,1.55.88"/>
      <path class="cls-12" d="M79.22,55.3c-1.17-2.51-3.97-3.71-6.43-4.61-3.18-1.16-6.37-.43-9.22,1.25-1.25.74-2.39,1.67-3.25,2.84-.48.66-.79,1.31-.9,2-.56,1.42-.74,2.98-.51,4.5.74,4.84,5.01,8.37,9.78,8.69,4.94.33,9.62-2.72,11.03-7.5.7-2.36.55-4.94-.5-7.17"/>
      <path class="cls-12" d="M33.6,42.23c-2.22-1.07-4.78-1.54-7.22-1-1.44.32-3.24,1.45-3.93,2.89-.04.04-.08.09-.12.13-.68.76-1.03,1.75-1.22,2.75-.37,2.02-.13,4.18.59,6.1,1.54,4.12,5.25,7.27,9.83,7.01,4.33-.25,7.41-3.69,7.91-7.88.5-4.23-2.07-8.19-5.84-10"/>
      <path class="cls-6" d="M108.37,41.85c1.28,6.16.41,12.64-1.81,18.48-2.75,7.25-7.3,13.4-11.63,19.75-1.36-.53-2.84-.67-4.23-.35,1.05-2.67,1.78-5.51,2.37-8.31.62-2.94.99-5.94,1.12-8.95.25-6.04-.53-12.12-2.3-17.9-.49-1.6-1.09-3.17-1.74-4.71-.24-.58-.49-1.16-.76-1.75,1,.03,2,.05,2.99.06.29,0,.29-.43,0-.45-4.78-.31-9.57-.48-14.35-.87-4.78-.38-9.55-.88-14.31-1.47-4.84-.61-9.68-1.33-14.49-2.15-.78-.14-2.14-.16-2.7-.82-.95-1.1,1.02-2.02,1.8-2.26,1.39-.43,2.86-.7,4.32-.92.83-.13,1.66-.24,2.48-.35,2.72-.38,5.47-.6,8.21-.68,2.65-.08,5.35.15,7.99-.04.26-.02.35-.42.07-.48-2.47-.54-5.18-.47-7.7-.4-2.67.07-5.33.27-7.97.62-1.25.16-2.51.32-3.78.53-1.45-.18-2.93-.18-4.39-.25-1.79-.09-3.57-.2-5.36-.32-3.63-.25-7.26-.56-10.88-1-1.34-.16-2.68-.34-4.01-.52-.44-.06-.88-.12-1.32-.17-1.57-.2-3.34-.25-4.81-.88-.33-.14-.74-.33-.98-.6-.21-.24-.39-.99-.24-1.3.07-.13.33-.28.45-.36.63-.41,1.39-.59,2.13-.7,1.77-.28,3.61-.34,5.4-.35,4.01-.04,8.17.26,12.09,1.1.18.04.25-.23.08-.27-3.91-1-7.75-1.65-11.8-1.65-1.9,0-3.82.07-5.7.32-1.24.17-3.02.57-3.64,1.83-.46.94.29,1.8,1.09,2.35-1.66.21-3.3.52-4.94.82-1.89.34-4.09,1-5.97.31-1.96-.72-2.74-2.81-1.2-4.37,1.12-1.13,2.8-1.75,4.24-2.37,6.76-2.93,14.16-4.36,21.52-4.23,1.26.02,2.51.08,3.76.19.75.06,1.5.14,2.25.24,2.03.26,4.03.69,6.07.95.12.01.12-.16.03-.2-2.64-1.1-5.59-1.61-8.51-1.86-2.91-.65-5.85-1.16-8.73-1.92-3.18-.83-6.59-1.92-9.31-3.82-.82-.58-1.41-1.7-.13-2.11.74-.23,1.6-.16,2.36-.16,1.65,0,3.3.1,4.95.27,3.41.37,6.78,1.11,10.04,2.18,1.85.61,3.66,1.33,5.42,2.16,1.55.73,3.05,1.68,4.64,2.35.07.07.15.15.22.22,2.84,2.76,6.38,4.65,10.29,5.33.12.02.17-.16.05-.19-3.75-.97-7.23-2.97-9.98-5.69-1.87-1.85-3.4-4.04-4.45-6.47-.33-.76-.6-1.54-.83-2.33-.28-.98-.71-2.24-.35-3.24.24-.66.91-1.21,1.64-.88.37.16.65.54.91.83.58.66,1.13,1.33,1.7,1.99,2.21,2.6,4.46,5.18,7.03,7.44,2.75,2.41,5.89,4.49,9.54,5.16.25.05.35-.3.11-.38-1.74-.61-3.39-1.39-4.95-2.32,0,0,.01,0,.02,0,7.14.71,14.24,2.15,21.06,4.42,6.59,2.2,13.26,4.96,19.11,8.76,2.79,1.82,5.36,4.01,7.24,6.77,1.72,2.51,2.86,5.38,3.48,8.36"/>
      <path class="cls-1" d="M106.84,46.97c-.11,4.51-.94,9.14-2.19,13.48-.63,2.21-1.41,4.37-2.32,6.48-.91,2.08-2.08,4.02-2.99,6.09-.05.1.09.24.17.13,1.39-1.78,2.36-3.91,3.26-5.97.92-2.09,1.7-4.24,2.34-6.43,1.32-4.54,1.84-9.07,1.91-13.77,0-.11-.17-.11-.17,0"/>
      <path class="cls-1" d="M103.68,52.21c-.39,3.36-1.03,6.7-1.93,9.96-.42,1.53-.91,3.04-1.47,4.53-.58,1.57-1.46,3.11-1.86,4.74-.05.22.22.31.35.15.95-1.25,1.48-2.93,2.03-4.39.61-1.65,1.14-3.33,1.59-5.03.86-3.27,1.35-6.59,1.5-9.96,0-.14-.19-.13-.21,0"/>
      <path class="cls-1" d="M56.12,15.45c-1.93-1.46-4-2.71-5.76-4.4-1.75-1.68-3.3-3.58-4.73-5.54-.03-.04-.09-.02-.08.03.92,2.35,2.33,4.41,4.13,6.18,1.78,1.75,3.83,3.43,6.24,4.18.29.09.4-.29.19-.45"/>
      <path class="cls-1" d="M55.64,16.25c-4.38-1.39-8.17-4-10.46-8.06-.11-.2-.41-.02-.31.18,2.02,4.16,6.02,7.55,10.67,8.24.23.03.33-.28.1-.36"/>
      <path class="cls-1" d="M78.54,30.15c-6.31-.97-12.98-.37-19.25.57-.14.02-.11.27.03.25,3.18-.42,6.37-.62,9.57-.69,3.21-.07,6.39.17,9.6.23.21,0,.27-.34.05-.37"/>
      <path class="cls-1" d="M75.52,31.75c-4.12-.7-8.36-.64-12.49-.04-.14.02-.11.27.03.25,4.15-.35,8.27-.27,12.42.06.15.01.19-.25.04-.27"/>
      <path class="cls-1" d="M54.81,25.68c-4.45-.26-8.9-.43-13.34-.69-4.44-.26-8.87-.65-13.32-.86-.17,0-.16.24,0,.26,4.42.59,8.87.86,13.32,1.11,4.44.25,8.89.43,13.34.39.13,0,.13-.2,0-.21"/>
      <path class="cls-1" d="M50.68,23.07c-1.58-.15-3.2-.07-4.79-.06-1.6,0-3.2-.02-4.79-.05-3.19-.06-6.38-.23-9.58-.26-.29,0-.27.4,0,.43,3.23.4,6.51.51,9.76.56,3.1.05,6.38.26,9.46-.21.25-.04.16-.38-.05-.4"/>
      <path class="cls-8" d="M103.14,32.09c-2.4-3.27-5.68-6-9.72-6.87-.12-.03-.22.15-.09.22,6.5,3.45,11.22,9.2,12.71,16.47,1.78,8.71-.89,17.67-4.96,25.35-1.12,2.12-2.35,4.18-3.64,6.2-1.35,2.12-2.86,4.14-4.23,6.25-.5.77.69,1.43,1.21.71,2.73-3.76,5.25-7.81,7.45-11.9,2.18-4.04,4-8.29,5.05-12.77,1.89-8.03,1.21-16.85-3.79-23.66"/>
      <path class="cls-7" d="M97.51,83.35c-1.5-1.92-3.96-2.9-6.34-2.25-.23.06-.17.39.05.4,2.03.12,4.22.96,5.45,2.66.57.78.92,1.7,1.05,2.65.14,1.01-.11,2.01,0,2.99.03.23.3.4.49.2,1.64-1.71.54-5.06-.7-6.66"/>
      <path class="cls-2" d="M60.34,166c1.08.12,2.9.56,2.67,2.01-.32,2.03-3.88.81-5.05.54-2.03-.47-4.07-1.13-6.13-1.47,1.71-.52,3.41-.95,5.22-1.09,1.05-.08,2.13-.09,3.18.01.04,0,.07,0,.11.01"/>
      <path class="cls-2" d="M46.86,166.68c.79.21,1.57.48,2.36.71-1.75.32-3.5.54-5.31.52-1.29,0-2.58-.1-3.86-.29-.68-.1-2.8-.18-3.1-.98-.57-1.51,5.62-.77,6.27-.68,1.23.16,2.45.41,3.65.72"/>
      <path class="cls-5" d="M41.21,100.77c-1.28,1.24-2.31,2.84-3.09,4.28-.85,1.57-1.57,3.22-2.26,4.88-1.01-.83-2.07-1.57-3.25-2.09.61-.54,1.15-1.23,1.72-1.77.83-.78,1.69-1.52,2.58-2.24,1.38-1.1,2.84-2.07,4.29-3.06"/>
      <path class="cls-5" d="M61.2,122.54c.37,4.16.66,8.35.83,12.54-5.43-.54-10.98-.57-16.43-.58-2.85,0-5.7.04-8.55.14-2.33.08-4.69.14-7.01.38.1-5.14,1.15-10.19,2.7-15.1.96-3.04,2.11-6.02,3.34-8.95.44-1.04.89-2.07,1.34-3.09,1.57-3.52,3.79-7.85,7.82-8.69-.1,1.3-.1,2.65.28,3.81.05.17.32.21.36,0,.09-.6.12-1.2.13-1.81.85.36,1.77.57,2.71.61.6.02,1.36,0,2.06-.14-.2.67-.36,1.35-.4,2.01-.01.17.24.23.32.09.8-1.41,1.1-3.31,1.56-4.86.03-.12.07-.24.1-.35,1.49,1.06,2.97,2.16,4.24,3.47,1.58,1.62,2.49,3.53,2.91,5.75.46,2.43.66,4.92.93,7.38.24,2.16.49,4.32.69,6.48.03.31.06.62.09.93"/>
      <path class="cls-7" d="M41.5,164.55c-.13-.59-.49-1.03-.83-1.52-.43-.63-.86-1.27-1.27-1.92-.74-1.15-1.44-2.33-2.09-3.53-1.4-2.55-2.62-5.19-3.6-7.93-1.96-5.49-2.96-11.32-2.64-17.15.09-1.73.31-3.45.62-5.15.29-1.57.87-3.15.95-4.74,0-.13-.16-.15-.22-.06-.82,1.17-1.15,2.7-1.46,4.07-.33,1.43-.56,2.88-.71,4.34-.31,3.08-.25,6.19.14,9.25.73,5.81,2.62,11.41,5.29,16.61.78,1.51,1.62,2.98,2.52,4.42.43.7.88,1.38,1.34,2.07.41.61.77,1.27,1.42,1.66.3.18.62-.11.56-.43"/>
      <path class="cls-9" d="M61.13,136.02c-.91-.41-2.08-.36-3.07-.42-1.17-.07-2.35-.12-3.52-.13-2.42-.02-4.82.14-7.23.39-.07,0-.08.12,0,.12,2.35-.08,4.7-.04,7.05.06,1.11.05,2.23.11,3.34.2,1.08.09,2.33.41,3.39.2.18-.04.23-.34.05-.42"/>
      <path class="cls-7" d="M60.63,166.07c-1.27-.09-3.01-.46-4.21.05-.15.06-.08.27.04.31.98.36,2.27.15,3.31.26.6.06,1.22.12,1.8.3.44.14.75.42,1.21.41.12,0,.24-.1.23-.23-.07-1.05-1.59-1.03-2.38-1.09"/>
      <path class="cls-7" d="M42.88,165.74c-.97-.43-1.95-.55-3-.54-.92.01-2,.04-2.72.67-.14.12-.06.37.11.41.84.23,1.76-.04,2.61-.1.97-.06,1.94-.02,2.91-.1.16-.01.28-.27.09-.35"/>
      <path class="cls-7" d="M62.5,146.97c-.08-2.99-.28-5.98-.5-8.96-.11-1.46-.28-2.93-.43-4.39-.08-.69-.15-1.36-.32-2.04-.21-.89-.71-1.81-.83-2.71-.02-.18-.29-.19-.29,0,0,.73-.3,1.46-.38,2.19-.08.74-.14,1.45-.13,2.19.04,1.46.05,2.92.1,4.39.1,2.99.18,5.97.19,8.96,0,5.9-.16,11.81-1.01,17.66-.1.72.18,1.43.94,1.65.63.18,1.55-.22,1.65-.94.86-5.96,1.15-11.99.99-18.01"/>
      <path class="cls-3" d="M80.06,58.54c-.35-1.41-.89-2.82-1.67-4.04-1.33-2.07-3.41-3.82-5.87-4.3-2.65-.52-5.71.17-8.14,1.28-1.66.76-3.04,1.94-3.57,3.61,1.79-.95,3.78-1.43,5.83-1.53,1.74-.52,3.63-1.01,5.39-.57,1.77.43,3.18,1.77,4.07,3.32.56.98.92,2.06,1.17,3.16.24,1.09.11,2.62,1.01,3.39.45.39,1.25.53,1.68,0,.98-1.19.44-2.96.1-4.33"/>
      <path class="cls-3" d="M39.49,48.87c-.75-2.19-2.24-4.18-4.17-5.44-1.97-1.29-4.37-1.91-6.72-1.66-1.26.13-2.45.45-3.61.96-1.06.47-2.49,1.19-3.05,2.26-.27.51-.16,1.15.18,1.59,2.59-1.91,6.2-2.78,9.2-1.69.72.15,1.42.4,2.07.73,1.47.76,2.87,1.87,3.69,3.33.88,1.57,1.51,3.79.61,5.47-.18.34.27.74.56.43,1.49-1.63,1.96-3.87,1.24-5.98"/>
      <path class="cls-13" d="M76.34,55.5c-1.67-2.82-5.36-6.14-8.85-4.57-3.22,1.45-4.03,6.25-1.89,8.91.28.86.67,1.67,1.14,2.36,1.89,2.8,5.29,4.7,8.34,2.38,2.9-2.21,3.02-6.11,1.26-9.08"/>
      <path class="cls-13" d="M35.74,43.36c-1.26-1.54-3.22-2.97-5.26-1.95-1.86.93-2.57,3.27-2.9,5.16-.43,2.52-.11,5.19,1.6,7.2.46.55,1.17,1.15,1.97,1.6.47.35,1,.61,1.6.73,1.65.34,3.42-.6,4.49-1.82,2.95-3.35.94-7.93-1.5-10.93"/>
      <path class="cls-2" d="M83.72,49.39c-.84-.38-1.73-1.15-2.4-1.77-.73-.68-1.36-1.45-1.84-2.33-.45-.83-.78-1.75-.92-2.68-.15-.96.08-1.98-.15-2.92-.07-.29-.51-.44-.71-.19-1.35,1.65-.35,4.72.58,6.35.56.98,1.3,1.86,2.2,2.55.43.33.9.61,1.4.82.62.27,1.12.25,1.78.34.09.01.18-.12.07-.17"/>
      <path class="cls-2" d="M37.07,33.1c-.73-.29-1.63.02-2.36.21-.91.23-1.8.51-2.67.87-1.63.67-3.01,1.55-4.34,2.7-.12.11.03.28.17.21,1.58-.77,3.26-1.46,4.93-2.02.78-.26,1.58-.49,2.38-.67.72-.16,1.47-.19,2.06-.66.25-.2.07-.56-.17-.65"/>
      <path class="cls-2" d="M33.2,71.57c-.38.7-1.18.67-1.8.35-.64-.33-.96-.95-1.26-1.57-.52-1.04-.98-2.08-2.02-2.72-1.51-.93-4.42-.84-5.09,1.13-.1.29.24.48.48.37,1.18-.58,2.18-1.16,3.56-.77,1.49.42,1.86,1.76,2.6,2.94.51.8,1.16,1.4,2.15,1.46.78.05,1.52-.25,1.73-1.05.05-.2-.24-.33-.34-.14"/>
      <path class="cls-2" d="M46.85,92.87c.02-.16-.21-.21-.28-.08-.76,1.45-1.02,3.25-1.2,4.88-.19,1.7-.4,3.7.13,5.34.05.17.32.21.36,0,.24-1.62.04-3.32.19-4.96.16-1.74.64-3.43.8-5.17"/>
      <path class="cls-2" d="M53.33,93.91c-.42.64-.57,1.42-.79,2.15-.27.9-.54,1.79-.81,2.69-.47,1.55-1.26,3.29-1.37,4.91-.01.17.24.23.32.09.8-1.41,1.09-3.31,1.56-4.86.25-.84.5-1.68.75-2.51.23-.78.58-1.58.57-2.4,0-.13-.16-.16-.23-.06"/>
      <path class="cls-2" d="M45.46,98.64c-3.39.26-5.83,3.62-7.33,6.41-1.15,2.13-2.06,4.39-2.98,6.63-1.05,2.55-2.02,5.13-2.85,7.77-1.59,5.04-2.68,10.28-2.79,15.58-.11,5.22.88,10.34,2.65,15.24.97,2.68,2.14,5.29,3.39,7.85,1.17,2.38,2.37,4.79,3.69,7.1.33,0,.66.01,1,.06-2.26-4.31-4.78-8.44-6.65-12.96-1.93-4.63-3.27-9.49-3.52-14.52-.51-10.43,3.15-20.53,7.34-29.91,1.6-3.58,3.87-8.01,8.04-8.73,0-.17,0-.34,0-.51"/>
      <path class="cls-2" d="M62.86,138.12c-.2-5.08-.66-10.14-1.13-15.21-.24-2.59-.46-5.19-.71-7.78-.23-2.41-.34-4.86-.72-7.25-.36-2.28-1.21-4.28-2.77-5.99-1.51-1.65-3.41-2.83-5.31-3.97-.05.14-.1.28-.16.42,1.59,1.12,3.18,2.28,4.53,3.67,1.58,1.62,2.49,3.54,2.9,5.75.46,2.43.66,4.92.93,7.38.27,2.47.56,4.93.78,7.41.87,9.82,1.31,19.8.71,29.66-.16,2.71-.41,5.41-.76,8.1-.18,1.42-.39,2.84-.59,4.26-.06.4-.12.81-.19,1.22.26.01.52.04.77.1.03-.25.06-.5.1-.75.19-1.33.38-2.66.56-4,.34-2.48.61-4.96.8-7.45.39-5.17.46-10.38.26-15.56"/>
      <path class="cls-2" d="M42.74,99.44c-2.14.87-4.05,2.26-5.87,3.67-.94.73-1.85,1.51-2.72,2.32-.82.76-1.98,1.63-2.48,2.65-.08.17.09.37.27.27.91-.53,1.63-1.54,2.4-2.27.83-.78,1.69-1.52,2.58-2.24,1.89-1.52,3.96-2.77,5.9-4.21.09-.06.04-.24-.08-.19"/>
      <path class="cls-2" d="M96.23,80.72c-2.44-1.52-5.67-1.65-7.98.17-.21.17.06.5.28.37,4.17-2.49,9.87.35,10.07,5.27.1,2.4-.97,4.89-2.91,6.35-2.07,1.56-4.89,1.89-7.34,1.18-1.47-.42-2.82-1.22-3.82-2.39-.5-.58-.9-1.26-1.13-2-.22-.71-.07-1.47-.35-2.15-.08-.21-.35-.33-.53-.14-.95,1.02-.22,2.85.39,3.88.81,1.36,2.06,2.42,3.47,3.12,2.71,1.35,6.05,1.43,8.75.02,5.05-2.62,6.2-10.5,1.09-13.68"/>
      <path class="cls-2" d="M82.72,89.04c-16.07,5.96-34.25,5.73-50.17-.62-4.06-1.62-8.17-3.58-11.64-6.28-3.4-2.65-5.84-6.15-7.2-10.24-2.58-7.79-1.61-16.59.93-24.25,1.44-4.34,3.49-8.47,6.05-12.25,2.18-3.22,4.77-6,7.51-8.71-.31-.05-.61-.11-.92-.17-2.38,2.05-4.45,4.49-6.31,6.99-2.5,3.38-4.55,7.08-6.12,10.98-3.07,7.62-4.5,16.37-2.84,24.49.82,4.03,2.51,7.92,5.27,11.02,2.98,3.34,6.97,5.61,10.97,7.51,8.1,3.85,16.94,6.07,25.88,6.61,9.77.6,19.64-.81,28.81-4.21-.11-.28-.19-.57-.23-.86"/>
      <path class="cls-2" d="M62.52,135.12c-5.59-.58-11.31-.61-16.92-.63-2.85,0-5.7.04-8.55.14-2.46.08-4.95.14-7.4.42,0,.19,0,.38,0,.57,2.59-.02,5.18-.21,7.77-.28,2.79-.08,5.58-.1,8.37-.09,5.6.02,11.16.42,16.74.63-.01-.25-.01-.51,0-.76"/>
      <path class="cls-2" d="M45.89,146.36c-1.29-.83-2.74-1.23-4.26-1.42-1.33-.17-3.01-.34-4.25.28-.22.11-.16.46.07.51,1.26.29,2.65.08,3.94.2,1.47.14,2.91.49,4.36.74.19.03.3-.2.13-.31"/>
      <path class="cls-2" d="M50.43,164.94c-.23-.84-.46-1.68-.69-2.52-.49-1.8-.98-3.61-1.47-5.41-.49-1.8-.98-3.61-1.47-5.41-.45-1.67-.77-3.48-1.49-5.06-.06-.14-.3-.07-.29.08.17,1.73.79,3.45,1.24,5.13.48,1.81.95,3.62,1.43,5.42.48,1.81.95,3.62,1.43,5.42.22.84.44,1.69.66,2.53.22.83.32,1.83.81,2.55.12.18.38.11.39-.11.07-.87-.34-1.78-.57-2.62"/>
      <path class="cls-2" d="M51.35,166.94c-.31.07-.62.14-.93.21-1.2-.74-2.64-1.15-3.99-1.5-1.48-.39-2.99-.66-4.52-.81-1.39-.14-5.91-.88-6,1.55-.04.97.84,1.5,1.66,1.75,1.39.43,2.97.57,4.42.68,3.18.23,6.55-.02,9.6-.97.57-.18.34-1.04-.25-.9M43.91,167.91c-1.29,0-2.58-.1-3.86-.29-.68-.1-2.8-.18-3.1-.98-.57-1.51,5.62-.77,6.27-.68,1.23.16,2.45.41,3.64.72.79.21,1.57.48,2.36.7-1.75.33-3.5.54-5.31.52"/>
      <path class="cls-2" d="M58.56,165.24c-2.69.02-5.52.56-7.88,1.9-.14.08-.05.31.11.26.01,0,.02,0,.03,0,.02.09.09.17.22.21,1.49.5,3.08.74,4.61,1.09,1.45.32,2.89.75,4.35,1.01,1.43.25,3.81.1,3.75-1.89-.07-2.48-3.43-2.58-5.2-2.57M63.01,168.01c-.32,2.03-3.88.8-5.05.53-2.03-.47-4.07-1.13-6.13-1.47,1.71-.52,3.41-.95,5.21-1.09,1.06-.08,2.13-.09,3.18.01,1.07.1,3.02.52,2.78,2.02"/>
      <path class="cls-2" d="M95.13,86.67c-1.66-1.68-4.21-2.35-6.5-1.85-.14.03-.15.19-.08.28.96,1.14,1.26,2.51,1.42,3.95.01.13.21.14.21,0,.07-1.43-.48-2.71-1.21-3.91,2.19-.03,4.15.54,6.05,1.65.08.05.17-.06.1-.13"/>
      <path class="cls-2" d="M92.39,37.71c-4.78-.32-9.57-.48-14.35-.87-4.78-.38-9.55-.88-14.31-1.47-4.84-.61-9.68-1.33-14.49-2.16-.78-.13-2.14-.16-2.7-.82-.94-1.1,1.02-2.02,1.8-2.26,2.17-.66,4.55-.96,6.8-1.27,2.72-.37,5.46-.6,8.21-.68,2.65-.08,5.35.15,7.99-.04.26-.02.35-.42.07-.48-2.47-.54-5.18-.47-7.7-.4-2.66.07-5.33.27-7.97.62-2.5.32-5.09.65-7.52,1.35-1.25.36-3.18,1.38-2.76,2.98.49,1.88,3.54,1.8,5.01,2.03,2.58.4,5.17.77,7.76,1.11,5.3.7,10.61,1.27,15.94,1.74,6.04.53,12.15,1.04,18.21,1.08.29,0,.29-.43,0-.45"/>
      <path class="cls-2" d="M52.6,28.51c-1.65-.29-3.36-.26-5.03-.35-1.79-.09-3.57-.2-5.36-.32-3.63-.25-7.26-.56-10.88-1-1.78-.22-3.55-.46-5.33-.69-1.57-.2-3.33-.25-4.81-.88-.33-.14-.74-.33-.98-.6-.21-.23-.39-.99-.24-1.3.06-.13.33-.28.45-.36.63-.42,1.39-.59,2.13-.71,1.77-.27,3.61-.33,5.4-.35,4.01-.04,8.17.26,12.09,1.09.18.04.25-.23.08-.27-3.91-1-7.75-1.65-11.8-1.65-1.9,0-3.82.07-5.7.32-1.24.17-3.03.57-3.64,1.83-.6,1.23.87,2.34,1.84,2.76,1.49.64,3.24.7,4.83.9,4.22.53,8.46.87,12.7,1.2,2.34.19,4.67.35,7.02.47,2.37.12,4.85.41,7.21.14.12-.01.18-.22.03-.24"/>
      <path class="cls-2" d="M45.82,16.97c-3.73-1.55-8.1-1.94-12.11-2.05-4.06-.1-8.14.27-12.12,1.1-4.03.84-7.97,2.16-11.68,3.95-1.36.66-2.91,1.5-3.54,2.96-.62,1.45-.02,2.97,1.16,3.93,1.62,1.31,3.76,1.15,5.69.83,2.63-.45,5.29-.9,7.86-1.6.31-.08.26-.6-.08-.57-1.98.2-3.93.57-5.89.93-1.89.34-4.08,1-5.96.31-1.96-.72-2.74-2.81-1.2-4.37,1.12-1.13,2.8-1.75,4.23-2.37,6.76-2.93,14.16-4.36,21.52-4.23,2.01.04,4.02.17,6.01.43,2.03.26,4.04.69,6.07.95.12.01.12-.16.03-.2"/>
      <path class="cls-2" d="M47.05,13.8c-1.38-1.25-3.21-2.09-4.88-2.88-1.73-.81-3.5-1.52-5.31-2.12-3.64-1.22-7.42-2-11.24-2.34-1.86-.17-3.8-.29-5.67-.16-1.05.07-2.4.46-2.45,1.73-.05,1.51,1.91,2.39,3,2.97,1.61.86,3.3,1.56,5.03,2.14,4.14,1.39,8.45,2.1,12.79,2.44.14.01.17-.22.03-.25-3.25-.77-6.55-1.31-9.78-2.16-3.18-.83-6.59-1.92-9.31-3.82-.82-.58-1.41-1.7-.13-2.11.74-.23,1.6-.16,2.36-.16,1.65,0,3.3.1,4.94.27,3.41.37,6.78,1.11,10.04,2.18,1.85.61,3.66,1.33,5.42,2.16,1.65.78,3.23,1.8,4.93,2.46.21.08.38-.23.22-.38"/>
      <path class="cls-2" d="M62.41,15.85c-3.75-1.32-7.06-3.4-9.97-6.09-2.88-2.66-5.3-5.71-7.88-8.64-.93-1.05-2.26-1.7-3.34-.43-1.11,1.31-.42,3.37.04,4.81,1.07,3.32,3.01,6.34,5.5,8.76,2.85,2.76,6.38,4.65,10.29,5.33.12.02.17-.15.05-.19-6.3-1.64-11.84-6.16-14.43-12.16-.33-.76-.6-1.54-.83-2.33-.28-.98-.71-2.24-.35-3.24.23-.66.91-1.2,1.64-.88.36.17.65.54.91.83.57.66,1.13,1.33,1.7,1.99,2.21,2.59,4.46,5.18,7.03,7.43,2.75,2.41,5.89,4.49,9.54,5.16.25.05.35-.3.1-.38"/>
      <path class="cls-2" d="M104.89,33.49c1.72,2.51,2.86,5.38,3.48,8.36,1.28,6.16.41,12.64-1.81,18.47-2.83,7.47-7.58,13.79-12.03,20.34-.03.04-.05.09-.07.13.35.11.68.23,1.01.39,7.71-10.78,15.71-23.72,13.81-37.56-.87-6.31-3.92-11.8-8.96-15.72-2.68-2.08-5.68-3.73-8.73-5.2-3.26-1.58-6.61-2.97-10.03-4.18-7.77-2.75-15.89-4.53-24.09-5.28-.19-.02-.18.27,0,.29,7.14.71,14.24,2.15,21.06,4.42,6.59,2.2,13.26,4.96,19.11,8.76,2.78,1.81,5.35,4.01,7.24,6.77"/>
      <path class="cls-2" d="M90.15,39.85c-.29-.69-.59-1.4-.91-2.1-.17-.02-.33-.04-.5-.06.23.48.46.96.67,1.45.61,1.42,1.15,2.88,1.63,4.36.91,2.84,1.62,5.74,2.07,8.7.9,6.01.77,12.18-.42,18.13-.67,3.33-1.78,6.43-3.06,9.56-.23.57.69.82.93.26,1.15-2.79,1.91-5.79,2.54-8.73.62-2.94.99-5.94,1.11-8.95.25-6.04-.53-12.12-2.3-17.9-.49-1.6-1.09-3.17-1.74-4.71"/>
      <path class="cls-2" d="M50.79,101.03c-.63.17-1.29.26-1.94.26-1.21,0-2.36-.31-3.41-.88,0,.17,0,.35,0,.52,1.01.52,2.11.83,3.26.87.74.03,1.73,0,2.56-.28.07-.24.14-.48.21-.73-.23.08-.45.17-.69.23"/>
      <path class="cls-2" d="M35.09,59.68c-1.65.39-3.1.79-4.82.49-1.57-.28-2.95-1.02-4.22-1.96-.14-.1-.28.11-.18.23,2.07,2.3,6.64,3.38,9.36,1.63.2-.13.07-.43-.16-.38"/>
      <path class="cls-2" d="M66.52,69.3c-1.23-.42-2.44-.7-3.57-1.39-1.1-.67-2.05-1.55-2.85-2.56-.04-.05-.12.01-.09.07,1.14,2.26,3.8,4.42,6.46,4.3.25-.01.29-.35.06-.42"/>
      <path class="cls-13" d="M80.76,58.95c-.07-1.54-.35-3.05-1.02-4.44-1.14-2.36-3.36-4.1-5.83-4.9-5.29-1.71-12.11,1.12-14.52,6.19-.06.13.1.28.21.16,1.71-1.72,3.55-3.24,5.87-4.05,2.41-.83,5.15-1.11,7.6-.33,2.02.64,3.87,2.1,4.77,4.04.55,1.19.72,2.52.74,3.82.02,1.12-.4,2.7.29,3.67.28.39.83.53,1.2.15.97-.99.75-3.04.69-4.32"/>
      <path class="cls-2" d="M47.3,53.32c-.38.7-.6,1.47-.89,2.21-.19.49-.4.98-.62,1.46-.16.35-.33.92-.6,1.19-.65.67-1.03,0-1.66-.17-.44-.13-.92-.04-1.33.17-2.2,1.14-1.32,4.57.78,5.32.21.08.39-.19.28-.37-.64-1.12-2.27-2.16-1.39-3.66.45-.77,1.23-.96,1.97-.52.32.19.55.44.95.39.95-.11,1.37-1.64,1.67-2.34.49-1.14,1.01-2.37,1.05-3.62,0-.11-.16-.16-.21-.06"/>
      <path class="cls-2" d="M58.57,71.38s-.01.02,0,.02c.01,0,.01-.02,0-.02"/>
      <path class="cls-2" d="M65.78,72.98c-2.23-.69-4.55-1.09-6.84-1.56-.14-.03-.19.17-.06.21,2.26.57,4.53,1.21,6.84,1.56.13.02.19-.17.06-.21"/>
      <path class="cls-2" d="M64.97,74.37c-1.6-.45-3.26-.76-4.89-1.11-.06-.01-.09.08-.03.1,1.62.4,3.24.84,4.89,1.12.08.01.11-.1.03-.12"/>
      <path class="cls-2" d="M62.05,76.48c-.92-.52-2.03-.86-3.04-1.15-.19-.05-.33.24-.14.33.96.45,2.02.92,3.06,1.13.17.03.3-.2.13-.3"/>
      <path class="cls-2" d="M24.45,60.58c-1.68-.56-3.53-.81-5.28-1.05-.12-.02-.18.15-.05.19,1.72.49,3.51,1,5.29,1.16.18.02.2-.25.04-.3"/>
      <path class="cls-2" d="M22.17,61.97c-.9-.89-2.34-1.12-3.51-.65-.14.05-.14.3.04.28,1.2-.12,2.21.09,3.3.59.14.06.29-.1.17-.22"/>
      <path class="cls-2" d="M22.15,63.34c-1.26-.17-2.52-.26-3.78-.37-.11,0-.1.15,0,.16,1.25.14,2.5.29,3.76.36.09,0,.11-.14.02-.15"/>
      <path class="cls-7" d="M30.62,45.4c-.55-.42-1.35-.66-2.14-.67-.36-.13-.77-.15-1.16-.04-.53.15-.92.52-1.15.97-.25.37-.37.85-.26,1.45.06.34.28.61.57.79.45.55,1.14.91,1.84.92,1.06.02,1.86-.57,2.58-1.28.69-.68.41-1.62-.28-2.15"/>
      <path class="cls-7" d="M36.78,52.23c-.21-.19-.47-.31-.76-.31-.27,0-.56.12-.76.31-.18.18-.33.49-.31.76.01.28.1.56.31.76.21.19.47.31.76.31.27,0,.56-.12.76-.31.18-.18.33-.49.31-.76-.01-.28-.1-.56-.31-.76"/>
      <path class="cls-7" d="M68.15,56.66c-.05-.72-.52-1.38-1.39-1.33-.43.02-.88.08-1.3.2-.47-.04-.96.04-1.41.21-.93.36-2.06,1.28-2.09,2.35-.04,1.28,1.21,1.81,2.31,1.78,1.25-.03,2.48-.45,3.5-1.15.77-.53.86-1.4.37-2.05"/>
      <path class="cls-7" d="M75.06,62.42c-.2-.18-.44-.29-.71-.29-.26,0-.53.11-.71.29-.17.17-.3.46-.29.71.01.26.1.53.29.71.2.18.44.29.71.29.26,0,.53-.11.71-.29.17-.17.3-.46.29-.71-.01-.26-.1-.53-.29-.71"/>
      <path class="cls-11" d="M75.28,56.08c-.07-.37-.15-.72-.23-1.02-.42-1.53-1.38-2.99-3.14-3.01-4.32-.05-2.95,7.04-.3,8.47.57.31,1.17.36,1.72.22.42.01.85-.14,1.26-.51.24-.23.42-.5.55-.81.19-.29.34-.6.43-.92.23-.82.07-1.65-.28-2.4"/>
      <path class="cls-11" d="M36.63,47.05c-.06-.41-.16-.81-.3-1.2-.01-.08-.02-.16-.04-.24-.24-1.39-.91-3.51-2.63-3.51-1.67,0-2.45,1.78-2.57,3.2-.14,1.66.38,3.57,1.56,4.79.24.25.5.44.78.57.04.03.09.06.14.09.2.17.42.34.65.5.44.3,1.12.09,1.37-.36.02-.03.03-.06.04-.08.44-.27.77-.71.94-1.23.26-.83.26-1.69.08-2.51"/>
      <path class="cls-13" d="M40.2,49.35c-.22-2.08-.98-4.1-2.26-5.76-2.71-3.5-7.5-4.57-11.63-3.19-1.12.37-2.2.9-3.15,1.61-.53.39-1.04.81-1.45,1.34-.47.6-.57,1.01-.61,1.74-.03.49.56,1,1.05.8.6-.25.97-.4,1.46-.87.4-.38.8-.76,1.24-1.09.85-.62,1.81-1.09,2.82-1.38,2.12-.62,4.5-.51,6.47.55,1.97,1.06,3.51,2.9,4.24,5.01.36,1.04.64,2.25.64,3.35,0,1.13-.32,2.23-.38,3.35,0,.08.1.11.15.06,1.33-1.29,1.6-3.74,1.41-5.51"/>
      <path class="cls-10" d="M54.08,114.69c0,4.21-3.41,7.63-7.63,7.63s-7.63-3.41-7.63-7.63,3.41-7.63,7.63-7.63,7.63,3.41,7.63,7.63"/>
      <path class="cls-7" d="M46.45,112.69c0,1.53-1.24,2.77-2.77,2.77s-2.77-1.24-2.77-2.77,1.24-2.77,2.77-2.77,2.77,1.24,2.77,2.77"/>
      <path class="cls-7" d="M51.99,112.69c0,1.53-1.24,2.77-2.77,2.77s-2.77-1.24-2.77-2.77,1.24-2.77,2.77-2.77,2.77,1.24,2.77,2.77"/>
      <path class="cls-2" d="M49.49,112.74c0,.58-.47,1.06-1.06,1.06s-1.06-.47-1.06-1.06.47-1.06,1.06-1.06,1.06.47,1.06,1.06"/>
      <path class="cls-2" d="M45.17,112.74c0,.58-.47,1.06-1.06,1.06s-1.06-.47-1.06-1.06.47-1.06,1.06-1.06,1.06.47,1.06,1.06"/>
      <path class="cls-2" d="M44.09,119.3c-.15,0-.29-.09-.34-.24-.07-.19.03-.39.22-.46l6.66-2.41c.19-.07.39.03.46.22.07.19-.03.39-.22.46l-6.66,2.41s-.08.02-.12.02"/>
      <path class="cls-5" d="M61.76,112.73c.68.25,1.24.66,1.7,1.17.13-1.96-.04-3.95-.86-5.74-.86-1.85-2.22-3.04-3.96-3.89,0,.02,0,.04,0,.06,0,.02,0,.03,0,.05.04,0,.06.03.07.08.32,2.14.09,4.44-.19,6.58-.08.61-.18,1.22-.29,1.82,1.13-.38,2.38-.37,3.54-.14"/>
      <path class="cls-14" d="M11.86,74.75c.76,1.23.51,2.72.27,4.05-1.49.26-2.94.74-4.23,1.49.12-1.05-.02-2.18-.02-3.2-.01-1.23-.32-3.08,1.22-3.47,1.04-.26,2.2.23,2.76,1.14"/>
      <path class="cls-14" d="M19.16,109.53c.34.96.67,1.93.93,2.92.26.98.38,2,.67,2.97.02.07.12.05.12-.01.04-.73-.04-1.48-.18-2.23,2.86.24,5.4,1.42,7.54,3.34.7.62,1.34,1.3,1.97,1.99-2.85,1.63-5.95,2.42-9.27,2.11-3.7-.35-6.87-2.08-9.47-4.69-2.71-2.73-4.96-6.05-6.78-9.43-1.83-3.41-3.22-7.03-3.84-10.87-.33-2.05-.43-4.39.73-6.22,1.19-1.88,3.34-2.6,5.27-3.44.18-.08.05-.36-.13-.32-.61.17-1.24.36-1.84.59.08-1.16.38-2.18,1.16-3.13.49-.6,1.07-1.12,1.71-1.56.39-.26.79-.5,1.21-.71,2.64-1.32,5.91-1.58,8.79-1.07,1.3.23,2.82.59,3.95,1.29.75.47,1.32,1.31.53,2.03-.46.43-1.2.6-1.8.71-3.29.58-6.63.38-9.95.6-.09,0-.15.1-.13.18-.61.04-1.2.19-1.73.44-.03.02-.02.06.02.06,1.15.04,2.26-.04,3.4.25,1.16.3,2.27.88,3.15,1.7.78.74,1.57,2.02,1.15,3.14-.37.98-1.22,1.22-2.13,1.23-1.27-2.42-4.44-2.73-6.76-3.61-.21-.08-.36.27-.16.37,1.74.88,3.78,1.2,5.28,2.51.68.59,1.3,1.47,1.22,2.42,0,.05-.01.1-.02.15-.17.92-1.17,1.92-2.13,1.51-1.01-2.15-3.29-4.07-5.18-4.46-.12-.03-.17.12-.08.19,1.07.82,2.2,1.44,3.12,2.46.56.62,1.14,1.38,1.51,2.2.27.6.44,1.23.41,1.87-.05,1.5-1.52,2.95-3,1.97-1.12-.74-1.12-1.87-1.22-3,.03-.05.05-.11.04-.18-.03-.17-.07-.32-.13-.48-.02-.11-.04-.23-.07-.34-.03-.13-.13-.21-.24-.23-.76-1.06-2.29-1.71-3.44-1.85-.24-.03-.29.37-.06.42.8.19,1.54.54,2.17,1.07.33.27.58.6.83.93-.31,1.52.42,3.51,1.72,4.32,1.34.84,2.93.3,3.69-1.04.5-.88.54-1.87.28-2.85.78.01,1.46-.38,1.92-.97.06.31.13.62.18.89.19.94.46,1.87.76,2.79.61,1.91,1.35,3.76,2.12,5.61.76,1.81,1.53,3.61,2.18,5.45"/>
      <path class="cls-14" d="M61.76,112.73c-1.17-.23-2.41-.25-3.54.14-.3,1.6-.71,3.18-1.23,4.73-.45,1.32-.9,3.11-2.25,3.8-1.26.64-2.75.16-3.96-.37-3.57-1.57-6.97-3.71-10.08-6.06-1.5-1.13-2.92-2.36-4.33-3.6-1.5-1.32-3.1-2.6-5.04-3.17-2.04-.59-4.18-.33-6.18.27-1.79.54-3.42,1.43-5.14,2.11.25.78.49,1.61.66,2.44,4.04-.89,7.43,1.99,10.12,4.95.79.86,1.51,1.73,2.18,2.51,3.08,3.61,6.65,6.95,11.19,8.62,4.08,1.5,8.77,1.4,12.59-.8,4.37-2.52,5.71-7.52,6.45-12.19.12-.73.21-1.47.26-2.22-.47-.51-1.03-.91-1.7-1.17"/>
      <path class="cls-7" d="M22.32,82.13c-.3-1.14-1.91-1.67-2.91-2.01-1.25-.43-2.58-.6-3.9-.59-2.53.02-5.84.72-7.76,2.47-.06.06,0,.17.08.14,2.54-.83,4.81-1.6,7.53-1.54,1.22.03,2.44.21,3.6.6,1.01.33,2.01,1.27,3.07,1.3.19,0,.33-.19.28-.37"/>
      <path class="cls-7" d="M10.77,73.21c-.96-.38-2.8-.1-2.84,1.2,0,.14.14.31.29.29.72-.08,1.3-.56,2.06-.41.88.18,1.49.96,1.6,1.83.01.1.15.08.18,0,.39-1.14-.14-2.45-1.3-2.91"/>
      <path class="cls-1" d="M19.2,110.07c-.46-1.61-1.04-3.2-1.65-4.76-.63-1.62-1.21-3.26-1.76-4.91-.55-1.64-.84-3.41-1.47-5.01-.36-.94-2.03-.93-1.92.26.15,1.67.77,3.38,1.29,4.97.51,1.57,1.14,3.1,1.81,4.61.67,1.5,1.55,2.88,2.3,4.34.39.76.76,1.52,1.02,2.33.27.84.35,1.76.67,2.57.08.19.4.25.45,0,.28-1.41-.37-3.05-.75-4.4"/>
      <path class="cls-1" d="M13.3,95.98c-.34-.92-1.97-.89-1.85.25.1,1.04.03,2.03-.85,2.75-.82.67-2.01.62-2.86.04-1-.68-1.12-1.82-1.26-2.93-.13-1.04-.52-1.79-1.3-2.5-.11-.1-.27.02-.2.16.39.77.13,1.79.14,2.63,0,.75.01,1.51.28,2.23.49,1.3,1.67,2.24,3,2.58,2.84.72,5.97-2.3,4.91-5.2"/>
      <path class="cls-1" d="M28.84,117.67c-.6.33-1.09.84-1.68,1.21-.62.38-1.28.69-1.97.91-1.33.43-2.83.67-4.21.8-.09,0-.16.15-.05.2,1.53.68,2.99.74,4.63.33,1.49-.38,3.39-1.14,4.3-2.43.46-.64-.41-1.35-1.02-1.02"/>
      <path class="cls-1" d="M27.15,114.63c-1.62-.88-3.24-1.22-5.07-.94-.15.02-.14.26,0,.29,1.47.33,3.03,1.04,4.18,2.02.55.47,1.1.98,1.55,1.55.45.58.68,1.41,1.36,1.75.43.22,1.15.07,1.23-.5.24-1.67-1.93-3.44-3.26-4.17"/>
      <path class="cls-1" d="M30.52,110.25c-.7-1.71-3.97-3.15-5.63-2.14-.07.04-.07.17.02.19.96.19,1.9.05,2.84.39,1.02.37,1.69,1.1,2.54,1.73.1.07.27-.05.22-.17"/>
      <path class="cls-1" d="M26.95,112.08c-1.14-1.71-4.21-2.63-6.16-2.26-.08.01-.08.14,0,.15,1.03.18,2.06.27,3.05.64,1.09.41,1.92,1.13,2.94,1.64.11.05.25-.06.17-.18"/>
      <path class="cls-2" d="M6.44,90.29c-.12-.03-.17.12-.08.19,1.07.82,2.2,1.44,3.12,2.46.97,1.08,1.98,2.56,1.92,4.07-.05,1.5-1.52,2.94-3,1.97-1.46-.96-1.01-2.58-1.38-4-.09-.33-.54-.3-.64,0-.51,1.55.23,3.79,1.63,4.66,1.34.84,2.93.3,3.69-1.04,1.78-3.16-2.23-7.68-5.26-8.31"/>
      <path class="cls-2" d="M16.86,87.96c-1.41-2.58-5.52-4.27-8.26-2.95-.03.02-.02.07.02.07,1.15.04,2.26-.04,3.4.25,1.16.3,2.27.88,3.15,1.7.78.74,1.57,2.02,1.15,3.14-.41,1.08-1.42,1.26-2.43,1.24-.15,0-.27.18-.18.31.68.94,1.99.5,2.7-.17.99-.94,1.09-2.4.45-3.58"/>
      <path class="cls-2" d="M14.38,91.81c-1.11-2.8-4.51-3.09-6.95-4.02-.21-.08-.36.27-.16.37,1.74.88,3.78,1.2,5.28,2.51.68.6,1.3,1.47,1.22,2.42-.08.97-1.17,2.13-2.2,1.65-.63-.3-1.03.65-.37.88,2.26.77,3.97-1.82,3.17-3.81"/>
      <path class="cls-2" d="M22.93,81.05c-.7-.94-2.02-1.38-3.09-1.73-1.36-.44-2.79-.68-4.22-.75-2.73-.12-5.67.42-8.02,1.88-2.07,1.29-4.31,3.8-3.56,6.45,0,0,0,0,0,0,.26-.14.53-.26.8-.37.04-1.29.33-2.41,1.18-3.45.78-.96,1.81-1.71,2.91-2.26,2.64-1.33,5.91-1.58,8.79-1.07,1.3.23,2.82.59,3.95,1.29.75.46,1.32,1.31.54,2.03-.46.43-1.2.6-1.8.71-3.29.58-6.63.38-9.95.6-.14,0-.2.24-.04.27,3.19.48,6.69.2,9.87-.25,1.55-.22,4.03-1.46,2.62-3.35"/>
      <path class="cls-2" d="M9.39,72.78c-1.21.09-2.09.87-2.28,2.07-.17,1.01-.06,2.1-.06,3.12,0,1.08-.15,2.22.2,3.26.07.23.38.23.46,0,.42-1.28.19-2.81.18-4.14,0-1.23-.32-3.08,1.22-3.47,1.04-.26,2.2.24,2.76,1.14.77,1.24.5,2.75.26,4.09-.06.33.4.46.51.14.86-2.49.09-6.45-3.24-6.2"/>
      <path class="cls-2" d="M19.77,109.83c-.62-1.91-1.39-3.76-2.14-5.62-.73-1.81-1.46-3.62-2.03-5.48-.3-.97-.53-1.96-.71-2.96-.16-.88-.11-1.94-.52-2.74-.11-.21-.4-.13-.47.06-.27.79.02,1.79.18,2.59.19.94.46,1.87.76,2.79.61,1.91,1.35,3.77,2.12,5.61.76,1.81,1.53,3.61,2.19,5.45.34.96.67,1.93.93,2.92.26.98.38,2,.67,2.97.02.07.12.05.12-.02.1-1.83-.55-3.85-1.11-5.56"/>
      <path class="cls-2" d="M63.13,107.53c-.94-1.98-2.71-3.97-5-4.23,0,0-.01,0-.02,0,.13.29.25.58.36.87,1.82.86,3.25,2.06,4.13,3.98,1.14,2.48,1.03,5.33.61,7.96-.74,4.67-2.08,9.67-6.45,12.19-3.82,2.2-8.51,2.29-12.59.8-4.53-1.67-8.11-5-11.19-8.62-2.98-3.49-7.14-8.67-12.41-7.44-.07.01-.05.11.01.11,2.91.22,5.49,1.41,7.66,3.34,2.03,1.81,3.62,4.02,5.43,6.03,3.22,3.58,7.28,6.69,12.01,7.9,4.15,1.07,8.84.5,12.33-2.11,3.92-2.93,5.21-7.95,5.89-12.57.4-2.75.44-5.67-.77-8.23"/>
      <path class="cls-2" d="M58.7,104.46c-.02-.14-.23-.1-.23.03-.1,1.95-.02,3.89-.26,5.84-.24,2.03-.66,4.05-1.25,6-.49,1.64-1.03,4.46-3,4.88-1.82.39-3.89-1.01-5.41-1.82-3.4-1.84-6.61-4.07-9.51-6.63-2.47-2.18-4.91-4.86-8.29-5.5-1.89-.36-3.82-.12-5.65.41-1.86.54-3.8,1.3-5.47,2.31.09.22.16.44.23.66,1.78-.7,3.45-1.62,5.29-2.18,2-.6,4.14-.86,6.18-.27,1.94.57,3.55,1.85,5.04,3.17,1.41,1.24,2.83,2.46,4.33,3.6,3.11,2.35,6.51,4.49,10.08,6.06,1.2.53,2.7,1.01,3.95.37,1.36-.69,1.81-2.47,2.25-3.8.72-2.13,1.22-4.33,1.52-6.55.28-2.14.51-4.44.19-6.58"/>
      <path class="cls-2" d="M30.92,118.76c-.14-.15-.27-.3-.4-.46-2.93,1.75-6.14,2.62-9.58,2.29-3.7-.35-6.87-2.08-9.47-4.69-2.72-2.73-4.96-6.05-6.78-9.43-1.83-3.41-3.22-7.03-3.84-10.87-.33-2.06-.43-4.39.73-6.22,1.19-1.88,3.34-2.59,5.27-3.44.18-.08.05-.36-.13-.31-1.79.48-3.7,1.2-5.01,2.59-1.2,1.27-1.65,2.99-1.7,4.7-.11,4.04,1.4,8.29,3.04,11.93,1.73,3.84,4.15,7.36,6.83,10.6,2.56,3.1,5.79,5.4,9.81,6.06,3.91.64,8.23-.1,11.46-2.49-.08-.08-.15-.16-.22-.24"/>
      <path class="cls-2" d="M7.22,95.8c-.26-1.67-2.39-2.71-3.88-2.9-.24-.03-.29.37-.06.42.8.19,1.54.54,2.17,1.07.56.47.9,1.1,1.41,1.61.16.16.38,0,.35-.21"/>
      <path class="cls-2" d="M21.56,82.42c-.71.35-1.62.46-2.14-.28-.53-.76-.1-1.56.42-2.17.02-.02,0-.06-.03-.05-.98.24-1.15,1.66-.65,2.4.52.77,1.91,1.06,2.56.3.09-.11-.02-.26-.15-.19"/>
      <path class="cls-2" d="M63.93,113.99c-.46-.85-1.83-1.26-2.72-1.41-.53-.09-1.08-.12-1.61-.05-.22.03-1.48.48-1.63.43.01,0,.02-.01,0-.03-.02-.02-.04-.05-.06-.07,0,0-.01,0-.02,0-.16.03-.15.02-.23.16-.03.05-.02.14.04.17.34.16.45.08.84,0,.62-.14,1.25-.22,1.89-.17.7.05,1.4.24,2.03.54.44.21.8.56,1.26.7.15.05.27-.13.2-.26"/>
      <path class="cls-7" d="M62.34,107.65c-.58-1.27-1.88-3.49-3.57-3.26-.09.01-.13.12-.11.2.17.65.76,1.26,1.14,1.81.5.71.94,1.44,1.24,2.26.64,1.69.91,3.54,1.01,5.33.11,1.89-.11,3.76-.61,5.58-.52,1.89-1.56,3.49-2.23,5.3-.11.3.3.49.51.3,1.46-1.34,2.28-3.58,2.86-5.44.63-2.04.96-4.22.96-6.36,0-1.96-.41-3.92-1.22-5.7"/>
      <path class="cls-7" d="M54.73,121.79c-1.16-.18-2.32-.23-3.48-.5-1.21-.28-2.42-.72-3.55-1.26-2.23-1.06-4.22-2.53-6.09-4.12-1.79-1.53-3.52-3.13-5.38-4.58-.88-.69-1.78-1.34-2.73-1.92-.86-.52-2.03-1.42-3.08-1-.24.1-.47.35-.36.63.39,1.06,1.62,1.4,2.51,1.95,1.09.66,2.13,1.4,3.13,2.19,1.98,1.55,3.85,3.25,5.84,4.79,1.99,1.54,4.11,2.89,6.46,3.8,2.05.8,4.69,1.29,6.77.38.15-.07.12-.34-.05-.37"/>
      <path class="cls-1" d="M57.5,127.24c-1.19.29-2.41.32-3.62.55-1.21.23-2.45.3-3.68.34-2.52.08-4.93-.29-7.23-1.38-2.15-1.02-4.06-2.45-5.92-3.92-2.08-1.64-3.81-3.58-5.75-5.36-.08-.08-.23.02-.16.13,1.49,2.29,3.25,4.52,5.09,6.54,1.78,1.96,4.05,3.53,6.48,4.58,2.51,1.08,5.11,1.44,7.83,1.33,1.34-.05,2.7-.14,4.01-.41,1.27-.26,2.32-1.05,3.15-2.02.14-.16,0-.42-.21-.37"/>
      <path class="cls-8" d="M65.82,19.26c-2.13-1.6-4.96-2.22-7.39-3.26-2.32-.99-4.63-2.08-6.56-3.74-1.89-1.63-3.47-3.74-4.9-5.77-1.14-1.62-2.05-3.91-4.24-4.14-.28-.03-.68.19-.79.46-.98,2.3,1.09,4.42,2.44,6.13,1.67,2.12,3.54,4.04,5.8,5.53,2.1,1.38,4.49,2.36,6.84,3.19,2.69.95,5.78,2.32,8.68,2.07.25-.02.32-.31.12-.45"/>
      <path class="cls-8" d="M49.68,15.64c-2.37-1.04-4.6-2.16-7.06-3.05-2.45-.88-4.96-1.63-7.45-2.42-3.55-1.13-10.61-3.98-13.44-.29-.38.49-.03,1.15.38,1.46,1.77,1.31,4.46,1.02,6.55,1.45,2.3.48,4.58,1.14,6.87,1.67,2.3.53,4.6,1.08,6.92,1.51,2.32.43,4.57.56,6.9.84.61.07.88-.93.32-1.17"/>
      <path class="cls-8" d="M81.79,31.16c-2.45-.53-4.83-1.21-7.32-1.56-2.54-.35-5.17-.42-7.73-.47-2.54-.05-5.08.04-7.62.16-2.15.1-4.66-.12-5.99,1.86-.3.46-.16,1.09.19,1.47,1.58,1.69,4.11,1.04,6.18.93,2.41-.13,4.82-.17,7.24-.22,2.41-.05,4.83,0,7.24-.08,2.54-.08,5.06-.45,7.6-.51.87-.02,1.12-1.38.21-1.57"/>
      <path class="cls-8" d="M63.01,24.76c-4.86-.84-9.67-1.22-14.61-1.39-2.41-.08-4.81-.16-7.22-.24-2.32-.08-4.76-.46-6.91.56-.62.29-.55,1.24,0,1.55,1.99,1.11,4.32.9,6.53.96,2.41.07,4.81.15,7.22.22,4.98.15,9.86.11,14.82-.43.64-.07.93-1.11.17-1.24"/>
    </g>
  </g>
</svg>