<?xml version="1.0" encoding="UTF-8"?>
<svg id="Layer_2" data-name="Layer 2" xmlns="http://www.w3.org/2000/svg" viewBox="0 0 143.71 166.84">
  <defs>
    <style>
      .cls-1 {
        fill: #dc7053;
      }

      .cls-2 {
        fill: #c5413e;
      }

      .cls-3 {
        fill: #8a96bb;
      }

      .cls-4 {
        fill: #6c87bf;
      }

      .cls-5 {
        fill: #dbd9eb;
      }

      .cls-6 {
        fill: #d3e8f8;
      }

      .cls-7 {
        fill: #e99249;
      }

      .cls-8 {
        fill: #fff;
      }

      .cls-9 {
        fill: #656ca2;
      }

      .cls-10 {
        fill: #f1b24f;
      }

      .cls-11 {
        fill: #e58889;
      }

      .cls-12 {
        fill: #f9f4b6;
      }

      .cls-13 {
        fill: #a63f40;
      }

      .cls-14 {
        fill: #e9e9f4;
      }

      .cls-15 {
        fill: #efb291;
      }

      .cls-16 {
        fill: #76abda;
      }
    </style>
  </defs>
  <g id="Layer_8_copy_2" data-name="Layer 8 copy 2">
    <g>
      <path class="cls-3" d="M80.48,135.75c1.02,9.31,2.04,18.62,3.05,27.93,4.84-2.82,10.93-2.76,15.84-.07-1.46-14.41-4.22-28.02-7.87-42.03-2.7,2.56-6.42,3.4-10.14,3.37-3.72-.03-7.35-1.01-10.94-1.98-4.22-1.14-8.55-3-12.87-2.35-4.32.65-8.5,3.25-10.29,7.24-1.23,2.74-1.25,5.9-.64,8.84.61,2.94,1.83,5.71,3.04,8.46,4.77-.46,9.63-.41,14.37.34-1.05-3.31-1.24-6.33-.58-9.73,6.06.54,10.97.47,17.03-.02"/>
      <path class="cls-15" d="M128.55,85.41c2.47.5,4.33,3.13,2.87,5.55-.7,1.17-1.97,1.84-3.31,1.42-.55-.17-1.06-.48-1.45-.89-.08-.08-.15-.17-.22-.26.93-.35,1.67-1.08,2.08-2.03.46-1.06.47-2.54.04-3.79"/>
      <path class="cls-15" d="M125.52,83.37c2.24.21,3.05,3.5,2.35,5.33-.4,1.03-1.25,1.8-2.37,1.91-1.01.09-1.66-.36-2.33-1.01.49-.2.94-.53,1.23-.81,1.05-1.04,1.29-2.59,1.26-4.01,0-.44-.04-.94-.13-1.41"/>
      <path class="cls-15" d="M124.97,83.09c-.15.04-.13.3.04.29.02,0,.04,0,.06,0,.17.75.16,1.59.1,2.33-.08.98-.37,2.04-1.12,2.73-.4.37-.93.62-1.46.66-.1,0-.2,0-.3,0-.01-.94-.66-2.14-1.25-3.04.29-.55.4-1.22.62-1.81.26-.68.56-1.38.67-2.1,0-.07.02-.13.02-.2.83-1.08,2.27.04,2.61,1.02.01.04.03.08.04.12,0,0-.01,0-.02,0"/>
      <path class="cls-15" d="M120.53,85.34c-.98-1.32-2.49-2.24-4.07-2.29.47-.8.85-1.68,1.53-2.33.8-.77,2.37-1.29,3.3-.41.53.51.64,1.06.54,1.64-.19,1.11-1.14,2.3-1.28,3.42,0-.01-.01-.02-.02-.03"/>
      <path class="cls-15" d="M121.56,89.13c-.13.03-.19.19-.13.3-.02.02-.05.05-.07.08-.45.47-1.05.48-1.69.36-.8-.15-1.56-.54-2.2-1.04-.68-.54-1.05-1.32-1.7-1.87-.21-.18-.55-.07-.56.23-.03,1.13,1.02,2.07,1.9,2.63,1.03.65,2.3.9,3.5.79.85-.08,1.32-.38,1.53-.81.09,0,.18,0,.28,0,0,.01,0,.03.01.04.37,1.18,1.77,1.67,2.92,1.61.3.53.81.99,1.37,1.31-.04.19-.09.38-.14.56-.37,1.16-1.08,2.2-2.24,2.67-1.68.67-3.43,0-4.9-.98-.07-.1-.18-.17-.3-.2-.44-.31-.85-.65-1.22-.97-.19-.17-.43.08-.27.27.28.35.6.68.96,1-1.61,2.05-2.11,4.69-3.53,6.86-1.44,2.22-3.68,4.12-6.35,4.58-1.68.28-3.33-.12-4.95-.56-1.53-.42-3.05-.88-4.56-1.36-3.02-.96-6.01-2.03-8.95-3.21-.45-.18-.9-.37-1.35-.56-.02-.59-.17-1.19-.19-1.78-.03-1.02.14-2.04.42-3.02.27-.95.7-1.79,1.15-2.66.03-.06.06-.12.09-.18.97.23,1.94.49,2.9.75,3.08.83,6.15,1.7,9.23,2.52,2.5.67,5.09,1.61,7.14-.5.86-.88,1.41-1.97,1.87-3.1.29-.7.54-1.41.86-2.1.33-.71.78-1.35,1.12-2.05.1-.21-.11-.49-.33-.37-.74-1.54-.24-3.5,1.33-4.34.53-.28,1.07-.42,1.61-.44,1.45-.05,2.83.78,3.74,1.99.53.7.95,1.49,1.33,2.27.12.26.26.51.34.79.07.23.1.35.07.47-.03,0-.05,0-.08.02"/>
      <path class="cls-15" d="M22.39,89.11c-.04.71-.17,1.37-.76,2.01-.25.27-.52.46-.81.6-1.04.49-2.3.2-3.36-.34-1.22-.61-2.44-1.61-2.78-2.99-.27-1.09.09-2.11.85-2.84.24.66.57,1.29.85,1.78.85,1.51,2.2,2.88,4.08,2.59.65-.1,1.32-.39,1.93-.81"/>
      <path class="cls-15" d="M20.22,85.36c.86.86,2.31,1.69,3.55,1.34-.36.35-.7.74-1.06,1.09-.12-.06-.27.04-.28.18,0,.03,0,.06,0,.09-.2.18-.41.35-.64.5-1.29.85-2.75.85-3.86-.3-.85-.89-1.62-2.29-1.9-3.49-.18-.76-.14-1.58.54-2.05.43-.3,1.11-.47,1.57-.16.52,1.06,1.34,2.08,2.07,2.81"/>
      <path class="cls-15" d="M22.44,81.07c.53.68,1.15,1.24,1.76,1.56-.64.97-.98,2.14-.9,3.39-.85-.05-1.61-.3-2.34-.95-.85-.75-1.53-1.79-2.08-2.78-.59-1.06-.94-3.04.9-2.93,1.22.08,2.24,1.24,2.82,2.23.03.05.11,0,.08-.05-.09-.15-.17-.31-.26-.47"/>
      <path class="cls-15" d="M26.52,77.17c.76.85,1.17,1.96,1.56,3.03-1.5.18-2.81.99-3.68,2.15-.68-.91-1.66-1.53-2.2-2.58-.61-1.19-.46-3.1.93-3.68,1.21-.5,2.57.17,3.38,1.09"/>
      <path class="cls-15" d="M27.69,84.44c-1.05.74-2.18,1.29-3.46,1.57-.14.01-.27.02-.4.02-.15-2.71,1.95-5.06,4.44-5.32,0,.03.02.05.03.08.04.11.2.07.18-.05,0-.02,0-.03,0-.05.84-.05,1.71.14,2.56.63,1.55.91,2.29,2.62,2.92,4.21.57,1.46,1.13,2.88,2.11,4.12,4.71,6.04,13.87,5.63,20.71,5.54.86-.01,1.71-.03,2.56-.06.41.71.7,1.48.83,2.29.17.97-.08,1.85-.06,2.81-5.19.9-10.41,1.6-15.7,1.56-3.74-.03-7.64-.22-10.98-2.06-2.84-1.56-5.18-3.91-7.45-6.19.43-.29.77-.67.95-1.15.06-.17-.18-.28-.3-.17-.86.81-1.65,1.55-2.94,1.44-.97-.08-1.74-.65-2.25-1.41.26-.15.51-.35.74-.59.69-.73,1.33-2.11,1.01-3.16.67-.61,1.22-1.34,1.52-2.07,1.06-.27,2.07-.73,2.94-1.36-.17,1.96.67,4.23,2.6,4.93.22.08.38-.23.22-.38-1.44-1.44-2.52-3.02-2.14-5.11.34-.31.65-.66.92-1.04.07-.1-.08-.2-.16-.12-.44.4-.9.77-1.37,1.1"/>
      <path class="cls-15" d="M75.29,94.46c-.55.5-1.1.94-1.92,1.13-.96.23-1.93.1-2.77-.37.03-1.58-.43-3.26-.68-4.77-.15-.91-.31-1.81-.5-2.71-.13-.63-.22-1.3-.44-1.91,1.19.02,2.38,0,3.56-.03.64-.02,1.27-.05,1.91-.09.11,1.49.25,2.98.4,4.47.13,1.35.09,2.93.45,4.29"/>
      <path class="cls-15" d="M111.95,57.28c2.29,2.16,2.45,5.51,1.59,8.36-.8,2.67-2.42,5.89-5.33,6.7-1.2.33-2.48.24-3.64-.23-.61-.25-1.16-.61-1.65-1.05-.39-.35-.69-.78-1.14-1.04-.28-.16-.56.11-.51.39.02.12.06.24.11.35-3.04,6.32-9.15,10-15.8,11.98,1.09-.74,2.09-1.58,2.97-2.49,1.26-1.3,2.3-2.77,3.1-4.37,1.18-2.32,1.87-4.89,2.07-7.52.34-4.43-.63-9.44-3.3-13.07-1.36-1.85-3.09-2.98-5.03-3.6-2.04-.66-4.3-.75-6.58-.53-5.29.51-10.43,2.1-15.76,2.35-2.73.13-5.44-.13-8.05-.98-2.39-.78-4.67-1.93-7.14-2.43-.17-.03-.33-.06-.49-.09,0-.07-.06-.15-.15-.13-.1.02-.19.05-.29.08-3.96-.42-7.48,1.6-9.59,5.03-2.15,3.49-2.46,7.79-1.49,11.7,1.52,6.14,5.99,10.8,11.45,13.78,1.01.55,2.04,1.04,3.1,1.48-4.88-1.44-9.59-3.42-13.97-5.94-3.15-1.81-6.16-4.06-8.27-7.07-1.43-2.04-2.31-4.28-2.71-6.65.66-.72,1.23-1.55,1.49-2.38.06-.2-.2-.43-.38-.29-1.18.92-1.85,2.35-3.05,3.29-1.31,1.02-3.1,1.6-4.66.8-2.36-1.19-3.04-4.44-3.2-6.83-.19-2.72.33-5.97,2.65-7.72,2.1-1.57,4.7-1.49,6.79-.04.13.09.29-.09.22-.22-.19-.31-.41-.58-.67-.8.46-1.02.51-2.26.75-3.34.27-1.18.6-2.35.98-3.5.8-2.41,1.85-4.74,3.13-6.94,1.25-2.16,2.71-4.19,4.35-6.07,1.65-1.88,3.41-3.66,5.68-4.72,1.57-.22,3.14-.57,4.65-1.05-.16.43-.17.92.07,1.48.9,2.12,3.97.3,5.3-.3,4.04-1.79,8.1-4.01,11.66-6.73,3.94-.45,7.89-.33,11.85.19,4.74.61,9.49,1.75,13.71,4.05,7.49,4.09,12.49,11.63,15.12,19.59.84,2.53,1.55,5.08,2.02,7.7.47,2.61.71,5.26,1.11,7.88,0,.01,0,.02.01.04-.24.23-.45.5-.64.8-.19.31.27.68.51.39,1.47-1.72,3.84-2.13,5.77-1.2.03.18.21.24.35.18.33.19.64.42.92.69"/>
      <path class="cls-1" d="M22.04,55.08c-.33-.55-.86-.9-1.42-1.2-.24-.13-.5-.24-.77-.3-.28-.07-.57-.06-.84-.16-.15-.06-.27.13-.2.26.14.24.17.52.28.77.13.29.27.54.48.79.43.52.81.92,1.44,1.18.76.31,1.4-.7,1.02-1.33"/>
      <path class="cls-1" d="M21.81,55.36c-.11-.33-.5-.63-.86-.49-.28.11-.52.18-.73.41-.24.26-.36.66-.4,1.01-.02.23-.04.46-.03.69.01.23.2.5.18.71-.05.47.59.47.75.12.13-.08.27-.17.38-.28.17-.18.31-.41.45-.61.35-.5.44-.98.25-1.56"/>
      <path class="cls-1" d="M110.29,62.14c-.87.06-1.58.01-2.43.32-.8.28-1.58.67-2.34,1.06-1.27.67-.13,2.65,1.13,1.93.67-.38,1.34-.71,2.03-1.05.29-.14.58-.29.85-.46.38-.22.67-.54,1.04-.76.45-.27.29-1.08-.28-1.05"/>
      <path class="cls-1" d="M109.37,66.7c-.09-.29-.07-.59-.13-.89-.06-.28-.15-.58-.25-.85-.26-.72-.62-1.49-1.43-1.69-.68-.16-1.22.22-1.46.83-.27.69.13,1.41.51,1.97.17.25.37.49.57.72.18.22.44.36.61.58.26.35.66.54,1.09.36.38-.17.64-.61.51-1.03"/>
      <path class="cls-1" d="M61.24,16.23c-.42.21-.77.3-1.17.58-.36.25-.72.5-1.08.75-.72.5-1.44,1-2.15,1.51-1.43,1.02-2.88,2-4.43,2.83-1.51.81-3.07,1.53-4.69,2.07-.51.17-1.38.54-1.93.33-.8-.31.38.07-.33-.3.59-1.46-.63-2.87-2.2-2.58-1.38.26-2.71.66-4,1.2-.69.29-1.22.61-1.81,1.06-.66.51-.84.96-1.19,1.68-.3.62.06,1.39.8,1.39.67,0,1.2.05,1.87-.12.59-.16,1.13-.36,1.69-.58.48-.18.96-.35,1.44-.49.45.98,1.3,1.79,2.42,2.15,2.37.78,4.89-.55,6.92-1.67,2.01-1.11,3.88-2.49,5.7-3.88.96-.74,1.91-1.48,2.81-2.3.4-.37.81-.74,1.21-1.11.22-.21.53-.43.72-.67.15-.18.2-.41.34-.58.55-.68-.12-1.66-.95-1.23M45.46,23.98s0,0,0,0c-.22-.12.1-.31,0,0"/>
      <path class="cls-1" d="M38.9,24.08c-1-1.26-3.36,1.66-4,2.33-2.6,2.67-4.83,5.74-6.58,9.04-1,1.89-1.85,3.86-2.5,5.9-.62,1.95-1.37,4.13-1.13,6.2.01.11.17.18.23.06.83-1.65,1.14-3.51,1.77-5.24.67-1.86,1.48-3.67,2.42-5.41,1.8-3.35,4.1-6.42,6.82-9.07.68-.66,1.39-1.28,2.1-1.89.49-.42,1.45-1.15.86-1.89"/>
      <path class="cls-11" d="M47.64,45.7c-1.09-2.23-4.8-1.65-6.66-.97-1.09.39-2.34.96-2.64,2.21-.33,1.4.82,2.39,2.07,2.64,1.18.23,3.39-.08,4.72-1.01.69-.28,1.36-.6,2-.96.7-.38.83-1.25.5-1.91"/>
      <path class="cls-11" d="M90.75,49.9c-.33-1.09-1.82-2.03-2.77-2.53-1.06-.56-2.31-.84-3.48-.54-.24.02-.48.05-.72.11-1.08.25-2.21,1.15-1.95,2.39.27,1.3,2.06,1.74,3.12,2.12,1.2.42,2.68.93,3.96.86,1.23-.07,2.23-1.12,1.85-2.39"/>
      <path class="cls-11" d="M62.94,37.73c-.88-.51-2.02-.48-2.79.22-.42.38-.63.96-.56,1.51-.24.5-.37,1.04-.32,1.47.09.75.43,1.42,1.13,1.78.94.48,1.93.22,2.71-.43,1.41-1.18,1.52-3.56-.18-4.55"/>
      <path class="cls-1" d="M30.03,89.05c-.09-.07-.15-.29-.21-.38-.13-.19-.3-.34-.45-.51-.27-.29-.52-.6-.79-.89-.54-.61-.97-1.33-1.47-1.97-.3-.39-.98-.41-1.38-.18-.46.27-.62.78-.52,1.28.19,1.06.82,1.92,1.59,2.65.38.35.77.62,1.24.83.21.09.43.21.65.26.29.07.58-.03.86.05.72.18,1.03-.74.48-1.14"/>
      <path class="cls-1" d="M26.57,85.12c-1.19-.64-2.58,1.44-3.11,2.24-.69,1.04-1.74,2.76-1.1,4.02.14.26.52.36.77.2.61-.39.83-1.05,1.14-1.68.35-.73.78-1.41,1.31-2.03.5-.58,2.26-2.07.98-2.76"/>
      <path class="cls-1" d="M74.49,85.85c-.42-.1-.68-.46-1.07-.62-.34-.14-.68-.16-1.04-.2-.79-.07-1.61.05-2.38.26-1.77.49-1.03,3.14.76,2.74.72-.16,1.41-.37,2.1-.62.29-.11.55-.18.8-.37.3-.22.45-.53.83-.64.27-.07.28-.49,0-.55"/>
      <path class="cls-1" d="M125.72,91.58c-1.12-.48-2.18-.92-2.99-1.86-.29-.33-.87-.38-1.23-.16-.91.55-2.43.77-3.48.65-.1-.01-.17.13-.12.21.49.72.98,1.2,1.86,1.4.63.14,1.29.04,1.91-.16.82,1.01,1.76,1.85,3.03,2.31,1.38.51,2.38-1.81,1.01-2.4"/>
      <path class="cls-1" d="M117.05,94.49c-.77,1.11-1.14,2.48-1.71,3.7-.6,1.27-1.21,2.56-2.07,3.68-.8,1.05-1.82,1.93-2.97,2.56-.59.32-1.2.55-1.82.8-.6.24-1.01.7-1.59.97-.11.05-.08.23.03.25.7.16,1.26.45,1.99.33.65-.11,1.28-.36,1.88-.64,1.31-.6,2.53-1.48,3.48-2.57,1.01-1.16,1.76-2.49,2.43-3.86.69-1.41,1.54-2.71,2.27-4.09.68-1.28-1.11-2.29-1.92-1.12"/>
      <path class="cls-1" d="M60.1,99.81c-.48-.42-.97-.35-1.58-.31l-2.55.17c-1.57.1-3.18.21-4.74.44-1.69.25-3.4.3-5.1.42-1.72.12-3.34.17-5.03-.21-2.8-.62-5.27-1.53-7.67-3.13-1.19-.79-2.25-1.69-3.28-2.68-.53-.5-1.04-1.02-1.55-1.54-.53-.54-.99-1.13-1.78-1.29-.9-.18-1.82.57-1.54,1.53.4,1.37,2.29,2.39,3.39,3.21,1.16.87,2.33,1.74,3.54,2.54,2.34,1.56,5.1,2.93,7.95,3.14.85.06,1.67-.07,2.51-.18.9-.12,1.82-.15,2.73-.24,1.69-.17,3.4-.41,5.1-.49,1.7-.08,3.4-.14,5.11-.31.85-.08,1.7-.17,2.55-.25.7-.07,1.47,0,1.95-.58.06-.07.08-.18,0-.25"/>
      <path class="cls-9" d="M85.12,161.28c-.12-.83-.22-1.66-.31-2.49-.18-1.77-.33-3.54-.51-5.31-.18-1.74-.37-3.48-.67-5.2-.14-.81-.29-1.62-.5-2.41-.1-.4-.21-.81-.41-1.18-.21-.4-.57-.71-.74-1.13-.1-.23-.49-.11-.47.13.04.46-.13.92-.16,1.38-.03.46.06.93.11,1.39.1.81.18,1.63.24,2.45.14,1.76.25,3.53.34,5.29.09,1.77.22,3.54.42,5.31.09.81.2,1.62.32,2.43.14.89.16,1.82.83,2.48.59.58,1.39.23,1.67-.44.35-.82-.03-1.83-.16-2.68"/>
      <path class="cls-6" d="M69.39,122.46c-.22-1.6-2.65-1.81-3.91-1.97-1.46-.18-2.93-.21-4.4-.09-2.99.23-5.97,1-8.54,2.56-2.37,1.44-4.34,3.56-5.36,6.16-.48,1.21-.68,2.57-.75,3.87-.07,1.32.42,2.44,1.01,3.6.06.12.26.07.26-.07-.08-1.18.2-2.42.4-3.58.2-1.1.68-2.1,1.22-3.07,1.16-2.09,2.78-3.8,4.88-4.97,2.19-1.22,4.7-1.82,7.19-1.97,1.25-.07,2.51-.05,3.75.06,1.2.11,2.83.98,3.93.25.29-.19.37-.46.32-.79"/>
      <path class="cls-8" d="M113.32,89.31c-.05-.11-.23-.15-.33-.08-.59.39-.75.93-.99,1.56-.32.85-.7,1.66-1.1,2.47-.76,1.55-1.71,2.95-2.74,4.32-.44.59.54,1.35,1.02.79,1.18-1.38,2.18-2.93,2.99-4.55.38-.77.7-1.57.98-2.38.25-.73.5-1.39.16-2.12"/>
      <path class="cls-2" d="M36.69,57.99c1.29-4.02,4.74-7.6,9.2-7.49.04,0,.08,0,.12,0-1.14,1.09-1.18,3.22-.28,4.51.83,1.18,2.18,1.86,3.51,2.32,1.84.63,3.79.99,5.7,1.37,8.07,1.59,16.48,2.22,24.53.17,3.03-.77,6.73-2.73,6.08-6.4.44.17.87.37,1.29.6,3.9,2.19,5.56,7.17,6.01,11.37.4,3.78-.2,7.69-1.92,11.07-3.98-2.41-8.93-4.03-13.5-4.19-3.78-.14-8.14,1.07-10.11,4.52-2.92-2.12-6.61-3-10.19-2.36-2.01.36-3.76,1.24-5.42,2.41-.85.6-1.65,1.26-2.42,1.96-.63.57-1.34,1.14-1.84,1.84-.52-.29-1.04-.59-1.54-.92-3.46-2.22-6.45-5.17-8.2-8.93-1.71-3.66-2.27-7.99-1.03-11.88"/>
      <path class="cls-7" d="M36.55,23.83c.33-.01.67-.03,1-.06-1.42.82-2.65,2.23-3.65,3.29-1.82,1.94-3.43,4.08-4.8,6.36-1.37,2.28-2.5,4.71-3.38,7.22-.43,1.24-.8,2.5-1.1,3.78-.24,1.04-.62,2.23-.54,3.32-.42-.24-.9-.4-1.39-.49-.05-.68-.16-1.36-.17-1.99-.02-1.2.02-2.41.12-3.61.1-1.25.28-2.49.52-3.72.26-1.36.6-2.71,1.02-4.03.78-2.47,1.82-4.85,3.1-7.1.13-.22.26-.44.38-.66.52-.86,1.07-1.7,1.65-2.51.41-.56.85-1.1,1.28-1.65.57-.16,1.16-.35,1.7-.6-.21,1.97,2.66,2.49,4.25,2.42"/>
      <path class="cls-7" d="M109.42,42.65c.99,4.24,1.25,8.46,1.25,12.78-1.75-.69-3.93-.47-5.37.73-.02-2.4-.33-4.78-.72-7.14-.41-2.49-.88-5.03-1.62-7.45-1.3-4.25-3.17-8.34-5.77-11.95-2.41-3.33-5.4-6.26-8.92-8.39-4.08-2.47-8.75-3.69-13.44-4.37-4.31-.63-8.79-.9-13.13-.27.6-.47,1.18-.95,1.74-1.45.24-.21-.08-.63-.34-.44-3.3,2.39-6.55,4.71-10.18,6.59-1.84.95-3.73,1.82-5.67,2.57-.44.17-.97.42-1.45.37-.82-.08-1.08-.81-.82-1.51.1-.26.25-.47.44-.64.74-.28,1.48-.59,2.18-.94.43-.21.13-.91-.32-.76-.46.14-.99.34-1.49.6-2.1.8-4.24,1.42-6.48,1.74-.18.03-.36.05-.53.07-1.25.15-2.65.35-3.9.11-.48-.1-1.02-.25-1.38-.61-.5-.49-.34-1.11-.01-1.62.06-.05.11-.1.16-.15.03-.03.05-.08.05-.13.06-.07.12-.14.18-.2,1.94-2.03,4.91-3.08,7.5-3.95,2.82-.95,5.69-1.72,8.6-2.32,3.4-.69,6.89-1.17,10.33-1.54.14-.01.15-.23,0-.23-7.1.06-14.2,1.57-20.87,3.98-1.43.51-2.82,1.07-4.12,1.87-.98.61-2.2,1.41-2.75,2.48-.33.13-.65.28-.98.41-.73.29-1.48.54-2.23.77-1.59.47-3.22.79-4.87.93-.82.07-1.97.22-2.52-.59-.49-.72-.17-1.72.33-2.33.92-1.13,2.5-1.81,3.76-2.48,4.13-2.2,8.66-3.87,13.29-4.9.06-.01.13-.02.19-.03-.01,0-.02,0-.04,0,1.56-.34,3.12-.61,4.69-.8.16-.02.17-.27,0-.26-2.17.2-4.28.48-6.38.93-.85-.06-1.7-.12-2.55-.23-1.92-.24-3.83-.58-5.72-1.01-1.68-.38-3.63-.7-5.17-1.5-.99-.51-1.29-1.5-.67-2.47.54-.84,1.52-1.19,2.45-1.43,6.46-1.64,13.44-1.15,19.83.54.27.07.54.15.81.22,3.35.97,6.59,2.43,9.63,4.12.13.07.24-.11.12-.2-2.78-1.92-5.84-3.4-9.05-4.46.81-.26,1.62-.57,2.43-.75,1.39-.32,2.8-.55,4.22-.65,2.86-.2,5.72.14,8.42,1.1,3.03,1.08,5.78,2.79,8.45,4.64,0,0,0,0,.01,0,.41.34.83.65,1.25.95.05.03.1.04.14.03,1.59,1.13,3.16,2.27,4.75,3.32.07.04.15-.06.09-.11-1.83-1.5-3.7-3.07-5.65-4.53-2.54-2.64-5.37-5.2-5.74-9.05,1.8.21,3.34,1.36,4.78,2.4,1.58,1.14,3.08,2.38,4.51,3.71,2.78,2.58,5.13,5.5,7.42,8.51.09.12.28.02.21-.12-.32-.56-.65-1.1-1.01-1.64,1.66.36,3.3.84,4.9,1.43,4.19,1.56,8.07,3.95,11.33,7.01,4.6,4.31,7.9,9.81,9.99,15.73-.03.05-.04.12-.02.18.05.15.13.28.22.41.48,1.42.89,2.86,1.23,4.32"/>
      <path class="cls-1" d="M80.09,12.72c-.92-1.1-2.09-1.93-3.18-2.86-1.09-.93-2.16-1.89-3.2-2.87-1.01-.94-2-1.89-2.96-2.87-.77-.78-1.66-2.25-2.8-2.4-.18-.02-.34.17-.34.34.04,1.14,1.52,2.17,2.27,2.92,1.01,1.02,2.04,2.02,3.11,2.97,1.07.95,2.17,1.88,3.29,2.77,1.11.89,2.19,1.81,3.5,2.38.26.11.49-.16.3-.39"/>
      <path class="cls-1" d="M67.32,9.42c-3.27-2.14-6.78-3.85-10.63-4.62-1.83-.36-3.71-.51-5.57-.4-1.61.09-3.85.17-5.11,1.29-.3.26-.03.67.29.71.8.08,1.56-.17,2.34-.31.92-.17,1.86-.26,2.8-.29,1.8-.05,3.58.16,5.34.51,3.54.71,7.02,2.02,10.23,3.65.36.19.66-.32.32-.55"/>
      <path class="cls-1" d="M41.57,6.35c-1.81-.58-3.5-1.27-5.4-1.53-1.71-.23-3.45-.27-5.15,0-.3.05-.29.54,0,.6,1.64.33,3.31.54,4.97.74,1.8.22,3.69.26,5.46.61.28.06.39-.34.12-.42"/>
      <path class="cls-1" d="M40.06,12.75c-2.86.82-5.7,1.7-8.51,2.71-1.29.46-2.56.99-3.82,1.53-1.15.49-2.95.9-3.61,2.03-.13.23-.02.63.27.67,1.2.17,2.35-.68,3.41-1.17,1.35-.62,2.73-1.2,4.08-1.8,2.74-1.22,5.52-2.34,8.34-3.34.39-.14.24-.74-.17-.63"/>
      <path class="cls-8" d="M113.91,60.2c-.14-.81-.21-1.43-.72-2.11-.58-.77-1.31-1.19-2.2-1.52-1.55-.57-4.7-.86-5.7.8-.2.32-.12.75.13,1.01,1.01,1.06,2.96.57,4.26.76.61.09,1.12.29,1.69.52.53.21,1.28.44,1.6.93.33.5,1.04.18.94-.4"/>
      <path class="cls-12" d="M110.18,48.97c-.02-1.3-.11-2.59-.27-3.87-.34-2.64-.93-5.24-1.79-7.76-1.71-5-4.35-9.78-7.97-13.65-.96-1.03-2.12-1.87-3.28-2.67-1.25-.86-2.5-1.73-3.8-2.53-.25-.15-.56.22-.32.42.95.79,1.9,1.61,2.71,2.55.82.96,1.54,1.99,2.3,2.99,1.52,1.98,3.08,3.9,4.37,6.05,2.6,4.31,4.35,9.12,5.08,14.1.2,1.35.32,2.73.37,4.1.05,1.3-.34,2.97.85,3.84.22.16.56.13.79,0,1.21-.68.97-2.37.95-3.55"/>
      <path class="cls-2" d="M98.8,164.16c.63.44,1.68,1.4.34,1.71-.67.15-1.45.12-2.14.14-1.49.05-2.99.04-4.48-.04-2.99-.16-5.87-.72-8.79-1.25.01-.13.02-.27.02-.41.22-.09.44-.19.66-.28.7-.27,1.4-.52,2.12-.74,1.38-.43,2.8-.77,4.25-.9,2.74-.26,5.63.18,7.95,1.72.03.02.05.03.08.05"/>
      <path class="cls-2" d="M63.26,145.95c.05.27.13.54.22.78-2.65,1.32-5.41,2.31-8.35,2.79-1.5.24-3.04.39-4.57.34-1.42-.04-3.33-.09-4.01-1.61-.76-1.73,1.22-2.28,2.51-2.43.44-.05.89-.09,1.33-.13,1.14-.09,2.29-.13,3.43-.16,3.15-.07,6.3.06,9.43.42"/>
      <path class="cls-11" d="M90.59,76.15c-.44.78-.94,1.53-1.51,2.24-2.01,2.51-4.54,4.24-7.4,5.31-2.3.47-4.61.76-6.82.91-.11,0-.22.01-.33.02-1.96.13-3.92.17-5.89.13-4.01-.08-8.02-.51-11.98-1.28-2.99-1-5.97-2.05-8.75-3.52.48-.36.9-.81,1.35-1.22.77-.7,1.56-1.38,2.4-1.98,1.52-1.11,3.28-1.95,5.13-2.34,3.59-.76,7.49.14,10.36,2.43.21.17.57.19.71-.09,1.82-3.74,6.28-4.62,10.07-4.51,4.56.13,8.77,1.65,12.66,3.91"/>
      <path class="cls-14" d="M84.91,52.26c-.36,1.53-.14,3-1.44,4.16-1.04.93-2.41,1.42-3.73,1.79-3.4.93-6.94,1.34-10.46,1.4-3.51.06-7.05-.19-10.53-.73-3.19-.49-6.6-.99-9.65-2.09-1.48-.53-3.09-1.46-3.5-3.08-.29-1.12-.05-2.47.84-3.18,2.16.18,4.22,1.05,6.22,1.83,2.15.83,4.3,1.5,6.6,1.73,4.76.48,9.52-.55,14.18-1.4,3.62-.66,7.82-1.54,11.48-.43"/>
      <path class="cls-4" d="M49.32,38.13c-.99-.55-2.09-.94-3.21-1.14-2.55.56-5.02,1.51-7.27,2.83-5.02,2.95-8.83,7.58-10.97,12.98-.93,2.34-1.48,4.75-1.71,7.19.13-.12.26-.24.4-.35.18-.14.44.09.38.29-.17.56-.49,1.12-.88,1.64-.04,1.12-.02,2.24.06,3.36.48,1.41,1.16,2.76,2.05,4.03,1.39,1.98,3.17,3.64,5.14,5.05-1.27-2.74-1.89-5.93-2.14-8.88-.22-2.61-.07-5.24.42-7.8.68-3.62,2.03-7.11,3.96-10.26,1.65-2.68,4.01-5.02,6.74-6.59,2.29-1.32,5.69-2.58,8.31-1.52-.39-.3-.8-.59-1.25-.84"/>
      <path class="cls-4" d="M101.18,64.18c.05,1.32.03,2.64-.06,3.96-.08,1.24-.37,2.52-.35,3.76-2.05,3.61-5.16,6.28-8.77,8.22,1.65-2.31,2.65-5.21,3.35-7.94.73-2.86,1.06-5.8,1.02-8.75-.04-2.94-.47-5.89-1.32-8.71-.65-2.16-1.52-4.51-2.8-6.46.04-.06.07-.14.07-.24.02-.48-.1-.98-.28-1.47,3.61,2.27,6.27,5.8,7.71,9.82.89,2.5,1.32,5.15,1.43,7.8"/>
      <path class="cls-5" d="M67,94.7c-.2.84-.17,1.78-.24,2.62-.05.57-.1,1.15-.15,1.72-2.03.38-4.06.77-6.1,1.12.65-1.49.09-3.58-.69-5.04,2.4-.09,4.79-.24,7.18-.42"/>
      <path class="cls-5" d="M67.18,97.51c.06-.91.25-1.91.16-2.83.78-.06,1.55-.12,2.33-.19.05.2.1.39.16.58-.03.08-.02.16.05.23.01.01.03.03.04.04.07.21.15.42.25.61.1.21.37.08.39-.11,0,0,0-.02,0-.02.89.53,1.95.66,2.99.45.7-.15,1.51-.49,2.06-1.02.1.06.24.03.28-.12.02-.09.04-.19.06-.28.17-.25.29-.54.32-.85,1.95-1.81,5.28-1.89,7.77-1.78,2.04.09,4.06.46,6.05.93-.06.11-.1.2-.12.23-.21.36-.41.72-.58,1.1-.35.77-.63,1.57-.81,2.4-.23,1.03-.53,2.49-.35,3.68-2.65-1.15-5.24-2.41-7.92-3.49-.24-.1-.37.28-.17.4.5.31,1.01.61,1.53.89,3.72,7.54,6.85,15.29,9.2,23.38-.08-.04-.19-.05-.31.03-2.74,1.79-5.79,2.79-9.08,2.82-1.77.01-3.54-.19-5.29-.5-1.65-.29-3.27-.78-4.92-.99-1.52-1.32-3.63-2.22-5.63-2.71.13-.86.05-1.75.09-2.61.04-1.08.12-2.16.2-3.24.17-2.3.35-4.61.52-6.92.16-2.24.33-4.49.49-6.73.08-1.12.16-2.24.24-3.36"/>
      <path class="cls-6" d="M97.4,156.6c-.23-1.59-.45-3.18-.68-4.76-.47-3.24-1.11-6.44-1.6-9.67-.5-3.24-1.09-6.44-1.74-9.66-.32-1.58-.69-3.13-1.04-4.69-.36-1.58-.47-3.26-1.14-4.74-.12-.26-.47-.1-.49.13-.1,1.51.32,3.03.53,4.53.23,1.65.37,3.33.58,4.98.41,3.23.8,6.45,1.23,9.68.43,3.19.65,6.41.98,9.61.16,1.6.33,3.19.46,4.79.07.8.13,1.6.19,2.4.06.86.02,1.82.33,2.62.24.64.75,1.12,1.47,1.12.61,0,1.37-.47,1.47-1.12.26-1.67-.28-3.56-.53-5.23"/>
      <path class="cls-8" d="M109.35,97.15c-1.17-.58-2.54-.33-3.81-.44-1.3-.11-2.59-.3-3.87-.57-2.72-.58-5.37-1.42-8.04-2.19-2.58-.74-5.19-1.41-7.87-1.63-1.33-.11-2.68-.15-4.01-.05-1.13.08-2.41.13-3.21,1.02-.08.09-.04.21.07.25,1.14.47,2.47.11,3.67.12,1.4,0,2.76.21,4.13.48,2.67.54,5.27,1.39,7.85,2.22,2.59.84,5.18,1.66,7.86,2.13,1.25.22,2.5.38,3.77.39,1.26.01,2.57.07,3.58-.76.3-.25.21-.81-.13-.98"/>
      <path class="cls-2" d="M67.76,36.8c-.21,1.15-.61,2.22-1.3,3.15-.65-1.85-1.77-4.07-3.99-4-2.58.07-4.15,3.61-3.42,5.83.07.22.43.32.54.07.4-.88.3-1.89.62-2.81.35-1.04,1.18-2.14,2.39-2.15,1.83,0,2.92,2.28,3.49,3.71.07.18.33.31.47.12.92-1.14,1.46-2.42,1.46-3.89,0-.14-.23-.18-.25-.03"/>
      <path class="cls-2" d="M40.03,23.1c-2.49-.14-4.58,2.32-6.12,3.96-1.82,1.94-3.43,4.08-4.8,6.36-1.37,2.28-2.5,4.71-3.38,7.22-.43,1.24-.8,2.5-1.1,3.78-.28,1.17-.72,2.54-.49,3.75.04.2.35.24.44.06.51-1.04.55-2.33.8-3.44.27-1.18.6-2.35.98-3.5.8-2.41,1.85-4.74,3.13-6.94,1.25-2.16,2.71-4.19,4.35-6.07,1.78-2.02,3.69-3.94,6.22-4.96.12-.05.11-.22-.03-.23"/>
      <path class="cls-2" d="M104.59,49.03c-.41-2.49-.88-5.03-1.62-7.45-1.3-4.24-3.17-8.34-5.77-11.95-2.41-3.33-5.4-6.26-8.92-8.39-4.08-2.47-8.75-3.68-13.44-4.37-4.45-.65-9.08-.91-13.55-.21-.15.12-.3.25-.45.37,4.06-.49,8.13-.38,12.2.15,4.74.61,9.49,1.74,13.71,4.05,7.49,4.09,12.49,11.63,15.12,19.59.84,2.53,1.55,5.08,2.02,7.7.47,2.61.71,5.26,1.11,7.89.02.16.29.12.29-.04,0-2.46-.32-4.89-.72-7.32"/>
      <path class="cls-2" d="M114.87,61.4c-.29-2.42-1.68-4.84-3.96-5.86-2.2-.99-5.2-.47-6.51,1.68-.19.31.27.68.51.39,1.82-2.13,5-2.25,7.04-.33,2.29,2.16,2.45,5.51,1.59,8.36-.8,2.67-2.42,5.89-5.33,6.7-1.2.33-2.48.24-3.64-.23-.61-.25-1.16-.61-1.65-1.05-.39-.35-.69-.78-1.14-1.04-.28-.16-.56.1-.5.39.18,1.01,1.33,1.72,2.18,2.14.98.49,2.07.73,3.17.75,2.51.04,4.49-1.43,5.84-3.46,1.63-2.45,2.77-5.46,2.41-8.44"/>
      <path class="cls-2" d="M30,21.76c-1.26,1.38-2.28,3.11-3.16,4.62-1.33,2.28-2.41,4.71-3.21,7.23-.8,2.52-1.33,5.12-1.57,7.75-.12,1.3-.17,2.61-.14,3.91.01.71-.03,1.54.06,2.32.26.07.51.16.75.27-.02-.86-.19-1.77-.2-2.59-.02-1.21.02-2.41.12-3.61.22-2.63.75-5.23,1.54-7.74.78-2.47,1.82-4.85,3.1-7.1.62-1.09,1.3-2.15,2.04-3.17.54-.75,1.16-1.46,1.7-2.21-.34.12-.68.22-1.03.32"/>
      <path class="cls-2" d="M110.3,43.88c-.81-4.04-2.14-7.98-3.99-11.66-3.86-7.66-10.08-13.96-18.04-17.31-2.34-.98-4.77-1.71-7.27-2.16-.1-.02-.19-.03-.29-.05.2.25.4.51.59.76,1.83.37,3.63.89,5.37,1.53,4.19,1.56,8.07,3.95,11.33,7.01,5.85,5.48,9.61,12.89,11.42,20.64,1.06,4.54,1.28,9.07,1.25,13.71,0,.34.49.33.52,0,.37-4.13-.08-8.43-.89-12.48"/>
      <path class="cls-2" d="M63.11,14.69c-3.29,2.39-6.55,4.71-10.18,6.59-1.84.95-3.73,1.82-5.67,2.57-.44.17-.97.42-1.45.37-.82-.08-1.08-.81-.82-1.51.1-.25.25-.46.44-.64.74-.28,1.48-.59,2.18-.94.43-.21.13-.9-.32-.77-.46.14-.99.34-1.49.6-2.27.86-4.58,1.52-7.01,1.81-1.26.15-2.65.35-3.9.11-.48-.1-1.02-.25-1.38-.61-.67-.66-.17-1.53.37-2.09,1.94-2.02,4.91-3.08,7.5-3.95,2.82-.95,5.69-1.72,8.6-2.32,3.4-.69,6.88-1.17,10.33-1.54.14-.02.15-.23,0-.23-7.1.06-14.2,1.57-20.87,3.98-1.43.51-2.82,1.07-4.12,1.87-1.04.65-2.35,1.51-2.84,2.69-1.06,2.56,2.29,3.21,4.06,3.14,2.56-.11,5.15-.54,7.62-1.32-.16.42-.17.92.07,1.48.9,2.12,3.97.3,5.3-.3,4.91-2.18,9.87-4.99,13.91-8.57.24-.21-.08-.63-.34-.44"/>
      <path class="cls-2" d="M44.2,11.21c-2.91.26-5.72.68-8.54,1.46-2.8.78-5.52,1.81-8.14,3.07-1.34.64-2.65,1.34-3.92,2.11-.9.54-1.83,1.19-2.27,2.18-.35.8-.34,1.83.25,2.52.72.84,1.92.78,2.92.69,1.65-.15,3.29-.45,4.89-.9,1.34-.38,3.27-.81,4.27-1.82.09-.09.03-.3-.12-.29-.69.07-1.3.41-1.94.66-.73.29-1.48.54-2.23.77-1.59.47-3.22.79-4.87.93-.83.07-1.97.22-2.52-.58-.5-.72-.17-1.72.33-2.34.92-1.13,2.5-1.81,3.76-2.48,5.57-2.97,11.86-4.97,18.13-5.73.16-.02.17-.27,0-.26"/>
      <path class="cls-2" d="M56.53,10.2c-6.23-4.31-13.86-6.4-21.4-6.47-1.9-.02-3.8.11-5.69.36-1.68.23-3.63.41-5.14,1.25-1.15.64-2.03,1.99-1.56,3.34.52,1.5,2.52,1.82,3.84,2.19,2.3.63,4.64,1.13,6.99,1.49,1.11.17,2.24.33,3.37.46.86-.23,1.72-.41,2.59-.55-1.43-.11-2.86-.18-4.28-.35-1.92-.24-3.83-.58-5.72-1.01-1.68-.38-3.62-.7-5.17-1.5-.99-.51-1.3-1.5-.68-2.47.54-.84,1.53-1.19,2.45-1.43,6.46-1.63,13.44-1.16,19.83.54,3.64.97,7.16,2.51,10.44,4.35.13.07.23-.11.11-.2"/>
      <path class="cls-2" d="M82.78,15.21c-1.98-3.48-4.72-6.57-7.66-9.26-1.43-1.32-2.95-2.55-4.53-3.68C69.04,1.16,67.43.09,65.48,0c-.18,0-.35.16-.34.34.23,4.43,3.66,8.26,7.13,10.7.19.13.38-.15.24-.31-2.73-3.01-6.23-5.7-6.66-10.02,1.81.21,3.34,1.36,4.79,2.4,1.58,1.14,3.08,2.38,4.51,3.71,2.78,2.58,5.13,5.5,7.43,8.51.09.12.28.02.2-.12"/>
      <path class="cls-2" d="M77.25,14.29c-4.49-3.69-9.23-7.75-14.79-9.71-2.77-.98-5.74-1.27-8.66-1.04-1.38.11-2.76.32-4.11.63-1.32.3-2.91.58-4.11,1.26.45.14.88.3,1.31.5,1.01-.29,2.02-.7,3.02-.94,1.39-.32,2.8-.54,4.22-.64,2.86-.2,5.72.14,8.42,1.1,5.39,1.92,9.89,5.85,14.61,8.95.07.04.15-.06.08-.11"/>
      <path class="cls-2" d="M25.01,58.61s-.01.02,0,.02.01-.02,0-.02"/>
      <path class="cls-2" d="M101.5,70.5c-4.58,9.88-16.56,13.42-26.64,14.12-13.19.92-26.95-1.98-38.45-8.59-3.15-1.81-6.16-4.06-8.27-7.07-1.5-2.14-2.39-4.51-2.77-7-.24.23-.48.45-.72.66.55,4.82,4.29,9.25,7.99,12.02,5.52,4.14,12.34,6.87,18.95,8.69,6.79,1.87,13.89,2.71,20.94,2.46,5.94-.21,11.9-1.15,17.39-3.51,5.22-2.24,9.94-5.88,12.41-11.06-.29-.22-.57-.46-.83-.73"/>
      <path class="cls-2" d="M90.42,55.29c-2.79-3.8-7.16-4.56-11.61-4.13-5.3.51-10.43,2.1-15.76,2.35-2.73.13-5.44-.13-8.05-.98-2.39-.78-4.67-1.93-7.14-2.43-4.34-.87-8.24,1.19-10.53,4.89-2.15,3.48-2.46,7.79-1.49,11.7,2.43,9.79,12.33,15.79,21.77,17.31.12.02.16-.14.05-.18-4.05-1.35-8.14-2.71-11.75-5.03-3.46-2.22-6.45-5.17-8.2-8.93-1.7-3.66-2.27-7.99-1.03-11.88,1.29-4.02,4.74-7.6,9.2-7.49,2.36.06,4.6,1.02,6.77,1.86,2.15.83,4.3,1.5,6.6,1.73,4.76.48,9.52-.55,14.18-1.4,4.28-.78,9.38-1.88,13.41.39,3.9,2.19,5.56,7.18,6.01,11.37.52,4.91-.66,10.05-3.77,13.94-2.93,3.67-6.98,5.67-11.56,6.39-.37.06-.27.64.09.64,4.11-.02,8.13-2.28,10.94-5.17,3.1-3.2,4.83-7.46,5.17-11.89.34-4.43-.63-9.44-3.3-13.07"/>
      <path class="cls-2" d="M85.49,52.16c-.07-.28-.49-.28-.56,0-.39,1.56-.13,3.07-1.46,4.26-1.04.93-2.41,1.42-3.73,1.78-3.4.93-6.94,1.34-10.46,1.4-3.52.06-7.05-.19-10.53-.73-3.2-.49-6.6-.99-9.65-2.09-1.48-.53-3.09-1.46-3.5-3.09-.36-1.41.11-3.19,1.68-3.58.15-.04.09-.27-.07-.24-2.24.46-2.64,3.48-1.48,5.14.83,1.18,2.18,1.86,3.51,2.32,1.84.63,3.8.99,5.7,1.37,8.07,1.59,16.48,2.22,24.53.17,3.11-.79,6.95-2.84,6.02-6.72"/>
      <path class="cls-2" d="M77.43,71.33c-3.78-.14-8.14,1.07-10.11,4.52-2.92-2.12-6.61-3-10.19-2.36-2.01.36-3.76,1.24-5.41,2.41-.85.6-1.65,1.26-2.42,1.96-.71.64-1.53,1.29-2.03,2.13.03.03.06.06.1.09.07.03.15.07.22.1.63-.38,1.13-.94,1.68-1.44.77-.7,1.56-1.38,2.4-1.98,1.52-1.1,3.28-1.95,5.13-2.34,3.6-.76,7.49.13,10.37,2.43.21.17.57.19.71-.09,1.82-3.74,6.28-4.62,10.07-4.51,4.74.13,9.09,1.77,13.1,4.17.13-.19.26-.39.38-.59-4.06-2.58-9.23-4.32-13.99-4.49"/>
      <path class="cls-2" d="M69.91,90.45c-.15-.91-.31-1.81-.5-2.71-.17-.83-.28-1.74-.7-2.49-.04-.06-.15-.06-.16.02-.16.84.03,1.73.12,2.57.11.89.23,1.78.37,2.66.27,1.77.37,3.8,1.12,5.45.1.21.37.08.39-.11.19-1.74-.37-3.67-.65-5.39"/>
      <path class="cls-2" d="M75.61,89.99c-.23-1.72-.51-3.42-.92-5.1-.04-.17-.31-.14-.3.04.11,1.75.28,3.49.45,5.24.15,1.58.07,3.47.66,4.95.07.17.34.21.39,0,.37-1.6-.07-3.52-.28-5.13"/>
      <path class="cls-2" d="M113.19,88.39c-.94.64-1.39,1.75-1.81,2.77-.5,1.19-.91,2.43-1.66,3.49-1,1.41-2.36,2.09-4.1,1.76-1.61-.3-3.21-.82-4.8-1.24-3.12-.82-6.23-1.64-9.36-2.41-2.93-.71-5.96-1.32-8.98-1.17-2.27.11-6.09.48-7,3.02-.04.12.12.17.19.08,1.79-2.48,5.61-2.6,8.38-2.48,3.16.14,6.25.94,9.29,1.76,3.08.83,6.15,1.69,9.23,2.52,2.5.67,5.09,1.61,7.14-.5.85-.88,1.41-1.98,1.87-3.1.29-.7.55-1.41.86-2.1.33-.71.78-1.35,1.12-2.05.1-.21-.12-.51-.36-.36"/>
      <path class="cls-2" d="M118.76,94.93c-1.72,2.08-2.21,4.81-3.67,7.04-1.45,2.21-3.68,4.12-6.35,4.57-1.68.28-3.33-.11-4.95-.56-1.53-.42-3.05-.88-4.56-1.36-3.02-.96-6.01-2.03-8.95-3.21-3.37-1.36-6.62-2.99-9.98-4.36-.24-.1-.37.28-.17.4,2.8,1.74,5.92,3.06,8.96,4.32,3.14,1.31,6.34,2.49,9.58,3.54,3,.97,6.4,2.36,9.61,2.04,2.52-.25,4.77-1.67,6.42-3.54,2.18-2.48,2.77-5.78,4.74-8.36.3-.39-.37-.92-.69-.53"/>
      <path class="cls-2" d="M70.15,93.72c-4.2.43-8.44.6-12.66.66-4.45.07-9.15.3-13.49-.83-3.73-.97-7.03-3.17-8.62-6.77-.68-1.54-1.14-3.18-2.19-4.52-.93-1.18-2.3-1.88-3.79-2.07-3.56-.46-6.54,2.65-6.08,6.19.02.18.15.28.33.25,2.17-.33,4.26-1.37,5.55-3.17.07-.1-.08-.2-.16-.12-1.53,1.37-3.2,2.39-5.23,2.74-.24-3.71,3.73-6.78,7.19-4.76,1.55.9,2.29,2.62,2.92,4.21.57,1.46,1.13,2.88,2.11,4.12,4.71,6.04,13.87,5.63,20.71,5.54,4.53-.06,9.02-.38,13.52-.76-.04-.24-.08-.48-.13-.72"/>
      <path class="cls-2" d="M30.44,89.62c-1.49-1.49-2.6-3.14-2.09-5.36.02-.08,0-.15-.03-.21-.21.13-.42.26-.62.41-.42,2.08.39,4.76,2.51,5.54.22.08.38-.23.22-.38"/>
      <path class="cls-2" d="M66.79,99c-7.41,1.39-14.83,2.86-22.4,2.8-3.74-.03-7.64-.22-10.99-2.06-2.94-1.62-5.35-4.08-7.7-6.44-.14-.14-.34.07-.21.21,1.76,1.98,3.55,3.95,5.69,5.52,2.22,1.62,4.68,2.63,7.4,3.03,6.11.89,12.43.27,18.5-.65,3.23-.49,6.46-1.08,9.66-1.73.01-.23.03-.46.05-.68"/>
      <path class="cls-2" d="M120.53,85.34c-1.42-1.92-4-3.01-6.23-1.75-1.85,1.04-2.5,3.65-1.15,5.34.12.15.37-.05.27-.21-1-1.58-.55-3.78,1.14-4.68,1.96-1.05,4.1-.1,5.35,1.55.53.7.95,1.49,1.33,2.27.13.26.26.51.34.79.13.45.13.5-.22.86-.45.47-1.05.48-1.69.36-.8-.15-1.57-.54-2.2-1.04-.68-.53-1.05-1.32-1.7-1.87-.21-.18-.55-.07-.56.23-.03,1.13,1.02,2.07,1.9,2.62,1.03.65,2.3.9,3.5.79,3.22-.29.96-3.83-.1-5.27"/>
      <path class="cls-2" d="M121.01,79.6c-2.49-.99-4.45,1.72-4.89,3.84,0,.04.05.07.07.03.61-.91.99-1.99,1.79-2.76.8-.77,2.37-1.29,3.3-.41,1.78,1.7-1.21,3.91-.69,5.77.05.18.31.22.4.05.32-.57.43-1.26.66-1.88.26-.68.56-1.38.67-2.1.17-1.09-.25-2.12-1.32-2.55"/>
      <path class="cls-2" d="M126.81,92.33c-.05.33-.12.67-.22.99-.37,1.16-1.08,2.2-2.24,2.67-2.31.92-4.74-.68-6.41-2.15-.19-.17-.43.08-.27.27,1.52,1.93,4.49,3.44,6.94,2.48,1.52-.59,2.54-2.2,2.93-3.89-.25-.1-.49-.23-.72-.37"/>
      <path class="cls-2" d="M125.65,84.79c-.02-1.17-.19-2.67-1.28-3.36-.82-.52-1.96-.41-2.48.45-.14.23.22.43.36.21.81-1.3,2.35-.14,2.7.88.29.84.28,1.86.21,2.74-.08.98-.38,2.04-1.12,2.73-.4.37-.92.62-1.46.66-.36.03-.67-.05-1.02.03-.15.04-.2.25-.09.35.81.79,2.28-.05,2.93-.69,1.05-1.04,1.29-2.59,1.26-4.01"/>
      <path class="cls-2" d="M124.97,83.09c-.16.04-.13.3.04.29,2.63-.29,3.62,3.36,2.86,5.32-.4,1.03-1.24,1.81-2.37,1.91-1.07.1-1.74-.41-2.45-1.12-.25-.25-.72,0-.6.35.39,1.23,1.89,1.71,3.06,1.6,1.37-.12,2.47-.99,3.02-2.24,1.04-2.39-.24-6.89-3.55-6.11"/>
      <path class="cls-2" d="M128.13,84.99c.06.12.11.25.14.38,2.61.35,4.66,3.09,3.15,5.6-.7,1.17-1.97,1.84-3.32,1.42-.55-.17-1.05-.48-1.45-.89-.16-.17-.28-.35-.39-.54-.19.07-.4.13-.61.17-.14.02-.28.04-.42.05.42,1.03,1.67,1.84,2.65,2.05,1.52.32,3.05-.33,3.93-1.6,2.03-2.93-.35-6.54-3.68-6.63"/>
      <path class="cls-2" d="M26.58,76.13c-1-.95-2.66-1.45-3.95-.82-3.27,1.6-.62,6.21,1.66,7.36.13.06.3-.07.21-.21-.68-.98-1.72-1.61-2.28-2.7-.61-1.19-.46-3.1.93-3.68,1.21-.51,2.57.17,3.38,1.09.9,1.01,1.31,2.38,1.78,3.62.04.11.2.07.18-.05-.25-1.61-.67-3.42-1.9-4.6"/>
      <path class="cls-2" d="M24.31,86c-1.29.1-2.35-.03-3.35-.93-.85-.75-1.53-1.79-2.08-2.78-.59-1.06-.94-3.04.9-2.93,1.23.08,2.24,1.24,2.83,2.23.03.05.11,0,.08-.05-.69-1.25-1.26-2.74-2.91-2.84-1.31-.08-2.27.92-2.14,2.22.17,1.59,1.48,3.34,2.58,4.44,1.01,1.01,2.86,2,4.2,1.03.15-.11.12-.41-.11-.39"/>
      <path class="cls-2" d="M24.37,86.18c-.93.72-1.58,1.72-2.57,2.38-1.29.85-2.75.85-3.86-.3-.85-.89-1.62-2.29-1.9-3.49-.18-.76-.14-1.58.54-2.06.52-.36,1.39-.53,1.81.08.04.06.16.03.13-.05-.41-1.1-1.73-1.11-2.56-.43-1.54,1.26-.35,3.67.41,5.02.86,1.51,2.2,2.88,4.08,2.59,1.73-.27,3.58-1.9,4.23-3.49.07-.17-.17-.35-.32-.24"/>
      <path class="cls-2" d="M22.77,87.83c-.13-.13-.33-.02-.34.14-.07,1.19.08,2.18-.81,3.15-1.13,1.23-2.81.94-4.17.26-1.22-.61-2.44-1.61-2.78-2.99-.3-1.23.2-2.37,1.15-3.1-.08-.16-.15-.32-.22-.49-1.29.51-1.84,2.13-1.65,3.44.26,1.81,1.81,3.14,3.39,3.88,1.62.76,3.5.92,4.81-.47.85-.9,1.62-2.78.61-3.82"/>
      <path class="cls-2" d="M26.61,92.22c-.86.81-1.65,1.55-2.94,1.44-1.15-.1-2.01-.87-2.5-1.84-.12.06-.23.11-.35.17.42,1.09,1.43,1.92,2.6,2.11,1.29.21,3.01-.41,3.49-1.71.07-.17-.18-.28-.29-.17"/>
      <path class="cls-2" d="M10.55,94.2c-.64-1.46-1.55-2.75-2.09-4.26-.54-1.54-.85-3.16-.91-4.8-.06-1.59.11-3.18.51-4.72.42-1.6,1.19-3.03,1.83-4.55,0,0,0,0,0,0,.11-.23-.17-.5-.37-.29-2.25,2.39-2.92,6.39-2.81,9.55.06,1.71.37,3.41.93,5.02.54,1.54,1.26,3.26,2.55,4.31.21.17.47-.04.36-.28"/>
      <path class="cls-2" d="M4.43,88.67c-1.44-3.81-1.91-7.75-.49-11.66.04-.1-.13-.17-.18-.08-1.76,3.65-1.92,8.38.39,11.85.09.13.34.05.27-.11"/>
      <path class="cls-2" d="M139.18,85.92c-.27-1.87-1.16-3.54-2.38-4.97-2.54-2.97-6.29-5.26-10.09-6.15-.08-.02-.11.1-.04.13,3.5,1.4,6.87,3.24,9.42,6.07,1.38,1.53,2.3,3.34,2.43,5.42.06,1.04-.04,2.08-.2,3.11-.13.84-.39,1.68-.26,2.53.03.21.33.21.43.06.51-.82.57-1.88.68-2.82.14-1.12.17-2.26,0-3.38"/>
      <path class="cls-2" d="M142.59,84.43c-.85-2.24-2.11-4.15-3.75-5.88-.04-.04-.09.02-.06.06,1.51,1.8,2.67,4.01,3.35,6.26.65,2.15.58,4.33.92,6.52.04.22.36.19.42,0,.62-2.24-.09-4.85-.88-6.95"/>
      <path class="cls-2" d="M67.3,94.31c-.02-.1-.15-.08-.18,0-.33.93-.28,2.04-.36,3.02-.1,1.12-.19,2.24-.28,3.36-.19,2.3-.37,4.61-.56,6.92-.18,2.24-.36,4.49-.54,6.73-.09,1.08-.17,2.17-.23,3.25-.06,1.02-.19,2.12.07,3.12.05.17.33.19.37,0,.2-.95.11-1.97.14-2.94.04-1.08.12-2.16.2-3.25.17-2.31.35-4.61.52-6.92l.49-6.73c.08-1.12.16-2.24.24-3.36.07-1.03.31-2.18.11-3.2"/>
      <path class="cls-2" d="M98.79,163.91c.32.15.63.31.93.51-.48-4.24-1.16-8.48-1.8-12.7-.72-4.76-1.51-9.51-2.44-14.23-1.82-9.25-4.18-18.44-7.67-27.21-1.68-4.23-3.59-8.36-5.93-12.27-.18-.11-.37-.21-.55-.32,3.98,7.97,7.29,16.17,9.74,24.76,2.59,9.07,4.34,18.36,5.78,27.68.71,4.58,1.24,9.2,1.94,13.78"/>
      <path class="cls-2" d="M59.47,94.53c-.16-.24-.55-.02-.39.23.53.82.91,1.71,1.07,2.68.17,1-.09,1.9-.06,2.88,0,.16.23.24.31.08.94-1.71.05-4.37-.93-5.87"/>
      <path class="cls-2" d="M90.26,92.73c-.1.27-.26.58-.3.64-.21.36-.41.72-.58,1.1-.35.77-.62,1.57-.81,2.4-.29,1.33-.72,3.39-.06,4.65.08.15.37.14.39-.05.11-.78-.14-1.59-.16-2.38-.03-1.02.14-2.04.42-3.02.27-.95.7-1.79,1.15-2.66.11-.2.2-.39.23-.58-.1-.03-.2-.06-.3-.09"/>
      <path class="cls-2" d="M71.91,123.7c-1.83-2.01-5.04-3.2-7.66-3.61-2.91-.45-5.92-.18-8.73.69-2.93.92-6.03,2.46-7.71,5.14-1.74,2.77-2.07,6.4-1.8,9.59.29,3.51,1.43,7.01,3.38,9.96.33,0,.66,0,.99.03-3.29-5.05-4.97-11.97-2.61-17.75,1.25-3.07,4.16-4.86,7.16-5.96,2.59-.95,5.38-1.36,8.13-1.15,1.5.11,3.05.4,4.46.91,1.57.57,2.8,1.5,4.17,2.42.17.11.34-.13.21-.27"/>
      <path class="cls-2" d="M63.78,142.68c-.18-1.53-.31-3.06-.41-4.6-.2-3.05-.3-6.16-.21-9.22,0-.05-.07-.05-.08,0-.32,3.14-.51,6.24-.41,9.4.05,1.53.14,3.07.28,4.6.12,1.3.09,3.01.67,4.19.12.24.55.2.6-.08.21-1.36-.28-2.93-.44-4.29"/>
      <path class="cls-2" d="M80.3,135.52c-2.71.06-5.42.23-8.14.2-1.6-.02-3.2-.06-4.8-.14-.86-.04-1.72-.09-2.58-.15-.63-.04-1.33-.2-1.95-.08.04.24.09.48.15.72.46.12.95.1,1.44.13.86.06,1.72.11,2.58.15,1.66.08,3.32.13,4.98.14,2.74.02,5.57.07,8.33-.16-.01-.27-.02-.55-.02-.82"/>
      <path class="cls-2" d="M83.34,160.85c-.17-1.36-.34-2.71-.51-4.07-.33-2.65-.64-5.31-.94-7.97-.59-5.27-1.01-10.57-1.74-15.82-.03-.23-.41-.17-.4.05.26,5.39.94,10.78,1.53,16.14.29,2.66.59,5.31.9,7.97.16,1.36.32,2.71.49,4.07.15,1.22.16,2.6.62,3.76.09.23.39.18.42-.06.16-1.32-.21-2.76-.38-4.07"/>
      <path class="cls-2" d="M90.56,121.76c-2.74,1.79-5.79,2.79-9.08,2.82-1.77.01-3.54-.19-5.29-.5-1.67-.29-3.31-.79-4.99-1-.08-.01-.08.11-.02.13,1.78.68,3.75,1.04,5.62,1.35,1.7.29,3.42.45,5.15.41,3.12-.08,6.42-.67,8.95-2.62.33-.26.03-.83-.34-.58"/>
      <path class="cls-2" d="M49.72,118.89c-2.13.89-3.83,2.29-5.02,4.29-.57.96-1.01,2.02-1.29,3.1-.25,1.02-.51,2.4-.1,3.4.07.18.35.22.41,0,.26-.93.18-1.97.39-2.93.24-1.08.62-2.12,1.16-3.09,1.04-1.87,2.63-3.57,4.51-4.62.09-.05.03-.2-.07-.16"/>
      <path class="cls-2" d="M44.47,119.63c-2.77,1.13-4.83,4.43-3.8,7.41.07.21.44.2.42-.06-.23-2.86.84-5.69,3.52-7.04.17-.09.05-.39-.13-.31"/>
      <path class="cls-2" d="M63.89,146.53c-2.78,1.42-5.67,2.48-8.75,2.98-1.51.25-3.05.39-4.57.34-1.42-.04-3.34-.09-4.01-1.61-.76-1.73,1.22-2.28,2.51-2.43,1.58-.18,3.17-.25,4.76-.28,3.31-.08,6.61.07,9.89.47.68.08.67-.98,0-1.06-3.22-.39-6.47-.57-9.71-.47-1.59.05-3.18.16-4.76.33-.98.11-2.04.25-2.85.86-1.75,1.34-.68,3.73,1.04,4.48,1.08.48,2.3.47,3.46.43,1.37-.05,2.73-.15,4.08-.36,3.2-.52,6.37-1.58,9.18-3.21.31-.18.04-.63-.27-.47"/>
      <path class="cls-2" d="M100.62,164.89c-.36-1-1.65-1.67-2.54-2.11-2.19-1.1-4.71-1.46-7.14-1.26-1.52.13-3.02.45-4.48.89-.77.23-1.53.5-2.28.79-.34.13-.71.25-1.05.41.07.28.14.57.2.85.37-.11.73-.29,1.08-.43.7-.27,1.4-.52,2.11-.74,1.38-.43,2.8-.76,4.25-.9,2.74-.26,5.63.18,7.95,1.72.62.41,1.81,1.44.42,1.76-.67.15-1.45.12-2.14.14-1.49.05-2.99.04-4.48-.04-3.11-.17-6.11-.76-9.16-1.31.04.21.09.42.13.63,2.61.81,5.42,1.17,8.14,1.39,1.49.12,2.98.17,4.48.15,1.14-.01,2.61.14,3.69-.3.67-.27,1.08-.91.82-1.63"/>
      <path class="cls-2" d="M115.58,109.97c-.96.39-1.8,1.02-2.77,1.4-.99.39-2.04.65-3.09.76-2.16.23-4.18-.17-6.22-.87-.12-.04-.19.14-.08.2,1.88,1.17,4.26,1.55,6.44,1.33,1.94-.2,4.65-.83,5.94-2.42.13-.16.01-.49-.23-.39"/>
      <path class="cls-2" d="M114.05,113.33c-.97.4-1.97.8-3.01.98-1.13.2-2.23.08-3.36.05-.19,0-.28.29-.1.38,2.07,1.02,4.99.47,6.7-1,.18-.15-.01-.5-.24-.4"/>
      <path class="cls-2" d="M22.68,54.66c-1.33-.42-2.26-1.18-3.32-2.04-.04-.04-.12.01-.08.06.64,1.06,1.76,1.78,2.9,2.25-.89.71-1.64,1.77-1.5,2.94.02.15.26.28.35.09.47-1.11.8-2.12,1.76-2.94.13-.11.05-.32-.1-.36"/>
      <path class="cls-2" d="M110.68,62.74s-.01.02,0,.02c.01,0,.01-.02,0-.02"/>
      <path class="cls-2" d="M110.67,62.15c-1.92-.2-4.07.87-5.64,1.89-.15.1-.18.34,0,.43,1.58.78,2.24,2.23,2.4,3.91.02.16.27.22.3.04.35-1.69-.66-3.33-2.08-4.19.74-.46,1.52-.86,2.35-1.15.88-.32,1.81-.44,2.7-.75.11-.04.08-.18-.03-.19"/>
      <path class="cls-4" d="M14.13,46.2c-.29-.68-.75-1.08-1.52-1.16-.39-.04-.79-.02-1.17.08-.91.24-1.6.9-2.14,1.64-.37.51-.26,1.24,0,1.76.36.7,1.16,1.18,1.95,1.16.14,0,.27-.02.41-.06.21.01.44,0,.67-.07,1.39-.37,2.38-1.97,1.79-3.35"/>
      <path class="cls-4" d="M7.69,36.55c-.13-.47-.52-.87-.99-.99-.32-.08-.67-.08-.98.02-.47.15-.84.44-1.1.87-.15.25-.22.52-.22.82s.07.57.22.82h.01c.1.2.24.35.41.46.15.14.34.24.55.29.41.1.87.07,1.24-.16.08-.05.27-.19.34-.26.08-.11.17-.22.25-.33.11-.17.17-.34.18-.53.14-.31.17-.68.09-1"/>
      <path class="cls-4" d="M8.29,32.48c-1.12,0-1.12,1.74,0,1.74s1.12-1.74,0-1.74"/>
      <path class="cls-4" d="M16.25,40.01c-1.74-.36-3.49-.78-5.29-.58-1.58.18-4.13.56-5.05,1.99-.57.88.21,1.77,1.08,1.88.8.1,1.51-.4,2.24-.67.74-.27,1.48-.51,2.23-.75,1.54-.49,3.06-1.06,4.69-1.16.39-.02.52-.63.1-.71"/>
      <path class="cls-4" d="M4.27,49.81c.28-.51-.26-.95-.74-.74-2.84,1.28-4.38,5.63-3.04,8.44.59,1.24,2.71.65,2.61-.71-.09-1.24-.45-2.35-.2-3.61.23-1.19.79-2.33,1.37-3.39"/>
      <path class="cls-4" d="M120.06,18.81c-1.04-1.06-3.07-.64-3.42.86-.05.23-.06.46,0,.69-.03.19-.03.39.02.58.06.23.18.43.33.61.08.09.19.14.27.21.03.03.06.06.08.08.42.32,1.06.36,1.54.21.09-.03.17-.06.25-.1-.02,0,.1-.04.35-.15.29-.16.51-.41.68-.69.45-.69.51-1.69-.1-2.31"/>
      <path class="cls-4" d="M121.15,23.62c0-.25-.11-.52-.29-.7-.17-.17-.45-.3-.7-.29-.26.01-.52.1-.7.29-.17.19-.3.43-.29.7,0,.2.08.41.2.58.03.06.05.11.08.17.12.26.44.41.71.41s.59-.15.71-.41c.02-.05.05-.1.07-.14.13-.17.21-.41.21-.61"/>
      <path class="cls-4" d="M123.85,29.18c-.36-.86-1.23-1.33-2.15-1.33-.8,0-1.71.53-1.97,1.32-.58.58-.88,1.48-.4,2.21,1.02,1.53,3.16,1.78,4.26.19.48-.7.59-1.61.26-2.39"/>
      <path class="cls-4" d="M115.54,25.8c-1.59-.58-3.58-.43-5.21-.1-1.16.24-3.19.91-3.54,2.21-.02.09.03.17.11.2.57.21,1.18.06,1.76,0,.66-.07,1.32-.07,1.98-.05,1.46.04,2.62.58,3.96,1.1.53.2,1.33-.02,1.7-.45.34-.39.47-.72.51-1.23.06-.8-.59-1.43-1.28-1.68"/>
      <path class="cls-4" d="M33.07,38.87c-1.13,0-1.14,1.76,0,1.76s1.14-1.76,0-1.76"/>
      <path class="cls-4" d="M37.44,36.56c-.04-.06-.08-.11-.13-.17-.15-.25-.34-.44-.59-.59-.26-.15-.53-.22-.83-.22-.3,0-.57.08-.83.22-.25.15-.44.34-.59.59-.04.06-.08.12-.13.17-.16.28-.24.58-.24.9,0,.32.08.62.24.9.32.54.91.89,1.55.89s1.23-.34,1.55-.89c.16-.28.24-.58.24-.9,0-.32-.08-.62-.24-.9"/>
      <path class="cls-4" d="M32.51,35.73c-1.32,0-1.32,2.05,0,2.05s1.32-2.05,0-2.05"/>
      <path class="cls-4" d="M94.22,42.3c-2.53,0-2.54,3.93,0,3.93s2.54-3.93,0-3.93"/>
      <path class="cls-4" d="M98.17,45.16c-1.38,0-1.38,2.14,0,2.14s1.38-2.14,0-2.14"/>
      <path class="cls-4" d="M96.48,40.6c-1.45,0-1.46,2.26,0,2.26s1.46-2.26,0-2.26"/>
      <path class="cls-4" d="M88.18,38.38c-1.06-.28-2.31-.19-3.38-.05-1.51.2-2.68.71-3.99,1.45-.12.07-.03.24.09.21,1.1-.19,2.24-.39,3.35-.52,1.12-.13,2.11-.04,3.13.44.71.34,1.38.74,1.92,1.33.5.55.79,1.24,1.41,1.67.24.17.63.05.76-.2,1.02-1.95-1.68-3.91-3.3-4.34"/>
      <path class="cls-4" d="M48.31,35.6c-1.34-1.21-2.81-1.88-4.6-2.09-1.77-.21-4.08-.05-5.57,1-.29.2-.33.8.11.86,1.64.24,3.25-.34,4.88-.49,1.73-.16,3.56-.14,5.01.93.12.09.27-.11.16-.21"/>
      <path class="cls-2" d="M75.99,93.82c-.86.73-1.47,1.49-2.63,1.77-1.13.27-2.28.04-3.22-.65-.21-.15-.45.18-.27.35.98.95,2.35,1.25,3.67.97,1.16-.24,2.6-1.02,2.73-2.32.02-.16-.19-.2-.29-.12"/>
      <path class="cls-2" d="M49.62,152.64c-2.77-.17-5.06-.97-7.4-2.44-.02-.01-.04.02-.03.03,1.9,1.83,4.81,2.8,7.42,2.59.12-.01.12-.18,0-.18"/>
      <path class="cls-2" d="M67.09,145.61c-.21,2.07-1.49,3.45-3.25,4.39-.1.05-.03.21.07.18,1.93-.6,3.18-2.63,3.33-4.57,0-.1-.15-.1-.16,0"/>
      <path class="cls-2" d="M68.5,148.21c-.3,1.11-1.07,1.8-2.04,2.35-.1.05-.03.21.08.18,1.11-.31,1.89-1.38,2.14-2.48.02-.11-.14-.16-.17-.05"/>
      <path class="cls-13" d="M58.17,24.49c-.01-.27-.3-.44-.54-.31-1.05.58-1.59,2-2.21,2.98-.64,1.01-1.34,2.24-2.58,2.59-2.59.73-4.93-1.81-6.54-3.42-.11-.11-.32,0-.27.15.93,2.42,4,4.74,6.66,4.46,1.38-.15,2.39-1.07,3.2-2.13.52-.69.98-1.42,1.43-2.16.42-.68.87-1.34.83-2.17"/>
      <path class="cls-13" d="M93.42,35.35c-1.55.06-2.99.1-4.47-.44-1.46-.54-2.79-1.39-3.9-2.48-1.12-1.11-2.05-2.4-2.86-3.75-.38-.64-.74-1.29-1.08-1.94-.36-.69-.63-1.49-1.18-2.05-.42-.43-1,.03-.92.54.13.81.68,1.58,1.06,2.3.42.79.86,1.58,1.35,2.34.95,1.49,2.06,2.91,3.44,4.02,2.21,1.79,5.92,3.37,8.65,1.8.16-.09.09-.35-.09-.35"/>
      <path class="cls-13" d="M53.78,41.3c-1.21-3.65-5.73-5.85-9.35-5.91-1.99-.03-4,.52-5.74,1.5-1.5.85-3.56,2.34-3.9,4.15-.07.37.34.81.71.54.64-.46,1.11-1.1,1.66-1.66.61-.62,1.3-1.17,2.05-1.62,1.54-.92,3.3-1.46,5.09-1.47,1.74-.01,3.5.46,5.02,1.3,1.6.89,2.72,2.16,3.96,3.46.2.21.6,0,.5-.29"/>
      <path class="cls-13" d="M50.94,36.63c-.74-.97-1.67-1.77-2.69-2.45-1.86-1.23-4.91-2.61-7.17-1.78-.27.1-.29.48,0,.57,1.06.33,2.21.35,3.29.64,1.14.3,2.23.78,3.23,1.41.96.61,1.83,1.36,2.61,2.17.8.84,1.3,1.94,2.09,2.75.08.08.22.02.22-.09-.05-1.14-.92-2.35-1.59-3.22"/>
      <path class="cls-13" d="M91.33,45.02c-.5-1.02-1.11-1.97-1.8-2.86-1.25-1.6-2.87-3.1-4.9-3.6-1.91-.47-3.87.09-5.46,1.19-1.5,1.04-3.18,2.7-3.7,4.5-.06.22.2.34.36.21,1.36-1.13,2.3-2.65,3.77-3.69,1.46-1.03,3.24-1.59,5-1.04,1.75.55,3.14,1.95,4.21,3.38.58.78,1.08,1.62,1.51,2.49.41.85.61,1.89,1.15,2.65.26.37.82.24.85-.23.05-1.02-.55-2.12-.99-3.02"/>
      <path class="cls-13" d="M91.14,40.33c-1.01-1.29-2.4-2.28-3.99-2.71-2.8-.77-6.24.28-7.81,2.77.57-.33,1.18-.59,1.81-.76,1.69-1.08,3.69-1.6,5.73-1.03,1.32.37,2.5,1.19,3.36,2.26.88,1.09,1.17,2.39,1.74,3.63.1.22.46.16.51-.07.32-1.45-.48-2.98-1.35-4.09"/>
      <path class="cls-2" d="M26.55,59.64c-1.18.92-1.85,2.35-3.05,3.29-1.3,1.02-3.09,1.6-4.66.81-2.36-1.19-3.04-4.44-3.2-6.83-.19-2.72.33-5.97,2.66-7.72,2.1-1.57,4.7-1.49,6.79-.04.13.09.29-.09.22-.22-1.09-1.84-3.66-2.06-5.52-1.47-2.35.74-3.94,2.66-4.63,4.98-.75,2.48-.57,5.37.21,7.82.67,2.1,2.07,4.3,4.43,4.65,1.5.22,3.01-.36,4.19-1.26,1.16-.89,2.51-2.3,2.96-3.72.06-.2-.19-.43-.38-.29"/>
      <path class="cls-10" d="M86.6,112.08c0,5.36-4.34,9.7-9.7,9.7s-9.7-4.34-9.7-9.7,4.34-9.7,9.7-9.7,9.7,4.34,9.7,9.7"/>
      <path class="cls-2" d="M82.8,107.99c-.07,0-.15-.02-.21-.05l-2.6-1.38c-.22-.12-.31-.4-.19-.62.12-.23.4-.31.62-.19l2.6,1.38c.22.12.31.4.19.62-.08.16-.24.24-.41.24"/>
      <path class="cls-2" d="M71.01,107.99c-.17,0-.32-.09-.41-.24-.12-.22-.03-.5.19-.62l2.6-1.38c.22-.12.5-.03.62.19.12.22.03.5-.19.62l-2.6,1.38c-.07.04-.14.05-.21.05"/>
      <path class="cls-2" d="M76.9,115.75h0c-.72,0-1.31.59-1.31,1.31v1.12c0,.24.2.44.44.44h1.75c.24,0,.44-.2.44-.44v-1.12c0-.72-.59-1.31-1.31-1.31"/>
      <path class="cls-16" d="M70.78,110.24v9.35c.9.74,1.93,1.31,3.06,1.68v-11.04h-3.06Z"/>
      <path class="cls-16" d="M79.97,110.24v11.04c1.13-.38,2.16-.95,3.06-1.68v-9.35h-3.06Z"/>
      <path class="cls-2" d="M78.56,112.32s-.08,0-.13-.02c-.24-.07-.38-.32-.31-.57.36-1.25,1.49-2.15,2.95-2.34,1.46-.19,2.79.38,3.45,1.5.13.22.06.5-.16.63-.22.13-.5.06-.63-.16-.57-.95-1.69-1.17-2.55-1.06-.86.11-1.88.61-2.19,1.68-.06.2-.24.33-.44.33"/>
      <path class="cls-2" d="M75.25,112.32c-.2,0-.38-.13-.44-.33-.31-1.07-1.33-1.57-2.19-1.68-.86-.11-1.97.11-2.55,1.06-.13.22-.41.29-.63.16-.22-.13-.29-.41-.16-.63.67-1.12,1.99-1.69,3.45-1.5,1.46.19,2.59,1.09,2.95,2.34.07.24-.07.5-.32.57-.04.01-.08.02-.13.02"/>
    </g>
  </g>
</svg>