<?xml version="1.0" encoding="UTF-8"?>
<svg id="Layer_2" data-name="Layer 2" xmlns="http://www.w3.org/2000/svg" viewBox="0 0 125.41 170.03">
  <defs>
    <style>
      .cls-1 {
        fill: #dc7053;
      }

      .cls-2 {
        fill: #c5413e;
      }

      .cls-3 {
        fill: #60759b;
      }

      .cls-4 {
        fill: #8a96bb;
      }

      .cls-5 {
        fill: #dbd9eb;
      }

      .cls-6 {
        fill: #e99249;
      }

      .cls-7 {
        fill: #fff;
      }

      .cls-8 {
        fill: #f1b664;
      }

      .cls-9 {
        fill: #e58889;
      }

      .cls-10 {
        fill: #f9f4b6;
      }

      .cls-11 {
        fill: #a63f40;
      }

      .cls-12 {
        fill: #efb291;
      }
    </style>
  </defs>
  <g id="Layer_8_copy_2" data-name="Layer 8 copy 2">
    <g>
      <path class="cls-4" d="M51.48,110.14c6.7,6.97,15.92,12.16,25.47,13.67,5.55,5.45,7.88,13.95,5.89,21.46-1.99,7.51-8.22,12.99-15.74,14.99-7.51,1.99-15.99-.57-21.73-5.17,1.96-3.41,4.77-6.23,8.13-8.26,2.44,2.29,6.55,2.54,9.25.55,2.83-2.08,3.78-6.12,2.82-9.5-.96-3.38-3.52-6.13-6.49-8.01-2.96-1.89-7.56-4.06-10.24-5.55-1.7-.94-3.17.25-4.42,1.73-1.26,1.48-1.36,3.68-.75,5.52.61,1.85,1.81,3.42,3,4.96-.23-.73-1.04-.69-1.78-.87-.74-.18-1.52-.08-2.28.04-3.39.54-7.07,1.96-10.15,3.48-5.08-5.69-5.01-14.9-1.05-21.41,3.97-6.51,12.66-9.53,20.05-7.62"/>
      <path class="cls-12" d="M124.11,68.4c.41,1.58-1.21,2.86-2.66,2.96-.82.06-1.6-.11-2.38-.34-.33-.1-.7-.18-1.01-.33-.34-.17-.47-.41-.54-.69,1.84.25,3.8.16,5.44-.74.42-.23.81-.52,1.15-.86"/>
      <path class="cls-12" d="M124.63,64.49c.38,1.26-.11,2.52-.99,3.43-.1.1-.2.2-.3.29-1.2,1.02-2.72,1.35-4.27,1.31-.95-.02-3.7-.23-3.61-1.59.06,0,.12-.01.18-.02,1.14-.15,2.15-.79,3.04-1.48,1.12-.86,2.19-1.81,3.15-2.85.36-.39.71-.84,1.02-1.31.21.23.53.36.78.59.47.45.82,1.01,1.01,1.63"/>
      <path class="cls-12" d="M123.01,58.69c.23,1.16-.17,2.23-.81,3.17-.4.59-.89,1.13-1.37,1.61-1.2,1.2-2.56,2.51-4.1,3.25-.86.41-1.84.61-2.7.08-.46-.29-.68-.62-.82-1.01,1.33-.1,2.64-1.03,3.53-1.98,1.77-1.89,3.04-4.25,3.68-6.76.02-.1.05-.21.07-.32,1.19-.09,2.24.56,2.51,1.95"/>
      <path class="cls-12" d="M119.09,52.71c1.18.74,1.23,2.23.93,3.66-.21,1-.6,1.98-.89,2.66-.86,1.96-2.18,3.94-3.91,5.23-.6.45-1.38.8-2.14.8-.43,0-.85-.11-1.23-.38-.76-.54-.79-1.44-.36-2.14.87.38,1.79.46,2.49,0,1.82-1.19,1.24-4.5.67-6.18-.29-.84-.75-1.65-1.35-2.33,1.48-1.37,3.96-2.48,5.8-1.33"/>
      <path class="cls-12" d="M116.42,69.81c-.06.22-.03.47.06.7-10.72,5.18-21.8,9.64-33.05,13.51-.53.18-1.07.36-1.61.54-.24-.52-.73-.86-1.09-1.29-.47-.55-.9-1.17-1.25-1.81-.59-1.08-1.02-2.26-1.32-3.45,2.95-1.54,5.9-3.09,8.84-4.66,3.05-1.64,6.1-3.28,9.14-4.95,1.49-.82,2.98-1.65,4.46-2.48,1.53-.86,3.14-1.63,4.62-2.56.11.01.23-.06.25-.17.21-.22.06-.58-.2-.65-.3-.84-.62-1.67-.69-2.58-.08-1.02.06-2.05.4-3.01.79-2.22,3.09-4.54,5.64-3.81.83.24,1.51.69,2.06,1.28,1.3,1.39,1.84,3.55,1.75,5.41-.06,1.32-.66,2.64-2.21,2.22-.59-.16-1.19-.53-1.69-.88-.62-.44-1.01-1.07-1.58-1.54-.08-.06-.19,0-.17.1.19.85,1,1.8,1.99,2.42-.68.8-.44,2.34.43,3.02.31.24.63.41.96.51.06.5.37,1,.72,1.35.48.47,1.09.76,1.75.86-.01.25.04.51.14.75.3.68.96.99,1.64,1.16"/>
      <path class="cls-12" d="M66.89,77.89c.05.6.08,1.25.12,1.89-.27-.02-.56-.02-.85,0-1.48.08-2.78.53-3.91,1.24-.23-.62-.44-1.25-.64-1.88-.34-1.07-.61-2.16-.89-3.24.09-.01.18-.03.26-.04,1.91-.26,3.8-.61,5.67-1.07.05,1.04.16,2.09.24,3.09"/>
      <path class="cls-12" d="M10.13,84.85c-.03.72.01,1.44-.21,2.16-.37,1.2-1.19,2.26-2.41,2.67-1.17.39-2.58.14-3.28-.95-.52-.81-.43-1.56-.19-2.37.54.12,1.1.17,1.63.16,1.57-.03,3.29-.58,4.46-1.68"/>
      <path class="cls-12" d="M10.74,81.91c.04.27.03.54-.04.84-.1.42-.28.8-.53,1.13-.25.34-.56.63-.9.87-1.03.74-2.34,1.13-3.61,1.16-.52.01-1.04-.05-1.52-.18,0,0,0,0,0,0-.02-.01-.04-.02-.06-.02h0c-1.95-.54-3.34-2.16-2.67-4.29.46.44,1,.79,1.56,1.04,1.91.84,4.45,1,6.41.23.49-.19.95-.46,1.35-.79"/>
      <path class="cls-12" d="M11.48,78.8c-.13.57-.14,1.13-.49,1.67-.49.78-1.26,1.31-2.13,1.6-1.44.47-3.12.41-4.57.01-.97-.26-1.91-.76-2.58-1.5-.4-.45-.7-.98-.84-1.6-.36-1.59.65-2.76,2.03-3.13.11.1.22.2.33.29,2.1,1.73,5.08,2.92,7.83,2.7.14-.01.28-.03.41-.05"/>
      <path class="cls-12" d="M13.12,76.33c0,.58-.25,1.08-.71,1.42-.89.66-2.28.49-3.31.33-2.07-.33-4.12-1.22-5.7-2.63-.02-.01-.03-.03-.04-.04-.79-.72-1.52-1.65-1.61-2.76-.09-1.14.46-2.21,1.6-2.54,1.01-.29,2.12-.01,3.11.2.82.17,1.63.42,2.44.62-.27,1-.33,2.05-.2,3.08.14,1.07.5,2.73,1.6,3.25,1.04.5,1.78-.58,2.26-1.35.1-.16.21-.34.31-.53.1.31.25.6.25.95"/>
      <path class="cls-12" d="M49.39,85.75c.25.02.5.04.74.06-.58,2.06-.51,4.43-.26,6.55-.38.03-.75.05-1.12.07-3.1.17-6.2.18-9.29.01-6.27-.33-12.51-1.35-18.56-3.03-3.44-.96-6.85-2.1-10.12-3.54-.01,0-.02,0-.03-.01.06-.55.03-1.1-.12-1.58.57-.79.98-2.02.71-2.98.12-.14.23-.29.33-.45.37-.6.75-1.52.5-2.23.62-.22,1.15-.61,1.45-1.26.35-.75.4-2.13-.46-2.55.43-.92.73-1.98.47-2.84-.02-.08-.15-.11-.19-.02-.38.83-.41,1.77-.79,2.62-.45,1.01-1.7,3.19-2.73,1.46-.92-1.55-.89-3.71-.29-5.45.13-.36.28-.71.45-1.02.52-.96,1.38-1.95,2.55-2.04,1.05-.08,2.01.55,2.64,1.34.72.9.96,2.05.99,3.18.02.98-.3,2.05-.06,3,.04.14.24.17.31.04.04-.07.08-.15.12-.23,2.2,1.68,4.95,2.92,7.46,4.1,2.65,1.24,5.38,2.33,8.16,3.25,5.54,1.84,11.31,3.03,17.15,3.54"/>
      <path class="cls-12" d="M32.61,69.2c-.96,1.29-2.27,2.09-3.99,2.17-2.09.1-3.94-1.11-5.17-2.73-1.2-1.58-1.96-3.66-1.84-5.66.06-1.03.39-2.05,1.14-2.79.42-.41.95-.68,1.49-.87t0,0c.22.39.46.78.69,1.17,2.04,3.29,4.65,6.25,7.66,8.7"/>
      <path class="cls-12" d="M96.24,44.92c3.72,1.24,4.98,5.3,3.65,8.86-.61,1.63-1.71,3.28-3.39,3.93-.73.28-1.56.36-2.33.19-.42-.09-.82-.25-1.18-.49-.14-.09-.43-.32-.64-.57.4-.71.78-1.43,1.13-2.18,1.38-2.93,2.37-6.3,2.77-9.75"/>
      <path class="cls-12" d="M95.59,40.09c.11,1.37.11,2.74.02,4.11-.18,2.71-.75,5.4-1.66,7.97-.54,1.54-1.2,2.99-1.98,4.37-1.28,2.28-2.87,4.37-4.76,6.28-3.04,3.08-6.72,5.46-10.59,7.38-4,1.99-8.3,3.36-12.69,4.21-4.76.93-9.73,1.35-14.56.85-5.92-.6-11.46-3.03-16.06-6.69-2.24-1.79-4.26-3.87-5.99-6.18-.88-1.18-1.68-2.41-2.4-3.68-1.84-3.26-3.16-6.82-3.98-10.47-.98-4.41-1.14-8.86-.78-13.33,2.08.31,4.53-.94,6.33-1.64,2.59-1.01,5.12-2.15,7.59-3.43,4.99-2.58,9.68-5.74,14-9.34,2.42-2.01,4.72-4.17,6.87-6.46,1.1-1.16,2.16-2.36,3.18-3.59.06-.07.11-.14.17-.2,2.06.46,4.13.89,6.18,1.42,3.62.93,7.2,2.07,10.6,3.6,5.84,2.62,11.29,6.39,15.18,11.52,1.85,2.44,3.05,5.13,4.27,7.88.55,1.75.92,3.56,1.06,5.41"/>
      <path class="cls-1" d="M93.14,29.53c-1.14-2.4-3.06-4.34-4.99-6.14-1.96-1.83-4.05-3.54-6.22-5.13-4.4-3.22-9.74-5.2-14.96-6.61-3.05-.82-6.24-1.72-9.4-1.98-2.1-.17-2.57,3.26-.5,3.68,2.61.53,5.25.76,7.84,1.38,2.54.61,5.05,1.35,7.5,2.24,2.43.88,4.84,1.91,7.17,3.03,2.32,1.12,4.63,2.28,6.67,3.88,2.32,1.82,4.23,4.05,6.41,6.01.26.24.63-.06.48-.37"/>
      <path class="cls-1" d="M56.83,10.96c-2,2.06-3.86,4.23-5.95,6.21-2.03,1.92-4.18,3.73-6.44,5.38-4.55,3.35-9.52,6.15-14.82,8.12-1.53.57-3.08,1.09-4.66,1.48-1.61.4-3.22.6-4.83.92-2.87.57-1.66,5.21,1.22,4.42,1.43-.39,2.81-1,4.2-1.52,1.39-.53,2.79-1.07,4.16-1.64,2.74-1.14,5.41-2.44,8.01-3.88,5.17-2.86,9.99-6.41,14.22-10.55,2.38-2.33,4.76-4.85,6.52-7.69.63-1.01-.81-2.11-1.64-1.26"/>
      <path class="cls-1" d="M32.48,68.23c-1.24-1.35-2.75-2.48-4.04-3.79-1.3-1.33-2.41-2.8-3.65-4.18-.73-.82-2.09.24-1.52,1.17,1,1.61,2.41,3.09,3.76,4.42,1.32,1.29,2.85,2.77,4.51,3.6.78.39,1.54-.55.93-1.21"/>
      <path class="cls-1" d="M95.24,45.34c-.14.52-.07,1.01-.12,1.53-.05.45-.15.89-.24,1.33-.2.99-.43,1.98-.7,2.95-.26.92-.55,1.83-.88,2.72-.33.89-.71,1.77-.76,2.73-.03.58.68.77,1.07.44,1.43-1.23,2.09-3.57,2.72-5.3.35-.95.65-1.92.92-2.89.14-.49.24-.98.37-1.47.16-.58.38-1.06.42-1.67.1-1.62-2.4-1.92-2.8-.38"/>
      <path class="cls-1" d="M66.67,73.79c-.92.1-1.73.17-2.6.5-.86.33-1.78.6-2.58,1.05-1.33.74-.43,2.9,1.04,2.46.88-.26,1.72-.73,2.56-1.11.84-.39,1.46-.92,2.17-1.5.53-.43.11-1.47-.58-1.4"/>
      <path class="cls-1" d="M13.69,76.65c-.26.32-.63.53-.87.87-.22.31-.37.68-.52,1.03-.33.76-.66,1.55-.88,2.35-.41,1.49-.87,3.53-.53,5.06.2.89,1.54.85,1.76,0,.18-.72.13-1.48.19-2.21.07-.8.22-1.57.37-2.35.15-.76.29-1.51.5-2.25.09-.31.23-.62.29-.94.08-.43,0-.9.09-1.32.04-.21-.24-.43-.4-.23"/>
      <path class="cls-1" d="M116.91,69.78c-.33-1.15-1.51-2.49-2.39-3.27-.5-.44-.99-.9-1.49-1.34-.54-.46-1.07-.7-1.7-1.02-.29-.15-.59.15-.44.44.6,1.18,1.32,2.23,2.03,3.36.64,1.02,1.45,2.33,2.41,3.05.78.58,1.82-.38,1.58-1.21"/>
      <path class="cls-1" d="M115.62,70.03c-1.39-.21-2.92.76-4.2,1.28-1.44.58-2.88,1.15-4.32,1.74-2.81,1.17-5.61,2.39-8.42,3.57-2.81,1.18-5.62,2.36-8.42,3.54-1.34.56-2.67,1.14-3.98,1.76-.67.32-1.34.62-1.99.99-.73.41-1.2.82-1.82,1.36-.12.11-.03.34.14.33.75-.05,1.34-.08,2.09-.27.72-.19,1.41-.43,2.12-.67,1.46-.52,2.9-1.07,4.34-1.64,2.82-1.13,5.64-2.26,8.46-3.39,2.82-1.13,5.66-2.2,8.47-3.36,1.38-.57,2.75-1.15,4.13-1.72,1.3-.54,3.12-.92,3.97-2.07.35-.47,0-1.35-.58-1.44"/>
      <path class="cls-1" d="M50.43,91.44c-.47-.03-.89-.25-1.36-.29-.39-.03-.8-.01-1.19-.02-.8-.02-1.59-.05-2.39-.1-1.65-.09-3.3-.23-4.94-.4-3.17-.32-6.34-.8-9.47-1.4-6.3-1.2-12.56-3.2-18.43-5.77-2.26-.99-3.63,2.19-1.32,3.13,6.25,2.55,12.71,4.24,19.38,5.26,3.27.5,6.54.76,9.84.81,1.71.02,3.41-.03,5.11-.13.8-.05,1.59-.1,2.39-.17.38-.03.79-.04,1.17-.11.44-.09.82-.34,1.27-.42.23-.04.15-.36-.05-.38"/>
      <path class="cls-3" d="M46.61,135.98c-.71-.93-1.98-1.12-3.09-1.33-1.27-.23-2.53-.3-3.82-.29-2.48.03-5.23.39-7.38,1.72-1.66,1.03-.21,3.41,1.51,2.59,1.96-.93,3.82-1.92,6.02-2.13,1.02-.1,2.1-.04,3.11.11,1.02.15,2.15.71,3.17.47.45-.11.78-.75.47-1.15"/>
      <path class="cls-3" d="M33.51,137.27c-.44-1.31-1.32-2.48-1.8-3.8-.45-1.23-.79-2.49-.98-3.79-.2-1.33-.18-2.64-.17-3.97.02-1.48,0-2.89.3-4.36.05-.25-.32-.45-.44-.19-.58,1.3-1.12,2.64-1.41,4.04-.31,1.47-.22,3.09-.06,4.57.16,1.48.46,2.95.95,4.35.46,1.33,1.03,3.04,2.04,4.06.64.64,1.88,0,1.57-.92"/>
      <path class="cls-3" d="M76.88,153.2c-.53.29-1.16.43-1.71.72-.55.29-1.08.59-1.64.86-1.21.58-2.45,1.07-3.72,1.48-2.52.79-5.15,1.24-7.8,1.18-2.64-.06-5.22-.66-7.67-1.64-1.18-.47-2.32-1.07-3.4-1.75-1.12-.7-2.12-1.72-3.28-2.31-.79-.4-1.75-.34-2.39.31-.58.58-.82,1.7-.31,2.39.98,1.34,2.52,2.27,3.95,3.09,1.31.74,2.7,1.37,4.12,1.88,2.8,1,5.86,1.46,8.83,1.39,3.01-.08,5.97-.7,8.74-1.89,1.32-.57,2.6-1.26,3.76-2.1.57-.41,1.13-.83,1.66-1.3.59-.52.88-1.11,1.34-1.7.26-.33-.06-.82-.47-.61"/>
      <path class="cls-3" d="M53.55,146.5c-1.82.44-3.25,1.44-4.57,2.74-1.17,1.16-3.12,2.98-3.05,4.76.05,1.09,1.28,1.98,2.29,1.32,1.32-.87,1.85-2.78,2.85-3.99,1.01-1.23,2.19-2.33,3.26-3.51.52-.58.02-1.5-.76-1.31"/>
      <path class="cls-9" d="M40.05,42.61c-1.88.21-3.59.93-4.95,2.28-.09.09-.19.19-.28.29-.19.17-.36.36-.48.58-.91,1.2-1.55,2.72-1.15,4.17.27.98,1.08,1.74,2.1,1.88,1.07.14,2.03-.43,2.87-1.03,1.12-.8,1.99-1.77,2.36-2.95.58-.9,1.02-1.9,1.26-2.96.23-1.02-.51-2.41-1.73-2.27"/>
      <path class="cls-9" d="M79.87,34.71c-2.71-1.21-5.82-1.35-8.6-.28-1.12.43-1.5,1.43-1.03,2.52.5,1.16,1.3,2.1,2.26,2.81.4.86,1.03,1.62,1.77,2.12,2.23,1.51,5.61.99,7.58-.71,2.58-2.22.48-5.36-1.99-6.46"/>
      <path class="cls-2" d="M46.18,137.01c.56.27,1.07.72,1.04,1.4-.02.42-.21.81-.54,1.04-.1-.07-.23-.09-.37-.02-.1.05-.21.1-.31.15-.35-.01-.7-.01-1.06,0-2.45.08-4.98.73-7.27,1.43-2.05.63-4.47,1.37-5.62,3.32-.51.01-.99-.17-1.31-.68-.62-.99-.01-2.3.71-3.03.35-.35.75-.67,1.19-.95,1.35-.88,3.02-1.47,4.42-1.96,1.98-.7,4.05-1.15,6.15-1.15.98,0,2.08.02,2.98.46"/>
      <path class="cls-2" d="M53.37,146.1c-.8.17-1.55.95-2.16,1.43-.88.69-1.73,1.44-2.5,2.25-1.36,1.42-2.68,3.1-3.58,4.89-.1-.12-.26-.18-.45-.08-.78.43-1.57.79-2.46.94-.65.11-1.27.21-1.76-.27-.46-.46-.36-.94-.19-1.55.49-1.75,1.91-3.23,3.09-4.56,1.13-1.28,2.34-2.49,3.63-3.62.75-.66,1.52-1.28,2.31-1.88.51-.38,1.08-.72,1.57-1.13,0,.08.11.13.19.07.92-.73,1.86,1.2,2.06,1.81.15.44.22.9.25,1.36,0,.12,0,.23,0,.33"/>
      <path class="cls-6" d="M23.68,58.28c-.22.09-.45.2-.65.32-.14-.13-.28-.26-.4-.39-.95-.97-1.85-1.99-2.67-3.07-.38-.5-.74-1.01-1.09-1.53-1.08-1.62-1.99-3.35-2.72-5.16-.58-1.43-1-2.87-1.29-4.32-.68-3.42-.59-6.89.14-10.36,1.18-.73,2.29-1.58,3.24-2.57-.55,1.36-.48,2.91,1.21,3.53-.93,7.98.51,16.45,4.25,23.56"/>
      <path class="cls-6" d="M57.48,2.74c-.35-.07-.69-.14-1.03-.21,1.61-.39,3.23-.8,4.86-1.11,2.74-.51,5.52-.86,8.31-.88,5.06-.04,10.25,1.02,14.53,3.83,4.14,2.72,7.21,6.87,9.6,11.14.92,1.64,1.73,3.33,2.43,5.07,1.17,2.89,2.06,5.9,2.68,8.96.05.23.09.47.14.7.47,2.52.7,5.04.57,7.62-.12,2.28-.64,4.44-1.11,6.63-.59-.44-1.26-.76-1.98-.91-.04,0-.08-.01-.12-.01.24-3.42-.12-6.86-1.27-9.98-.66-2.25-1.89-4.37-3.21-6.28-1.8-2.6-4-4.92-6.46-6.92-5.54-4.52-12.24-7.23-19.1-9.05-2.48-.66-4.99-1.25-7.53-1.69.78-.94,1.56-1.91,2.13-2.98.08-.16-.12-.33-.25-.2-1.8,1.84-3.28,4.03-5.01,5.94-1.71,1.89-3.52,3.69-5.4,5.4-3.87,3.5-8.1,6.61-12.59,9.26-4.49,2.65-9.24,4.88-14.17,6.58-1.1.38-2.36.8-3.52.46-.11-.03-.22-.07-.32-.12-1.32-.6-1.09-2.14-.32-3.23.81-1.14,2.01-2,3.08-2.86,1.16-.93,2.35-1.83,3.57-2.7,2.54-1.8,5.17-3.48,7.9-4.98,2.82-1.55,5.82-2.75,8.64-4.3.26-.14.08-.55-.2-.48-2.91.76-5.71,2.22-8.34,3.64-2.74,1.47-5.4,3.11-7.94,4.91-1.19.85-2.35,1.73-3.49,2.65-1.12.9-2.34,1.8-3.3,2.88-.03,0-.07.01-.1.04-2.28,2.14-4.7,3.94-7.73,4.85-.83.25-2.89.98-3.51-.01-.67-1.06,1.5-3.49,2.12-4.19,2.05-2.3,4.67-4.1,7.22-5.81,1.33-.89,2.67-1.77,4.03-2.61,1.25-.76,2.53-1.49,3.78-2.26.02-.01.04-.02.05-.03.19-.12.38-.24.57-.36.21-.14.08-.52-.18-.43-.17.06-.34.12-.51.19-.05-.01-.11-.01-.17,0-2.35.38-4.65,1.07-7,1.48-2.32.41-4.64.72-6.99.91-1.18.1-2.38.19-3.57.2-1.09,0-2.42.18-3.49-.09-.99-.26-1.46-1.14-1.35-2.13.13-1.15,1.01-2.04,1.85-2.74,6.26-5.29,14.27-8.61,22.26-10.17,4.59-.89,9.13-.9,13.78-.93.05,0,.09-.01.12-.04.43-.01.85-.03,1.28-.06.26-.02.25-.37,0-.39-1.45-.15-2.9-.26-4.35-.36-1.96-.14-3.92-.26-5.87-.48-.28-.03-1.49-.02-1.6-.21-.29-.51.44-.74.76-.88.71-.29,1.46-.52,2.21-.72,1.61-.43,3.27-.68,4.93-.79,3.14-.2,6.3.06,9.42.41,1.62.19,3.23.4,4.84.61,1.79.23,3.56.26,5.36.41.13.01.16-.2.03-.23"/>
      <path class="cls-8" d="M55.28,3.73c-4.13-1.64-8.25-2.6-12.71-2.59-2.17,0-4.35.13-6.51.37-1.83.2-3.94.11-5,1.82-.38.61-.08,1.29.44,1.68,1.48,1.12,3.59.29,5.28.09,2.04-.24,4.09-.35,6.15-.39,4.07-.08,8.17-.22,12.24-.18.49,0,.51-.63.11-.79"/>
      <path class="cls-8" d="M53.72,10.99c-5.59,2.9-10.76,6.64-16.18,9.84-2.69,1.59-5.45,3.21-8.31,4.46-2.28.99-6.68,1.71-7.46,4.4-.19.64.12,1.48.73,1.79,2.66,1.35,6.14-1.53,8.41-2.83,2.8-1.6,5.67-3.07,8.42-4.76,5.43-3.31,10.94-7.17,14.94-12.19.31-.39-.07-.96-.55-.71"/>
      <path class="cls-8" d="M37.62,16.83c.33-.21.21-.75-.2-.75-4.4-.03-8.47,2.24-12.13,4.48-1.95,1.19-3.86,2.44-5.72,3.76-1.71,1.21-3.67,2.36-4.49,4.35-.42,1.01.74,1.7,1.57,1.57,1.94-.3,3.53-2.02,5.01-3.21,1.68-1.34,3.37-2.67,5.15-3.88,3.47-2.36,7.31-4.03,10.82-6.32"/>
      <path class="cls-8" d="M35.41,13.82c.39-.3-.05-.84-.44-.76-5.04,1.04-10.07,1.81-15.21,2.29-2.45.23-4.89.55-7.31,1.01-2.03.39-4.85.72-5.64,2.92-.19.53.14,1.06.55,1.35,1.78,1.28,4.88-.07,6.82-.44,2.55-.49,5.13-.89,7.68-1.39,4.74-.92,9.66-1.98,13.54-4.99"/>
      <path class="cls-2" d="M74.67,51.9c.79-2.21,1.16-4.57,1.04-6.91-.07-1.54-.22-3.6-1.47-4.68-.7-.61-1.61-.8-2.52-.78-.55,0-1.11.09-1.62.19-2.34.48-4.65,1.34-6.93,2.05-1.56.48-3.12.94-4.67,1.46-.56.18-1.12.38-1.67.58-1.47.15-2.94.37-4.4.54-2.12.24-4.25.38-6.37.61-.53.06-1.07.14-1.62.26-2.41.51-4.81,1.66-5.58,4.16-.91,2.97.89,6.42,3.01,8.44,2.21,2.11,5.02,4.06,7.96,4.97.23.07.46.15.69.22,1.33.44,2.62.91,4.02,1.1,1.61.22,3.25.24,4.87.06,3.06-.34,6.22-1.5,8.71-3.34,3.01-2.22,5.31-5.4,6.56-8.93"/>
      <path class="cls-1" d="M51.31,3.22c-3.18-1.03-6.48-1.68-9.79-2.07-1.62-.19-3.25-.39-4.89-.41-1.39-.02-3.1-.04-4.22.89-.25.21-.13.73.21.78.75.1,1.39-.03,2.13-.12.79-.09,1.6-.11,2.4-.09,1.52.04,3.04.2,4.55.36,3.19.35,6.37.72,9.57,1.01.21.02.23-.29.05-.35"/>
      <path class="cls-1" d="M37.83,6.76c-2.23-.91-4.51-.64-6.82-.18-2.61.52-5.21,1.12-7.79,1.77-2.53.64-5.06,1.31-7.56,2.05-1.25.37-2.5.75-3.74,1.17-1.09.36-2.35.68-3.26,1.41-.19.16-.02.47.2.47,1.12.01,2.29-.49,3.35-.83,1.19-.38,2.37-.76,3.56-1.13,2.38-.74,4.77-1.44,7.19-2.07,2.35-.62,4.72-1.19,7.09-1.71,2.49-.55,5.14-1.18,7.67-.56.25.06.33-.29.1-.38"/>
      <path class="cls-1" d="M28.04,9.66c-2.99.37-5.93.93-8.83,1.77-2.84.81-5.84,1.72-8.38,3.27-.2.12-.07.45.16.38,2.84-.86,5.56-2.07,8.42-2.9,2.85-.83,5.77-1.48,8.7-1.94.32-.05.25-.62-.08-.58"/>
      <path class="cls-1" d="M52.36,12.13c-2.96,2.59-6.01,5.07-9.1,7.5-1.59,1.25-3.2,2.46-4.85,3.63-1.54,1.1-3.16,2.09-4.65,3.27-.15.12.04.32.19.25,1.78-.88,3.41-2.06,5.04-3.19,1.64-1.13,3.24-2.31,4.82-3.52,3.1-2.37,5.98-4.99,8.73-7.75.12-.12-.06-.3-.18-.19"/>
      <path class="cls-1" d="M50.63,11.51c-1.72,1.51-3.48,2.96-5.23,4.44-1.74,1.47-3.58,2.83-5.24,4.39-.17.16.05.45.25.32,1.88-1.21,3.58-2.73,5.27-4.18,1.77-1.53,3.45-3.15,5.11-4.8.1-.1-.05-.25-.16-.16"/>
      <path class="cls-1" d="M87.15,18.21c-2.83-2.86-6.44-5.09-10.05-6.83-.17-.08-.31.16-.15.25,3.6,1.93,6.8,4.31,10.05,6.76.11.08.24-.09.14-.19"/>
      <path class="cls-1" d="M83.72,14.08c-.8-.7-1.69-1.31-2.53-1.96-.06-.05-.12.06-.06.1.84.64,1.67,1.33,2.55,1.92.04.02.08-.03.05-.06"/>
      <path class="cls-1" d="M90.36,18.41c-.81-1.19-2.06-2.15-3.09-3.15-1.13-1.1-2.28-2.18-3.43-3.27-.15-.14-.38.08-.23.23,1.1,1.13,2.21,2.26,3.33,3.37,1.01,1.01,2.01,2.25,3.2,3.03.13.08.3-.08.21-.21"/>
      <path class="cls-1" d="M90.47,16.03c-.87-1.33-2-2.51-3.01-3.73-.12-.14-.32.06-.2.2.99,1.22,1.92,2.55,3.05,3.66.08.08.23-.03.17-.13"/>
      <path class="cls-1" d="M32.75,16.46c-5.26,2.2-10.12,5.53-14.6,9.02-.1.08.03.25.13.17,4.6-3.44,9.57-6.13,14.59-8.88.17-.09.05-.39-.13-.31"/>
      <path class="cls-1" d="M44.96,140.09c-1.75.9-3.47,1.85-5.31,2.6-2.1.86-4.61,2.05-6.95,1.8,1.25-1.88,3.91-2.54,5.95-3.13,2.08-.6,4.2-.89,6.31-1.26"/>
      <path class="cls-5" d="M80.18,83.51c.3.43.6.94,1.02,1.26-2.34.75-4.7,1.47-6.96,2.4-.66-2.02-1.68-4.09-3.17-5.52.74-.37,1.46-.77,2.19-1.13,1.52-.77,3.04-1.53,4.55-2.32.02-.01.04-.02.05-.03.24,1.23.65,2.4,1.23,3.52.33.63.68,1.23,1.09,1.81"/>
      <path class="cls-5" d="M77.09,122.93c-2.38-.52-4.73-1.01-7.05-1.8-2.4-.82-4.74-1.83-6.98-3.04-2.17-1.17-4.24-2.51-6.19-4.01-.99-.76-1.94-1.56-2.86-2.41-.4-.37-.78-.74-1.18-1.11-.02-.12-.1-.23-.24-.31-.1-.06-.21-.12-.31-.18-.29-.25-.58-.49-.9-.7,1.72-5.47,3.12-11.07,4.65-16.59.09-.34.19-.68.29-1.02.58-2.03,1.28-4.16,2.31-6.04,1.28-2.34,3.08-4.28,5.83-5.11,1.01-.3,2.02-.36,2.98-.2,1.34.22,2.6.87,3.62,1.9,1.39,1.4,2.25,3.14,2.87,4.99.07.21.14.42.2.64.74,2.44.99,4.91,1.4,7.41.48,2.95.86,5.91,1.15,8.88.32,3.24.51,6.49.59,9.74.07,3.01-.03,6.01-.09,9.01-.03-.02-.07-.03-.11-.04"/>
      <path class="cls-5" d="M58.06,85.81c-.63,1.18-1.14,2.42-1.54,3.64-.25.77-.49,1.54-.71,2.31-.84.1-1.67.23-2.51.32-.94.1-1.88.18-2.82.25-.12-1.09-.17-2.19-.14-3.29.04-1.07.24-2.12.35-3.18,2.46.15,4.91.14,7.37-.04"/>
      <path class="cls-5" d="M67.19,41.12c1.26-.38,2.58-.88,3.91-1.01-3.32,3.41-7.59,6.36-12.22,7.56-2.54.66-5.23.74-7.81.26-2.09-.38-3.91-1.2-5.77-2.08.37-.07.74-.13,1.11-.19,2.11-.37,4.24-.64,6.37-.9,2.11-.26,4.25-.41,6.33-.85.16-.03.12-.29-.04-.28-.15,0-.29.01-.44.02,2.88-.76,5.72-1.69,8.56-2.54"/>
      <path class="cls-9" d="M74.01,52.29c-1.05,2.63-2.72,5.03-4.82,6.95-2.25,2.06-4.76,3.41-7.74,4.1-2.98.68-5.99.51-8.97-.04-.64-.12-1.28-.28-1.91-.49-1.43-.46-2.82-1.13-4.1-1.93l.02-.02c2.89-3.66,6.97-6.18,11.41-7.57,5.26-1.66,10.7-1.6,16.12-1"/>
      <path class="cls-7" d="M74.69,80.57c-.11.06-.23.11-.34.17-.09.04-.18.06-.26.11-.14.09-.43.26-.3.47.13.2.37.03.51-.06.11-.07.17-.17.27-.25.1-.08.19-.16.28-.24.12-.1-.03-.27-.16-.21"/>
      <path class="cls-7" d="M106,64.3c-1.35-.31-2.74.76-3.91,1.33-1.43.69-2.86,1.39-4.28,2.1-2.79,1.38-5.58,2.77-8.36,4.18-2.78,1.41-5.55,2.82-8.3,4.29-1.4.74-2.8,1.49-4.2,2.25-1.21.65-2.68,1.26-3.49,2.41-.18.26.06.63.36.62,1.41-.03,2.77-.95,3.99-1.57,1.36-.7,2.72-1.4,4.08-2.09,2.78-1.41,5.55-2.84,8.33-4.25,2.73-1.38,5.46-2.74,8.2-4.09,1.42-.7,2.85-1.4,4.28-2.09,1.17-.57,3.05-1.04,3.64-2.27.14-.3.04-.72-.33-.8"/>
      <path class="cls-7" d="M50.7,111.05c-.25-.98-1.37-1.12-2.23-1.28-1.05-.2-2.13-.31-3.2-.3-2.09.02-4.16.45-6.08,1.27-1.65.71-3.23,1.78-4.5,3.05-1.3,1.31-1.97,2.95-2.62,4.63-.07.17.19.25.28.12.94-1.38,2.3-2.45,3.55-3.53,1.25-1.08,2.64-1.96,4.17-2.59,1.7-.69,3.53-1.03,5.37-1.02.96,0,1.91.1,2.84.31.83.18,1.55.51,2.27-.07.16-.13.2-.39.15-.58"/>
      <path class="cls-7" d="M8.64,78.92c-.64-.88-2.05-.92-3.01-1.29-.93-.35-2.2-1.34-3.21-1.21-.13.02-.26.1-.25.25.08,1.14,1.62,1.98,2.53,2.4.96.45,2.77,1.34,3.76.58.21-.16.38-.48.19-.73"/>
      <path class="cls-7" d="M56.3,86.57c-1.16-1.08-3.15-.77-4.63-.88-1.81-.14-3.61-.33-5.41-.59-3.43-.49-6.84-1.1-10.19-1.96-3.35-.86-6.64-1.93-9.86-3.2-1.71-.68-3.39-1.43-5.07-2.19-.82-.37-1.63-.73-2.44-1.11-.73-.34-1.45-.8-2.24-.98-.31-.07-.55.31-.32.55.88.9,2.25,1.46,3.34,2.06,1.27.7,2.58,1.31,3.91,1.9,2.5,1.11,5.05,2.11,7.64,3,5.3,1.81,10.76,3.19,16.31,3.93,1.6.21,3.21.38,4.83.5,1.38.1,2.97.49,4.13-.45.17-.13.15-.43,0-.57"/>
      <path class="cls-7" d="M114.74,57.88c-.67-1.85-2.2-3.86-4.21-4.31-1.58-.35-3.38.19-3.81,1.88-.05.21.23.4.38.22.62-.7,1.7-.93,2.59-.74,1.09.22,1.82,1,2.36,1.92.44.74.82,2.41,1.73,2.68,1.08.32,1.22-.93.96-1.66"/>
      <path class="cls-7" d="M120.45,55.33c-.07-.8-.4-1.28-.82-1.93-.09-.14-.29-.08-.31.08-.04.58-.22,1.13-.25,1.71-.04.67-.07,1.3-.24,1.95-.31,1.21-.93,2.27-1.43,3.4-.16.35.18.8.57.57,1.27-.77,1.97-2.15,2.28-3.58.16-.71.26-1.47.2-2.2"/>
      <path class="cls-10" d="M99.39,31.7c-.54-1.94-1.13-3.87-1.8-5.77-1.33-3.82-2.92-7.61-5.11-11.03-4.09-6.38-10-11.21-17.45-13.02-1.92-.47-3.92-.7-5.89-.62-1.73.07-3.81.22-5.23,1.32-.06.04,0,.13.05.13,1.67.08,3.35-.43,5.04-.46,1.7-.03,3.4.17,5.05.58,3.4.83,6.5,2.52,9.28,4.62,6.04,4.57,9.93,11.31,12.57,18.29.75,1.99,1.41,4,2.02,6.04.6,1.98.91,4.36,2.07,6.11.19.28.59.16.61-.17.16-1.99-.69-4.12-1.22-6.02"/>
      <path class="cls-10" d="M46.93,7.19c-3.28.26-6.54,1.19-9.67,2.16-3.13.97-6.31,2.13-9.1,3.88-.09.06-.03.21.08.18,3.12-.96,6.15-2.18,9.27-3.15,3.13-.98,6.35-1.57,9.5-2.44.33-.09.28-.65-.08-.62"/>
      <path class="cls-7" d="M12.33,68.04c-1.63,1.23-3.32,3.26-2.51,5.45.1.26.45.27.55,0,.62-1.81.74-3.82,2.07-5.31.06-.07-.02-.2-.11-.14"/>
      <path class="cls-7" d="M56.49,29.06c-.03-.22-.06-.35-.21-.51-.22-.23-.6-.27-.87-.11-1.9,1.11-3.97,3.84-3.02,6.15.1.25.43.27.53,0,.34-.94.49-1.92,1.02-2.79.54-.9,1.28-1.61,2.2-2.11.2-.11.39-.38.36-.62"/>
      <path class="cls-7" d="M63.61,53.12c-2.61-.4-5.51.29-7.93,1.29-2.3.95-4.9,2.49-6.29,4.6-.07.11.07.26.18.18,1.01-.77,1.92-1.66,2.97-2.39,1.05-.72,2.17-1.32,3.34-1.82,2.5-1.07,5-1.32,7.68-1.52.18-.01.25-.3.05-.33"/>
      <path class="cls-7" d="M60.84,109.77c-1.31-.51-2.72-.69-4.09-1-1.37-.31-2.74-.64-4.11-.94-.15-.03-.25.18-.11.25,2.42,1.23,5.48,2.38,8.24,2.18.29-.02.33-.39.07-.49"/>
      <path class="cls-7" d="M59.75,107.66c-1.82-1-3.93-1.7-5.93-2.23-.15-.04-.25.18-.11.25,1.82.96,3.86,1.89,5.87,2.38.24.06.4-.28.17-.41"/>
      <path class="cls-7" d="M44.77,136.99c-2.04-.75-4.77-.17-6.79.41-2.17.62-4.31,1.66-5.9,3.28-.17.17.04.44.25.33,1.96-1.07,3.9-2.08,6.07-2.65,1.05-.27,2.12-.45,3.2-.52,1.06-.07,2.12.04,3.17-.12.41-.06.31-.62,0-.74"/>
      <path class="cls-7" d="M49.87,144.17c-1.57.53-2.96,1.74-4.21,2.81-1.35,1.16-2.54,2.43-3.42,3.98-.07.13.1.26.21.16,1.24-1.13,2.41-2.35,3.68-3.44,1.27-1.1,2.77-1.9,4.02-3.01.22-.19-.01-.59-.29-.49"/>
      <path class="cls-7" d="M82.03,140.85c-.03-2.04-.29-4.07-.75-6.05-.88-3.8-2.49-7.79-5.1-10.74-.24-.27-.68.08-.5.38,2.02,3.39,3.78,6.74,4.63,10.63.42,1.9.64,3.84.67,5.79.03,1.94-.3,3.85-.3,5.78,0,.38.5.4.62.08.72-1.83.76-3.92.72-5.87"/>
      <path class="cls-7" d="M101.31,50.28c-.36-1.01-1.08-1.81-1.74-2.64-.76-.97-1.49-1.94-2.38-2.79-.3-.28-.77.08-.57.44.59,1.08,1.35,2.04,2.09,3.02.63.85,1.22,1.75,2.1,2.36.24.16.6-.11.5-.38"/>
      <path class="cls-7" d="M23.87,59.15c-1.94,1.19-3.8,4.85-1.98,6.85.26.29.68.1.8-.21.35-.91.3-1.91.56-2.85.28-1.05.91-2,1.54-2.87.41-.56-.38-1.26-.93-.93"/>
      <path class="cls-6" d="M63.69,92.56c-5.38,1.21-7.32,6.33-5.54,10.41.92,2.11,2.48,4.15,5.16,4.87,2.1.57,4.57.22,6.38-.82,2.7-1.55,3.74-4.02,3.51-6.5.05-.3.08-.6.1-.89.22-4.24-4.41-8.25-9.62-7.08"/>
      <path class="cls-2" d="M114.64,56.38c-.78-2.27-2.84-4.34-5.42-4.08-2.2.23-3.98,2.06-4.81,4.02-.88,2.08-1.08,5.31.68,7,.15.14.44,0,.37-.21-.35-1.03-.8-2.02-.89-3.12-.08-1.02.06-2.05.4-3.01.79-2.22,3.08-4.54,5.64-3.81,2.79.8,3.93,4.03,3.81,6.68-.06,1.32-.66,2.64-2.21,2.22-.59-.16-1.19-.53-1.69-.88-.62-.44-1.01-1.07-1.58-1.54-.08-.06-.19,0-.17.1.39,1.76,3.47,3.95,5.2,2.82,1.82-1.19,1.24-4.5.67-6.18"/>
      <path class="cls-2" d="M16.76,70.67c-.24-1.19-.85-2.28-1.84-3.01-2.36-1.74-4.73-.04-5.71,2.32-.52,1.27-.7,2.67-.51,4.03.14,1.07.5,2.73,1.59,3.25,1.04.5,1.79-.58,2.27-1.35.65-1.04,1.43-2.69,1.06-3.93-.02-.08-.15-.11-.19-.02-.38.83-.41,1.77-.79,2.62-.45,1.01-1.7,3.19-2.73,1.46-1.11-1.87-.84-4.63.16-6.47.52-.96,1.38-1.95,2.55-2.04,1.05-.07,2.01.55,2.64,1.34.72.9.96,2.04.99,3.18.03.98-.3,2.05-.06,3,.04.14.24.17.31.04.66-1.19.52-3.13.26-4.42"/>
      <path class="cls-2" d="M119.07,52.08c-2.14-.96-4.86.14-6.25,1.9.09.09.18.17.26.26,1.45-1.46,4.08-2.74,6.02-1.53,2.01,1.25.76,4.67.03,6.32-.86,1.96-2.17,3.94-3.91,5.23-.94.7-2.31,1.17-3.37.42-.88-.63-.78-1.73-.13-2.45-.24-.09-.46-.19-.68-.31-1,.68-.8,2.5.17,3.27,1.86,1.47,4.2.09,5.55-1.36,1.77-1.89,3.04-4.25,3.67-6.76.43-1.72.57-4.12-1.36-4.98"/>
      <path class="cls-2" d="M123.42,57.6c-.52-.98-1.89-1.75-3-1.5-.05.22-.1.45-.15.67,1.28-.2,2.46.44,2.75,1.92.37,1.89-.93,3.53-2.18,4.78-1.2,1.2-2.56,2.51-4.1,3.25-.86.41-1.85.61-2.7.08-.65-.4-.82-.9-.96-1.52-.29.04-.6,0-.88-.1-.17.66.22,1.38.69,1.86.72.71,1.75,1,2.75.87,1.14-.15,2.15-.79,3.04-1.48,1.12-.86,2.19-1.81,3.15-2.85,1.43-1.55,2.72-3.88,1.59-5.98"/>
      <path class="cls-2" d="M125.37,64.92c-.11-.77-.46-1.5-.97-2.08-.37-.42-1.1-1.14-1.7-.88-.02,0-.02.03-.02.05.17.43.61.55.95.86.47.45.82,1.01,1.01,1.63.42,1.4-.23,2.8-1.29,3.71-1.2,1.02-2.72,1.35-4.27,1.31-1.03-.02-4.12-.26-3.54-1.91-.29.08-.58.08-.85.01-.09.33-.05.7.1,1.03.35.8,1.19,1.08,1.99,1.23,2.04.38,4.33.4,6.19-.62,1.56-.85,2.68-2.53,2.41-4.35"/>
      <path class="cls-2" d="M124.21,68.14c-.05-.08-.2-.03-.16.07.61,1.67-1.09,3.05-2.6,3.16-.82.06-1.6-.11-2.38-.34-.33-.1-.7-.18-1.01-.33-.43-.22-.54-.54-.6-.95-.29-.07-.57-.17-.85-.3-.55.6,0,1.64.65,2.04,1.07.66,2.81.81,4.03.72,1.95-.14,4.22-1.99,2.92-4.07"/>
      <path class="cls-2" d="M13.1,74.79c-.18-.08-.34.05-.31.24.07.45.33.82.34,1.29,0,.58-.25,1.08-.71,1.42-.89.66-2.28.49-3.31.33-2.09-.33-4.16-1.24-5.74-2.67-.79-.72-1.52-1.65-1.61-2.76-.09-1.13.46-2.21,1.6-2.54,1.01-.29,2.12-.01,3.11.2.9.19,1.79.47,2.69.68.04-.18.1-.35.16-.53-1.33-.48-2.82-.79-4.19-.97-1.06-.14-2.26-.09-3.09.68-1.94,1.82-.45,4.61,1.21,5.98,2.1,1.73,5.08,2.91,7.83,2.7,1.04-.08,2.07-.48,2.54-1.48.35-.77.4-2.19-.51-2.57"/>
      <path class="cls-2" d="M11.58,78.45c-.22.69-.16,1.36-.58,2.02-.49.78-1.26,1.31-2.13,1.6-1.44.47-3.12.41-4.57.01-1.55-.42-3.04-1.45-3.42-3.1-.4-1.75.88-2.99,2.47-3.22-.18-.14-.34-.31-.47-.49-1.27-.09-2.5,1.11-2.79,2.32-.5,2.11,1.05,4.06,2.89,4.86,1.91.84,4.45,1,6.41.23.93-.37,1.73-.98,2.26-1.83.42-.66.83-1.72.4-2.45-.16.03-.32.05-.48.05"/>
      <path class="cls-2" d="M10.63,81.38c.12.43.19.86.07,1.36-.19.83-.75,1.51-1.43,2-1.03.74-2.34,1.13-3.61,1.16-2.88.06-5.43-2.09-4.02-5.07.07-.14-.1-.27-.22-.17-1.21,1.03-.92,2.95-.05,4.09.99,1.3,2.72,1.8,4.29,1.76,1.69-.04,3.53-.66,4.7-1.92.78-.84,1.43-2.59.79-3.69-.17.17-.35.33-.53.47"/>
      <path class="cls-2" d="M10.5,83.97c-.06-.11-.26-.09-.28.04-.19,1,0,1.99-.3,3-.37,1.21-1.19,2.26-2.41,2.67-1.17.39-2.58.14-3.28-.95-.62-.98-.37-1.87-.03-2.88.03-.09-.08-.17-.16-.12-.94.62-.85,2.04-.42,2.95.58,1.23,1.87,1.84,3.19,1.71,1.36-.13,2.54-.98,3.2-2.16.63-1.14,1.09-3.02.49-4.25"/>
      <path class="cls-2" d="M104.98,62.59c-1.55.81-3.04,1.8-4.57,2.66-1.53.87-3.07,1.73-4.61,2.6-2.97,1.66-5.94,3.31-8.94,4.93-2.99,1.61-6,3.21-9.02,4.78-1.51.79-3.01,1.58-4.52,2.36-.93.49-1.91.94-2.86,1.44.16.11.32.23.47.35.78-.39,1.55-.81,2.32-1.2,1.52-.76,3.04-1.53,4.55-2.32,3.08-1.59,6.14-3.21,9.19-4.85,3.05-1.64,6.1-3.28,9.14-4.95,1.49-.82,2.98-1.65,4.46-2.48,1.58-.89,3.25-1.69,4.78-2.65.43-.27.05-.91-.4-.68"/>
      <path class="cls-2" d="M117.09,70.84s-.19-.39-.21-.44c0-.01,0-.02-.01-.04,0,0,0-.02,0-.03-10.84,5.26-22.04,9.78-33.43,13.7-3.12,1.07-6.35,1.95-9.39,3.22.02.05.04.11.06.16,2.93-.57,5.81-1.61,8.65-2.54,2.91-.96,5.81-1.96,8.68-3.02,5.73-2.09,11.4-4.36,16.99-6.8,2.96-1.3,5.9-2.64,8.83-4.01-.07-.09-.15-.18-.16-.2"/>
      <path class="cls-2" d="M58.5,85.64c-11.34-.2-22.49-2.1-32.83-6.74-1.47-.66-2.92-1.37-4.35-2.13-1.47-.78-2.86-1.73-4.35-2.46-.31-.15-.71.26-.4.5,2.21,1.7,4.98,2.95,7.51,4.14,2.65,1.24,5.38,2.33,8.16,3.25,5.54,1.84,11.31,3.03,17.15,3.54,3.02.26,6.01.27,9.01.03.03-.05.06-.09.1-.14"/>
      <path class="cls-2" d="M56.17,91.71c-.96.11-1.91.26-2.87.36-1.51.16-3.03.28-4.55.36-3.09.17-6.2.17-9.29.01-6.27-.33-12.51-1.35-18.56-3.03-3.44-.96-6.85-2.1-10.12-3.54-.5-.22-.8.48-.29.69,11.83,4.7,24.32,7.14,37.08,6.61,1.75-.07,3.49-.2,5.23-.39,1.03-.11,2.08-.2,3.11-.37.08-.24.17-.47.26-.7"/>
      <path class="cls-2" d="M55.09,27.91c-1.35.15-2.11,1.2-2.59,2.38-.58,1.45-1.32,3.61-.84,5.17.12.4.64.36.78,0,.45-1.17.39-2.53.76-3.74.32-1.09.76-2.58,2.09-2.74,2.44-.29,3.41,2.7,4.15,4.46.06.13.28.06.27-.07-.25-2.51-1.49-5.79-4.62-5.45"/>
      <path class="cls-2" d="M57.71,33.07c-.22-.41-.46-.77-.74-1.14-.1-.14-.3-.06-.27.11.08.45.17.88.32,1.32.12.35.21.74.59.86.11.03.25-.02.3-.12.18-.36-.03-.69-.2-1.02"/>
      <path class="cls-2" d="M54.92,32.42c-.41.53-.68,1.36-.23,1.94.11.15.41.18.46-.06.1-.57,0-1.15.16-1.72.07-.25-.25-.34-.38-.16"/>
      <path class="cls-2" d="M75.71,44.99c-.08-1.54-.22-3.6-1.47-4.68-1.13-.98-2.78-.87-4.15-.59-2.34.48-4.65,1.34-6.93,2.05-2.12.66-4.26,1.28-6.34,2.04-1.47.15-2.94.37-4.4.54-2.12.24-4.25.38-6.37.62-2.87.32-6.25,1.35-7.2,4.42-.91,2.97.89,6.42,3.01,8.44,2.21,2.11,5.02,4.06,7.96,4.97,1.57.49,3.07,1.1,4.71,1.32,1.61.22,3.25.24,4.87.06,3.06-.34,6.22-1.5,8.71-3.34,4.89-3.61,7.91-9.75,7.61-15.84M69.18,59.24c-2.25,2.06-4.76,3.42-7.74,4.1-2.98.68-5.99.51-8.97-.04-2.92-.54-5.87-2.04-8.13-3.96-2.27-1.92-4.62-4.71-4.93-7.77-.18-1.86.63-3.54,2.23-4.51,1.44-.88,3.13-1.09,4.76-1.38,2.11-.37,4.24-.64,6.37-.9,2.11-.26,4.25-.41,6.33-.85.16-.03.12-.29-.04-.28-.15,0-.3.01-.44.02,2.88-.76,5.72-1.69,8.56-2.54,1.54-.46,3.18-1.12,4.82-1.03,2.05.11,2.67,1.64,2.98,3.42,1.02,5.83-1.51,11.79-5.81,15.72"/>
      <path class="cls-2" d="M71.52,39.68c-3.38,3.6-7.82,6.75-12.64,8-2.54.66-5.23.74-7.81.26-2.32-.42-4.31-1.38-6.39-2.37-.12.03-.24.06-.35.09,0,0-.02,0-.04.02,1.84,1.5,4.38,2.33,6.65,2.75,2.53.47,5.14.44,7.64-.14,5.32-1.22,9.41-4.63,13.37-8.18.29-.26-.16-.71-.43-.43"/>
      <path class="cls-2" d="M46.2,60.64c.1.07.19.14.28.21,2.9-3.66,6.97-6.17,11.41-7.57,5.33-1.68,10.85-1.6,16.33-.97.07-.16.14-.33.22-.49-10.09-1.64-21.7.37-28.24,8.82"/>
      <path class="cls-2" d="M77.41,104.94c-.29-3.09-.7-6.17-1.2-9.23-.26-1.55-.68-3.05-.98-4.58-.22-1.15-.47-2.29-.81-3.41-1.16-3.88-3.61-8.18-8.26-7.92-5.23.28-8.18,5.2-9.64,9.65-1.08,3.3-1.91,6.69-2.81,10.04-.97,3.59-2.05,7.18-2.9,10.8-.04.17.21.24.26.07,1.86-5.79,3.34-11.72,4.97-17.58,1.33-4.78,3.1-10.56,8.43-12.17,2.4-.73,4.84-.08,6.6,1.69,1.55,1.56,2.44,3.55,3.07,5.62.74,2.44.99,4.91,1.4,7.41.48,2.95.86,5.91,1.15,8.88.32,3.24.51,6.49.59,9.74.08,3.38-.06,6.74-.1,10.12,0,.42.6.4.64,0,.54-6.33.19-12.84-.4-19.15"/>
      <path class="cls-2" d="M81.84,84.6c-.23-.53-.74-.89-1.11-1.33-.47-.55-.9-1.17-1.25-1.81-.61-1.1-1.04-2.3-1.34-3.53-.1.04-.2.09-.3.13.24,1.27.65,2.47,1.25,3.63.33.63.68,1.23,1.09,1.81.37.52.72,1.16,1.32,1.43.24.11.44-.11.34-.34"/>
      <path class="cls-2" d="M50.55,92.81c-.17-1.25-.24-2.52-.2-3.78.04-1.22.29-2.41.38-3.62.02-.27-.38-.3-.46-.06-.79,2.32-.66,5.13-.34,7.54.2-.02.4-.05.6-.08"/>
      <path class="cls-2" d="M61.88,81.5c.14-.1.3-.18.45-.26-.25-.69-.5-1.39-.72-2.09-.37-1.17-.66-2.36-.96-3.54-.14.03-.28.06-.42.08.26,1.26.63,2.52,1.02,3.74.2.64.4,1.36.63,2.07"/>
      <path class="cls-2" d="M66.98,74.45c-.11.03-.22.06-.33.09.04,1.13.17,2.27.25,3.36.05.7.08,1.47.14,2.23.15.02.3.05.45.09-.06-.73-.15-1.47-.2-2.16-.1-1.17-.15-2.43-.3-3.61"/>
      <path class="cls-2" d="M91.91,28.18c-.08-.09-.21.02-.16.12,2.03,3.65,3.52,7.61,3.85,11.79.32,4.09-.27,8.22-1.64,12.08-1.45,4.08-3.71,7.58-6.74,10.65-3.04,3.08-6.73,5.46-10.59,7.38-4,1.99-8.3,3.36-12.69,4.21-4.76.93-9.72,1.35-14.56.85-8.81-.9-16.78-5.83-22.05-12.87-3.13-4.18-5.24-9.07-6.37-14.16-1-4.5-1.14-9.03-.76-13.58-.22-.05-.43-.12-.64-.23-.03-.01-.05-.03-.07-.04-1.12,8.92.74,18.49,5.48,26.11,4.59,7.39,12.02,13.16,20.57,15.1,5.06,1.15,10.36.97,15.47.27,4.62-.63,9.18-1.8,13.48-3.61,8.14-3.43,15.21-9.51,19-17.59,3.78-8.04,4.65-19.38-1.56-26.49"/>
      <path class="cls-2" d="M91.89,27.32c-1.8-2.6-4.01-4.92-6.46-6.92-5.54-4.51-12.24-7.22-19.1-9.05-2.57-.68-5.17-1.29-7.79-1.74-.15.2-.31.4-.48.59,2.15.47,4.3.92,6.43,1.47,3.62.93,7.2,2.07,10.61,3.6,5.84,2.62,11.29,6.39,15.18,11.53,2.1,2.77,3.36,5.86,4.77,9.01.1.23.52.12.49-.13-.35-3.04-1.91-5.88-3.63-8.36"/>
      <path class="cls-2" d="M32.85,68.86c-.98,1.48-2.36,2.43-4.23,2.51-2.09.1-3.94-1.11-5.17-2.73-1.2-1.58-1.96-3.66-1.84-5.66.06-1.03.39-2.05,1.14-2.79.42-.41.95-.68,1.49-.87.13-.05.26-.08.37-.12-.23-.33-.43-.69-.6-1.04-.7.18-1.45.69-1.85,1.04-.88.76-1.4,1.83-1.59,2.97-.41,2.48.51,5.16,2.02,7.13,1.46,1.9,3.69,3.17,6.14,2.95,1.81-.17,3.94-1.2,4.66-2.97-.19-.14-.37-.27-.55-.42"/>
      <path class="cls-2" d="M101.02,48.36c-.55-2.15-2.27-4.31-4.53-4.77-.84-.17-1.19,1.03-.36,1.29,3.8,1.19,5.1,5.3,3.76,8.89-.61,1.63-1.71,3.28-3.39,3.93-.73.29-1.56.36-2.33.19-.42-.09-.82-.25-1.18-.48-.17-.11-.57-.42-.76-.73-.07.16-.14.32-.21.48.04.05.09.11.13.15.64.68,1.53,1.05,2.45,1.15,2.12.22,3.94-1.1,5.05-2.82,1.32-2.06,2-4.88,1.38-7.28"/>
      <path class="cls-2" d="M75.6,17.47c-1.11,0-2.34-.06-3.38-.51-.96-.42-1.68-1.33-2.68-1.63-.29-.09-.62.16-.61.46.04,1.41,1.63,2.26,2.81,2.63,1.36.43,2.8.4,4-.42.22-.15.15-.53-.14-.53"/>
      <path class="cls-11" d="M42.21,37.52c-.59-1.11-1.86-1.03-2.93-.87-1.56.23-3.11.58-4.64,1.01-2.93.83-6.16,1.92-8.54,3.89-.29.24.02.71.35.61,2.47-.73,4.81-1.89,7.29-2.63,1.19-.36,2.4-.66,3.62-.9.1-.02.28-.06.5-.12-3.28,1.63-6.21,4.08-8.18,7.15-.58.9.8,1.64,1.41.82,2.73-3.64,6.24-6.4,10.62-7.76.52-.16.75-.73.49-1.2"/>
      <path class="cls-11" d="M85.08,30.62c-.6-1.16-2.09-1.69-3.28-2.07-1.28-.41-2.65-.59-3.99-.63-2.52-.07-5.02.4-7.51.84.63-.4,1.42-.71,1.79-.89,1.17-.58,2.38-1.06,3.63-1.44,1.16-.35,2.33-.58,3.52-.81,1.27-.25,2.62-.55,3.91-.67.32-.03.31-.45,0-.49-1.57-.21-2.99-.37-4.58-.17-1.52.2-3.04.6-4.49,1.11-1.4.49-2.77,1.1-4.07,1.83-1.04.58-2.23,1.27-2.19,2.62.02.57.49.84,1.01.77,2.83-.4,5.66-1.05,8.54-.99,1.25.03,2.49.2,3.68.57,1.14.36,2.11,1.19,3.26,1.45.6.13,1.06-.47.78-1.02"/>
      <path class="cls-2" d="M39.13,28.73c-.05-.24-.29-.39-.53-.4-.61-.03-.99.4-1.41.79-.47.44-.94.89-1.46,1.27-1.05.79-2.21,1.44-3.32,2.15-.25.16-.16.57.15.57,1.5-.02,2.85-.52,4.1-1.34.93-.61,2.75-1.74,2.46-3.04"/>
      <path class="cls-2" d="M60.68,6.49c-1.8,1.84-3.28,4.03-5.01,5.95-1.71,1.89-3.52,3.69-5.4,5.4-3.87,3.5-8.09,6.61-12.59,9.26-4.49,2.65-9.24,4.88-14.17,6.58-1.1.38-2.36.8-3.52.46-1.67-.5-1.46-2.18-.63-3.35.81-1.13,2.01-1.99,3.08-2.86,1.16-.93,2.35-1.83,3.57-2.7,2.54-1.8,5.17-3.48,7.9-4.98,2.82-1.55,5.82-2.75,8.64-4.3.26-.14.08-.55-.2-.48-2.91.76-5.71,2.22-8.34,3.64-2.74,1.47-5.4,3.11-7.94,4.91-1.19.85-2.35,1.73-3.49,2.65-1.17.94-2.44,1.88-3.43,3.02-1.26,1.46-2.09,4.19.33,5.05,2.21.78,5.02-.68,7.03-1.46,2.59-1.01,5.12-2.15,7.58-3.43,4.99-2.58,9.69-5.74,14-9.34,2.42-2.01,4.72-4.17,6.87-6.46,1.1-1.16,2.16-2.36,3.18-3.59.99-1.2,2.06-2.4,2.8-3.78.09-.16-.12-.33-.25-.19"/>
      <path class="cls-2" d="M25.5,18.74c-2.89,1.05-5.68,2.66-8.26,4.31-2.43,1.56-4.88,3.27-6.98,5.27-.98.93-1.88,1.96-2.59,3.12-.57.93-1.34,2.2-.86,3.32.89,2.12,3.95,1.05,5.43.42,2.74-1.17,5.41-2.97,7.18-5.4.11-.15-.12-.32-.25-.19-2.28,2.14-4.7,3.93-7.73,4.85-.83.25-2.89.98-3.51-.01-.67-1.06,1.5-3.49,2.12-4.19,2.05-2.3,4.67-4.1,7.21-5.81,1.33-.89,2.67-1.77,4.04-2.61,1.46-.89,2.97-1.73,4.4-2.65.21-.14.08-.52-.18-.43"/>
      <path class="cls-2" d="M57.48,2.74c-1.59-.3-3.12-.73-4.72-.96-1.5-.21-3-.43-4.5-.63-2.96-.4-5.94-.71-8.93-.66-2.86.04-5.74.43-8.44,1.4-.82.29-2.03.7-2.09,1.75-.06,1.11,1.24,1.11,2,1.19,3.63.39,7.3.77,10.95.53.26-.02.25-.37,0-.39-3.4-.37-6.82-.47-10.22-.84-.28-.03-1.49-.02-1.6-.21-.29-.51.45-.74.76-.88.72-.29,1.46-.52,2.21-.72,1.61-.43,3.27-.68,4.93-.78,3.15-.21,6.3.06,9.42.41,1.62.19,3.23.4,4.84.61,1.8.23,3.56.26,5.36.41.13.01.16-.2.03-.23"/>
      <path class="cls-2" d="M40.4,5.01c-4.4-.83-9.11-.45-13.5.28-4.43.73-8.77,2.13-12.85,4.01-2.07.95-4.07,2.04-6,3.27-1.84,1.17-3.9,2.44-5.38,4.07-1.15,1.26-1.85,3.2-.78,4.75,1.21,1.76,3.96,1.14,5.74,1,2.89-.22,5.77-.48,8.64-.92,2.88-.44,5.99-.86,8.73-1.87.42-.15.25-.73-.18-.66-2.35.38-4.65,1.07-7,1.48-2.31.41-4.64.72-6.98.91-1.19.09-2.38.19-3.57.2-1.09,0-2.42.19-3.49-.09-.99-.26-1.46-1.14-1.35-2.13.13-1.15,1.01-2.04,1.86-2.75,6.26-5.29,14.27-8.61,22.26-10.16,4.59-.89,9.13-.9,13.78-.93.25,0,.32-.39.06-.44"/>
      <path class="cls-2" d="M99.51,31.03c-.46-4.92-2.15-9.76-4.37-14.14-2.29-4.53-5.31-8.94-9.37-12.06C81.78,1.76,76.85.34,71.88.05c-3.11-.18-6.23.1-9.3.6-2.71.45-5.5.99-8.15,1.79.45.08.9.15,1.36.23,1.84-.43,3.67-.92,5.53-1.27,2.74-.51,5.52-.86,8.31-.88,5.06-.04,10.25,1.02,14.53,3.83,4.14,2.72,7.21,6.86,9.6,11.14,2.45,4.38,4.12,9.12,5.12,14.03.56,2.76.85,5.51.71,8.32-.13,2.52-.75,4.89-1.26,7.32.21.18.4.37.58.58.69-2.23.78-4.65.88-6.97.11-2.59-.03-5.2-.27-7.77"/>
      <path class="cls-2" d="M22.62,58.22c-.95-.97-1.85-1.99-2.67-3.07-1.56-2.05-2.84-4.3-3.81-6.69-2-4.93-2.21-10.05-1.06-15.15-.13.09-.27.18-.4.27-1.59,4.76-.88,10.29.94,14.86.99,2.48,2.36,4.79,3.95,6.93.74,1,1.53,1.97,2.36,2.9.32.35.65.76,1,1.15.17-.15.34-.3.53-.43-.29-.25-.57-.51-.83-.77"/>
      <path class="cls-2" d="M52.59,110.25c-5.52-3.3-13.24-1.39-17.85,2.61-5.16,4.47-7.03,11.85-5.9,18.42.51,2.96,1.69,5.89,3.6,8.22.02-.01.03-.03.05-.04.05-.04.1-.07.15-.1-3.47-4.55-4.31-11.11-3.01-16.55,1.48-6.23,6.04-11.53,12.45-12.89,3.48-.74,6.78-.25,10,1.18.57.25,1.06-.52.5-.85"/>
      <path class="cls-2" d="M83.19,137.73c-.24-2.67-.91-5.3-1.92-7.79-.95-2.33-2.14-4.94-3.9-6.77-.25-.26-.66.07-.49.38,1.07,1.97,2.39,3.75,3.31,5.81.93,2.1,1.61,4.32,1.98,6.59.72,4.34.23,8.85-1.56,12.88-1.68,3.77-4.45,7.01-8.08,9.04-3.93,2.19-8.56,2.91-13.01,2.48-2.54-.25-5-.93-7.43-1.69-2.57-.81-4.84-2.28-7.2-3.53-.11-.06-.18.09-.09.16,1.89,1.44,4.1,2.52,6.27,3.45,2.31.99,4.57,1.79,7.07,2.18,4.51.71,9.22.23,13.4-1.67,8.15-3.71,12.44-12.79,11.65-21.5"/>
      <path class="cls-2" d="M77.09,122.93c-2.38-.52-4.73-1.01-7.05-1.8-2.4-.82-4.74-1.83-6.98-3.04-2.16-1.17-4.24-2.51-6.19-4.01-.99-.76-1.94-1.57-2.87-2.41-.87-.79-1.68-1.67-2.65-2.33-.13-.09-.29.08-.22.21,1.22,2.09,3.46,3.74,5.34,5.21,1.98,1.55,4.08,2.93,6.29,4.14,4.35,2.37,9.27,4.28,14.2,4.92.51.07.62-.79.12-.89"/>
      <path class="cls-2" d="M46.31,139.42c-.1.05-.21.1-.31.15-2.78-.1-5.71.62-8.34,1.43-2.14.66-4.67,1.43-5.76,3.56-.09.17-.02.43.19.47,2.52.49,5.12-.67,7.42-1.57,2.41-.95,5.01-1.98,7.16-3.44.38-.26.05-.81-.36-.61M32.7,144.48c1.25-1.88,3.9-2.55,5.95-3.13,2.08-.6,4.2-.89,6.31-1.26-1.76.9-3.47,1.85-5.31,2.6-2.1.86-4.61,2.05-6.95,1.8"/>
      <path class="cls-2" d="M46.11,136.39c-1.45-.56-3.22-.48-4.74-.32-1.64.18-3.25.59-4.8,1.15-1.49.54-3.01,1.18-4.36,2-1.12.68-2.13,1.63-2.37,2.97-.19,1.05.19,2.15,1.17,2.67.38.2.85.3,1.28.25,0-.27.07-.54.19-.77.02-.03.04-.06.05-.09-.68.16-1.39.06-1.81-.61-.62-.99-.01-2.3.71-3.03,1.41-1.43,3.76-2.26,5.61-2.92,1.97-.7,4.05-1.15,6.15-1.15.98,0,2.08.02,2.98.46.56.27,1.07.72,1.04,1.4-.02.59-.41,1.14-1,1.22-.09.01-.08.16,0,.18.79.17,1.35-.43,1.47-1.19.18-1.08-.65-1.86-1.59-2.22"/>
      <path class="cls-2" d="M51.1,141.89c-.99.37-1.87,1.15-2.71,1.79-.87.66-1.71,1.36-2.53,2.08-1.75,1.56-3.43,3.26-4.85,5.13-.61.8-1.16,1.66-1.43,2.63-.2.72-.38,1.82.2,2.41.56.58,1.68.43,2.39.34,1.03-.13,2.03-.46,2.88-1.06.38-.27.05-.86-.37-.63-.78.43-1.57.79-2.46.94-.66.11-1.27.21-1.76-.27-.46-.46-.36-.94-.19-1.55.49-1.76,1.91-3.23,3.09-4.56,1.13-1.28,2.35-2.49,3.63-3.62.75-.65,1.52-1.28,2.31-1.88.65-.49,1.4-.9,1.96-1.48.11-.11,0-.34-.16-.28"/>
      <path class="cls-2" d="M53.67,146.06c-.91,0-1.78.92-2.46,1.46-.88.69-1.73,1.44-2.5,2.25-1.51,1.58-2.97,3.47-3.86,5.48-.09.2.17.37.3.18,1.25-1.84,2.45-3.6,4.04-5.17.71-.71,1.46-1.39,2.26-2.01.72-.56,1.98-1.04,2.4-1.87.07-.14-.01-.31-.18-.31"/>
      <path class="cls-2" d="M54.11,144.98c-.14-.77-.44-1.57-.9-2.2-.51-.68-1.79-1.32-2.32-.32-.06.12.08.21.17.13.92-.73,1.86,1.2,2.06,1.81.14.44.22.9.24,1.36.02.43-.07.71.17,1.08.09.13.28.17.39.05.48-.48.3-1.3.19-1.92"/>
      <path class="cls-2" d="M49.39,124.78c-.93-1.18-2.65-1.22-3.94-.73-1.54.58-2.55,1.93-2.9,3.52-.39,1.75,0,3.59.78,5.16.45.91,1.04,1.74,1.68,2.52.62.77,1.34,1.81,2.25,2.23.17.08.45-.06.36-.28-.26-.64-.77-1.09-1.22-1.59-.6-.67-1.17-1.35-1.67-2.1-.88-1.33-1.52-2.84-1.55-4.45-.06-3.34,3-5.72,6.11-4.15.09.05.17-.06.11-.14"/>
      <path class="cls-2" d="M64.11,135.22c-.08-.09-.22.02-.17.13,2,3.62,2.76,8.21-.41,11.43-1.29,1.31-3.07,2.09-4.93,1.95-2.07-.16-3.52-1.26-4.62-2.95-.02-.03-.04-.06-.07-.09,0,0,0,.01,0,.02-.08.36-.13.42-.3.67-.1.14-.15.22-.22.29.96,1.57,2.95,2.55,4.7,2.79,2.1.29,4.15-.44,5.7-1.87,3.49-3.22,3.48-8.93.33-12.38"/>
      <path class="cls-2" d="M37.57,165.72c-.24-.71-.45-1.43-.67-2.15-.38-1.29-.68-2.59-1.28-3.8-.05-.11-.21-.05-.21.06-.08,1.43.26,2.79.62,4.16.31,1.16.55,2.82,1.43,3.69.18.18.45.03.47-.2.06-.64-.17-1.16-.37-1.76"/>
      <path class="cls-2" d="M33.34,166.53c.03-1.28.12-2.57.01-3.86-.02-.27-.39-.33-.47-.07-.39,1.2-.52,2.48-.6,3.74-.07,1.09-.35,2.51.19,3.5.12.23.51.25.63,0,.47-.97.22-2.26.25-3.32"/>
      <path class="cls-2" d="M22.22,147.52c-1.45-.23-2.93-.71-4.26-1.32-1.08-.5-2.19-1.52-3.38-1.64-.13-.01-.25.15-.2.27.47,1.19,2.11,1.8,3.21,2.25,1.49.6,2.97.84,4.56.92.27.01.33-.43.06-.47"/>
      <path class="cls-2" d="M20.47,151.17c-.99.06-1.97.09-2.96.05-.86-.04-1.88-.45-2.71-.16-.26.09-.36.4-.16.61.63.66,1.82.64,2.69.64,1.1.01,2.19-.18,3.21-.59.27-.11.27-.57-.07-.55"/>
      <path class="cls-2" d="M64.36,135.48c-1.22-2.93-4.37-5.14-6.99-6.76-1.48-.92-3.03-1.72-4.61-2.47-.8-.38-1.61-.75-2.43-1.1-.7-.3-1.46-.72-2.23-.77-.08,0-.13.11-.07.16.52.49,1.28.73,1.92,1.03.75.35,1.5.68,2.25,1.04,1.53.73,3.04,1.51,4.49,2.39,1.44.88,2.82,1.86,4.08,2.98,1.24,1.11,2.23,2.42,3.4,3.59.07.07.21,0,.17-.1"/>
      <path class="cls-2" d="M53.53,115.07c-.04-.07-.16-.02-.14.06.4,1.11.65,2.29.63,3.48-.02,1.22-.45,2.29-.64,3.47-.03.16.16.24.26.11,1.42-1.91.92-5.16-.12-7.11"/>
      <path class="cls-2" d="M55.79,117.88c-.03-.12-.24-.1-.22.03.08.9.04,1.79-.09,2.69-.11.8-.39,1.57-.43,2.38,0,.22.28.27.39.11.96-1.45.69-3.59.35-5.2"/>
      <path class="cls-2" d="M73.98,124.34c-1.64-.52-3.53-.33-5.18.02-1.77.37-3.53,1.07-4.97,2.17-.12.09-.02.28.12.2,1.55-.82,3.12-1.51,4.84-1.86,1.74-.35,3.41-.2,5.16-.21.18,0,.22-.26.04-.32"/>
      <path class="cls-2" d="M77.12,153.4c-.36-1.37-1.39-2.56-2.19-3.7-.05-.07-.15,0-.11.07.58,1.27,1.09,2.76,2.08,3.77.09.09.25,0,.22-.13"/>
      <path class="cls-2" d="M74.56,151.36c-.09-.06-.17.07-.11.14.66.79,1.09,1.67,1.6,2.55.05.09.21.06.2-.05-.09-1.1-.81-2.03-1.7-2.64"/>
      <path class="cls-2" d="M75.14,154.53c-.29-.92-.85-1.77-1.33-2.59-.1-.18-.36-.02-.27.16.42.86.8,1.8,1.4,2.55.08.09.23,0,.2-.11"/>
      <path class="cls-2" d="M37.39,44.95c-.59.56-1.06,1.24-1.54,1.89-.47.63-1.09,1.27-1.33,2.02-.04.12.11.25.22.17.59-.42.97-1.11,1.38-1.68.52-.72,1.09-1.43,1.48-2.23.07-.14-.1-.27-.21-.16"/>
      <path class="cls-2" d="M38.28,45.82c-.48.57-.98,1.14-1.45,1.72-.42.51-.93,1.03-1.21,1.63-.07.14.1.27.22.17.51-.43.88-1.06,1.26-1.6.44-.61.85-1.23,1.28-1.85.04-.06-.06-.14-.1-.08"/>
      <path class="cls-2" d="M78.05,39.74c-.53-.63-1.32-1.03-2.04-1.42-.81-.45-1.63-.86-2.48-1.24-.1-.05-.24.08-.13.17.68.57,1.37,1.1,2.1,1.6.71.49,1.46,1.08,2.32,1.29.24.06.38-.22.23-.39"/>
      <path class="cls-2" d="M78.34,37.97c-.67-.7-1.78-1.1-2.64-1.53-.15-.08-.27.13-.13.23.79.54,1.67,1.32,2.61,1.57.15.04.26-.15.15-.26"/>
    </g>
  </g>
</svg>