<?xml version="1.0" encoding="UTF-8"?>
<svg id="Layer_2" data-name="Layer 2" xmlns="http://www.w3.org/2000/svg" viewBox="0 0 101.93 168.29">
  <defs>
    <style>
      .cls-1 {
        fill: #dc7053;
      }

      .cls-2 {
        fill: #c5413e;
      }

      .cls-3 {
        fill: #deb2ce;
      }

      .cls-4 {
        fill: #8a96bb;
      }

      .cls-5 {
        fill: #dbd9eb;
      }

      .cls-6 {
        fill: #e99249;
      }

      .cls-7 {
        fill: #fff;
      }

      .cls-8 {
        fill: #f1b664;
      }

      .cls-9 {
        fill: #f1b24f;
      }

      .cls-10 {
        fill: #e58889;
      }

      .cls-11 {
        fill: #e16f52;
      }

      .cls-12 {
        fill: #f9f4b6;
      }

      .cls-13 {
        fill: #9e5d46;
      }

      .cls-14 {
        fill: #e9e9f4;
      }

      .cls-15 {
        fill: #864036;
      }

      .cls-16 {
        fill: #efb291;
      }
    </style>
  </defs>
  <g id="Layer_8_copy_2" data-name="Layer 8 copy 2">
    <g>
      <path class="cls-16" d="M52.2,133.23c-.51,1.42,1.29,3.01,2.49,3.55-.23.03-.46.05-.69.03-.82-.06-1.67-.31-2.39-.71-.69-.38-1.29-.88-1.78-1.48-.48-.6-.71-1.3-1.1-1.95-.02-.04-.06-.05-.09-.03-.15-1.84-.3-3.68-.44-5.52-.05-.73-.11-1.46-.16-2.2,1.07-1.92,2.37-3.66,3.99-5.16.86-.79,1.8-1.49,2.81-2.09.5-.29,1.01-.56,1.54-.79.47-.21.95-.33,1.3-.71.11-.12.08-.37-.1-.39-.33-.05-.68.01-1.03.12-.73-.91-1.83-1.61-2.66-2.43-.93-.92-1.82-1.87-2.68-2.85-.46-.52-.91-1.06-1.35-1.6,1.12-.23,2.26-1.13,3.1-1.86,1.02-.88,1.86-1.92,2.53-3.08,1.78,1.4,3.45,2.96,4.97,4.71,1.16,1.32,2.22,2.73,3.19,4.2.86,1.31,1.49,2.88,2.46,4.1-.14,1.24-.48,2.35-1.19,3.45-.83,1.27-1.93,2.35-3.09,3.32-1.29,1.08-2.67,2.08-4.07,3.02-1.31.87-2.79,1.51-4.07,2.4-.22-.25-.45-.48-.68-.7-.15-.14-.41.04-.29.22.2.32.41.62.62.94,0,.13.09.25.21.31.29.44.57.89.82,1.36.52,1,.81,2.05,1.11,3.13.15.53.97.31.83-.23-.11-.41-.24-.83-.4-1.25.53-.46,1.09-.99,1.72-1.3.61-.3,1.45-.37,1.99.03.19.15.35.35.43.63.43,1.39-.77,2.9-1.92,3.51-1.18.63-2.58.54-3.68-.22-.48-.33-.89-.77-1.18-1.28-.26-.45-.34-.9-.68-1.3-.12-.14-.33-.05-.38.1"/>
      <path class="cls-1" d="M57.96,115.81c-.2-.99-1.35-1.54-2.08-2.15-.88-.73-1.72-1.51-2.54-2.3-1.6-1.54-3.1-3.18-4.76-4.65-.15-.13-.44,0-.36.21.79,2.13,2.12,4.02,3.64,5.69.8.89,1.67,1.72,2.57,2.51.74.65,1.7,1.78,2.77,1.69.53-.04.87-.47.76-1"/>
      <path class="cls-1" d="M51.59,134.69c-.82-1.65-1.64-3.35-2.08-5.14-.22-.89-.3-1.79-.3-2.7,0-.8.05-1.71-.28-2.45-.13-.29-.54-.28-.74-.1-1.42,1.33-.84,4.23-.38,5.87.55,1.99,1.65,3.78,3.45,4.86.22.13.44-.13.34-.34"/>
      <path class="cls-4" d="M48.08,126.89c-10.18-3.98-20.91-6.1-31.67-8.05-4.4,15.02-2.91,31.77,4.26,45.68,4.73-.92,9.76-.44,14,1.85-2.67-9.3-3.91-18.77-4.28-28.44,1.09.06,1.75.08,2.83.14,1.93,9.38,4.08,18.83,6.01,28.21,3-2.46,7.17-3.52,11.04-3.28l1.33.31c-1.62-11.79-3.32-24.44-3.53-36.41"/>
      <path class="cls-5" d="M55.05,103.75s-.01.02-.02.03c-.64,1.15-1.44,2.18-2.42,3.05-.91.81-2,1.26-2.95,1.97-1.24-1.53-2.4-3.11-3.55-4.71-.1-.14-.34-.02-.24.14.23.38.46.76.71,1.13,0,.01,0,.03,0,.05-.06,3.79.24,7.62.45,11.4.18,3.28.38,6.56.62,9.84-5.21-2.03-10.54-3.74-15.96-5.13-2.69-.69-5.4-1.3-8.12-1.85-1.42-.29-2.84-.55-4.27-.79-.72-.12-1.43-.24-2.15-.35-.36-.05-.69-.14-1.02-.14.76-3.61,1.75-7.17,2.92-10.67,1.29-3.85,2.79-7.62,4.47-11.31.66-1.46,1.35-2.91,2.06-4.34,3.08.78,6.2,1.33,9.26,2.21.01,0,.02,0,.04.01,3.35.96,6.68,2.1,9.87,3.5,3.68,1.62,7.16,3.55,10.3,5.96"/>
      <path class="cls-16" d="M58.92,130.88c-1.2-.1-2.41.91-3.16,1.83-.2-.5-.44-1-.71-1.48.68-.64,1.35-1.23,2.37-1.14.69.06,1.12.38,1.5.79"/>
      <path class="cls-16" d="M41.93,87.6c-.36.74-.56,1.59-.79,2.37-.3,1.05-.58,2.1-.84,3.16-.17.72-.34,1.45-.5,2.19-1.09-.37-2.19-.73-3.29-1.06-.51-.15-1.02-.31-1.54-.46.21-.93.4-1.86.62-2.78.25-1.09.52-2.18.76-3.27.13-.59.36-1.23.45-1.86,1.68.65,3.39,1.22,5.12,1.72"/>
      <path class="cls-16" d="M91.23,72.46c1.66,1.71,1.28,4.03-.15,5.73-1.27,1.52-3.1,2.81-5.13,2.95-1.73.11-3.43-.68-4.27-2.2.42-.57.8-1.15,1.16-1.76.32-.54-.52-1.03-.84-.49-1.93,3.19-4.62,5.84-7.74,7.84-1.74,1.12-3.6,2.04-5.54,2.74-6.32,2.31-13.22,2.36-19.78,1.16-2.16-.39-4.34-.9-6.51-1.53-9.95-2.87-19.56-8.27-25.28-16.96-1.31-1.99-2.4-4.11-3.22-6.31-1.55-4.14-2.16-8.58-1.58-13.06.03-.21-.33-.26-.37-.05-.1.57-.19,1.14-.25,1.71-1.46-.24-2.72-.65-3.8-1.78-1.15-1.19-1.75-2.84-1.5-4.49.23-1.53,1.09-2.99,2.35-3.91,1.32-.96,4.81-1.76,4.77.88,0,.47.74.59.84.11.75-3.41,2.2-6.67,4.11-9.6.95-1.45,2.02-2.83,3.21-4.1,1.07-1.15,2.18-2.39,3.4-3.41,3.03-.66,6-1.62,9.03-2.26,2.28-.48,4.59-.88,6.9-1.18,1.05-.14,2.12-.21,3.19-.3-.97.21-1.93.44-2.89.69-3.44.89-6.91,1.97-10.13,3.5-1.48.71-2.9,1.55-4.16,2.6-.87.73-2.29,1.86-2.01,3.17.22,1.05,1.38,1.38,2.31,1.46,1.77.14,3.61,0,5.37-.16,1.31-.11,2.61-.29,3.91-.51-.89.32-1.78.64-2.67.97-.31.11-.41.46-.19.71,1.59,1.86,4.94.71,6.94.38,3.32-.56,6.64-1.18,9.94-1.86,3.8-.79,7.64-1.6,11.43-2.58-1.14.44-2.26.92-3.38,1.43-1.93.87-3.82,1.84-5.65,2.89-1.24.71-3.57,1.63-3.98,3.19-.93,3.53,7.25,1.4,8.6,1.15,4.16-.8,8.3-1.7,12.37-2.89,2.33-.68,4.63-1.49,6.89-2.37,1.24-.48,2.5-.98,3.72-1.55,1.14,1.83,2.26,3.64,3.18,5.61,1.19,2.57,2.12,5.26,2.79,8.02,1.31,5.38,1.67,11.07.92,16.57-.43,3.12-1.21,6.17-2.28,9.12-.12.34.34.72.64.49.97-.73,2.22-1.03,3.37-.82.72.13,1.41.47,1.96,1.04"/>
      <path class="cls-1" d="M81.2,32.66c-1.07-1.45-3.56-.33-4.93.05-1.9.51-3.79,1.19-5.65,1.83-3.74,1.29-7.54,2.5-11.4,3.35-1.82.4-3.64.63-5.51.61-.71-.01-1.41-.06-2.11-.18.24-.29.45-.54.51-.6.54-.53,1.06-.95,1.63-1.34,1.46-.99,3.04-1.79,4.64-2.52,1.88-.86,3.8-1.64,5.74-2.37,1.1-.41,2.23-.8,3.29-1.32.52-.26,1.05-.57,1.56-.86.55-.32.9-.78,1.36-1.21.73-.68.44-2.21-.63-2.39-.6-.1-1.15-.3-1.77-.26-.46.03-.92.11-1.38.15-1.29.1-2.56.59-3.76,1.03-2.25.84-4.47,1.75-6.66,2.74-3.66,1.65-7.6,3.81-9.71,7.39-1.51,2.55.03,5.12,2.56,6.09,2.04.78,4.52.83,6.68.63,4.63-.43,9.12-1.93,13.49-3.45,1.49-.52,13.95-4.81,12.06-7.36"/>
      <path class="cls-1" d="M56.4,30.81c-1.58-.58-3.63.12-5.27.33-1.91.24-3.81.6-5.73.85-2.14.28-4.28.39-6.42.38-.01-.16-.04-.32-.08-.48-.41-1.57-1.83-2.17-3.25-1.93-.52.09-1,.26-1.46.51-2.87.95-5.91,1.65-8.89,1.68.93-.87,2.2-1.55,3.31-2.26,3-1.93,6.15-3.49,9.37-4.95,1.54-.7,3.11-1.35,4.66-2.03.76-.34,1.51-.7,2.27-1.05.89-.41,1.62-.83,2.43-1.39,1.13-.77.57-2.3-.64-2.47-.81-.11-1.49-.2-2.31-.1-.91.11-1.82.2-2.72.37-1.62.32-3.18.81-4.73,1.37-3.14,1.12-6.18,2.68-9.06,4.38-1.43.84-2.83,1.74-4.19,2.69-1.43,1-2.97,2.1-3.74,3.77-.87,1.9-.65,4.16.87,5.64,1.18,1.14,2.85,1.52,4.42,1.52,2.24,0,4.54-.33,6.78-.85.49.49,1.16.81,1.88.87,4.09.37,8.27.06,12.32-.66,1.91-.34,3.92-.88,5.71-1.67,1.66-.73,4.03-1.58,4.94-3.29.26-.49.01-1.04-.48-1.22"/>
      <path class="cls-1" d="M89.62,75.77c-.71-.32-1.42-.58-2.21-.47-.63.09-1.54.39-1.71,1.07-.06.23.07.4.28.49.49.2,1.13-.08,1.62-.21.65-.18,1.27-.46,1.94-.54.15-.02.28-.25.09-.34"/>
      <path class="cls-1" d="M11.58,45.67c-.2-.23-.39-.49-.64-.66-.1-.07-.19-.13-.32-.15-.06-.01-.11-.01-.17,0-.09.04-.12.04-.1-.02-.15-.08-.35.05-.3.23.03.1-.03.2-.03.31,0,.13.07.29.13.41.13.24.34.46.51.68.31.4.69,1.07,1.28,1,.19-.02.33-.11.39-.3.2-.59-.41-1.11-.76-1.5"/>
      <path class="cls-1" d="M50.05,64.48c-.09-.33-.4-.56-.74-.56-.71,0-1.31.49-1.85.89-.36.26-.27.89.24.88.63,0,1.46.06,1.99-.34.27-.21.45-.51.35-.86"/>
      <path class="cls-1" d="M42.07,87.62c-.97-1.06-2.79-1.62-4.17-1.8-.6-.07-1.14.52-1.21,1.06-.08.65.3,1.1.88,1.35,1.19.49,2.99.79,4.23.39.44-.14.57-.66.26-1"/>
      <path class="cls-1" d="M87.92,49.03c-.62-2.88-1.49-5.69-2.64-8.4-1.15-2.73-2.4-5.58-4.25-7.93-.99-1.25-2.96.36-2.18,1.68,1.43,2.4,3.05,4.62,4.21,7.18,1.18,2.58,2.1,5.29,2.74,8.05.65,2.75.83,5.5,1.18,8.29.34,2.79.12,5.66.18,8.47,0,.25.34.28.42.06,1.95-5.49,1.53-11.78.33-17.4"/>
      <path class="cls-14" d="M79.92,55.48c-5.65-5.44-15.76-2.2-17.4,5.41-.17.78-.24,1.57-.22,2.34-.06,1.12.02,2.25.25,3.4.66,3.3,3.65,5.73,6.77,6.57,3.07.83,6.56.4,9.2-1.44,5.27-3.66,6.07-11.78,1.4-16.28"/>
      <path class="cls-3" d="M82.14,60.6c-.65-1.6-1.54-3.08-2.73-4.35-2.19-2.32-5.54-3.74-8.7-2.69-.15.05-.11.25.03.26,2.93.26,5.73,1.63,7.67,3.86.97,1.11,1.7,2.44,2.21,3.82.5,1.34.59,2.82,1.45,3.98.23.31.67.27.8-.1.57-1.56-.13-3.31-.74-4.78"/>
      <path class="cls-2" d="M53.65,164.23c.65.35,1.59,1.08,1.12,1.94-.28.51-.98.68-1.5.77-1.42.25-2.98.12-4.42.1-2.91-.04-5.77-.3-8.66-.52.81-.58,1.55-1.27,2.45-1.75,1.06-.57,2.21-.98,3.39-1.24,1.57-.34,3.39-.45,5.09-.16.91.16,1.77.43,2.55.85"/>
      <path class="cls-2" d="M34.47,166.65s.02,0,.03.01c-2.82.47-5.63.8-8.49.82-1.42,0-2.84-.03-4.26-.16-1.02-.09-3.56-.68-2.12-2.15.36-.36.84-.6,1.37-.75.7-.21,1.47-.27,2.1-.33,1.23-.12,2.47-.11,3.7.01,2.71.28,5.33,1.16,7.67,2.54"/>
      <path class="cls-6" d="M97.53,33.5c2.43,3.91,3.87,8.48,3.84,13.1-.04,4.59-1.57,8.98-3.79,12.96-1.25,2.24-2.73,4.36-4.27,6.41-1.18,1.57-2.47,3.06-3.66,4.62-1.05-.24-2.17-.13-3.17.31,3.39-10.39,2.6-21.97-1.79-31.95-1-2.28-2.18-4.63-3.65-6.7.76-.37,1.5-.78,2.21-1.24.07-.04.02-.18-.06-.14-3.44,1.38-6.72,2.99-10.27,4.1-3.54,1.11-7.16,1.98-10.78,2.75-1.82.39-3.64.75-5.47,1.09-1.91.36-4.1,1.02-6.03.49-1.96-.54-.01-2.04.76-2.51.83-.51,1.66-1.01,2.51-1.48,1.6-.89,3.23-1.72,4.89-2.49,1.89-.87,3.83-1.64,5.79-2.33,1.9-.66,3.94-1.04,5.77-1.88.2-.09.14-.4-.04-.46.1-.09.02-.29-.14-.25-6.1,1.36-12.12,2.98-18.25,4.25-3.06.63-6.13,1.21-9.2,1.73-1.48.25-2.96.49-4.44.72-1.06.16-2.4.46-3.37-.1,3.39-1.23,6.76-2.5,10.14-3.74.45-.17.26-.9-.2-.73-2.98,1.08-6.06,1.89-9.2,2.34-1.68.25-3.38.4-5.08.45-.78.03-1.56.03-2.33.02-.62,0-1.55.06-2.05-.38-1.86-1.64,5.15-5.21,6.32-5.72,2.9-1.27,5.97-2.23,9.04-3.02,3.57-.92,7.2-1.45,10.82-2.12.22-.04.17-.39-.05-.39-1.51.02-3.02.15-4.52.36-.02-.03-.06-.04-.1-.05-1.71-.14-3.49.12-5.2.29-1.69.18-3.38.4-5.06.67-3.47.57-6.87,1.42-10.28,2.27-.62.15-1.24.31-1.86.45-1.12.26-2.24.48-3.38.62-.63.08-1.7.31-2.33.06-1.28-.51-.12-1.87.46-2.44,2.16-2.1,4.87-3.55,7.67-4.59,3.13-1.16,6.4-1.94,9.62-2.81.2-.05.11-.32-.08-.29-6.29.9-13.47,2.49-18.04,7.3-.74.78-1.54,2.13-.67,3.1.87.99,2.71.45,3.81.29.78-.11,1.56-.25,2.33-.42-1.19.85-2.33,1.68-3.37,2.76-1.25,1.29-2.38,2.7-3.38,4.19-1.75,2.59-3.04,5.4-3.97,8.36-.57-.81-1.65-1.22-2.72-1.23.14-2.31.13-4.63.43-6.94.35-2.77.92-5.56,1.87-8.18,2.02-5.59,5.78-10.17,11.14-12.84,3.9-1.94,8.23-2.95,12.59-3.39,1.93,1.51,4.2,2.68,6.56,3.16.2.04.27-.23.08-.3-2.92-1.15-5.55-2.61-7.78-4.85-1.08-1.09-2.03-2.31-2.81-3.63-.29-.49-.96-1.59-.52-2.17.49-.65,2.25.35,2.73.61,2.53,1.39,4.35,3.72,6.6,5.47,1.12.88,2.34,1.54,3.65,2.1,1.57.67,3.1,1.41,4.66,2.08.18.08.38-.13.22-.29-.94-.98-2.37-1.52-3.61-2.04-.26-.11-.53-.22-.79-.34,4.95.25,9.85,1.13,14.59,2.63,3.3,1.05,6.52,2.37,9.6,3.98,1.48.78,2.93,1.6,4.34,2.49.72.46,1.42.96,2.12,1.45-.64-.11-1.28-.19-1.92-.25-.12-.01-.13.16-.03.19,2.18.64,4.38,1.16,6.51,1.95,2.2.81,4.33,1.82,6.33,3.04,3.89,2.38,7.27,5.57,9.68,9.45"/>
      <path class="cls-1" d="M79.52,29.45c-2.16.34-4.28.97-6.4,1.53-2.12.56-4.22,1.19-6.31,1.86-.14.05-.08.25.06.22,2.16-.42,4.3-.88,6.43-1.42,2.12-.54,4.28-1,6.34-1.75.28-.1.17-.49-.12-.44"/>
      <path class="cls-1" d="M74.53,29.13c-2.35.43-4.67,1.08-6.97,1.73-.14.04-.08.25.06.22,2.34-.49,4.69-.99,6.98-1.7.16-.05.1-.29-.07-.26"/>
      <path class="cls-1" d="M69.94,25.99c-3.01-.03-6.03.39-9.01.83-3.09.46-6.08,1.1-9.09,1.93-.14.04-.08.23.06.21,3.03-.42,6.05-.85,9.08-1.27,3-.42,6.04-.69,9.02-1.22.27-.05.2-.47-.06-.47"/>
      <path class="cls-1" d="M69.54,24.28c-3.63.12-7.22.67-10.8,1.27-.15.03-.12.28.04.27,3.62-.21,7.25-.47,10.81-1.17.21-.04.16-.38-.05-.38"/>
      <path class="cls-1" d="M53.46,13.19c-2.9-1.08-5.78-2.17-8.52-3.61-2.65-1.39-5.13-3.08-7.59-4.78-.09-.06-.2.08-.12.15,2.27,2.09,4.85,3.75,7.57,5.19,2.71,1.43,5.57,2.66,8.57,3.34.19.04.26-.22.08-.29"/>
      <path class="cls-1" d="M49.92,16.23c-2.69.15-5.38.51-8.05.83-2.57.3-5.14.61-7.7,1.07-.08.01-.06.15.02.14,2.69-.15,5.37-.46,8.05-.77,2.57-.3,5.16-.56,7.71-1.02.14-.02.11-.26-.03-.25"/>
      <path class="cls-1" d="M51.47,17.4c-2.23-.1-4.47.2-6.66.56-2.27.38-4.64.79-6.79,1.63-.11.04-.07.19.05.17,2.25-.35,4.45-.93,6.7-1.26,2.24-.33,4.5-.49,6.74-.82.17-.02.12-.28-.04-.28"/>
      <path class="cls-1" d="M91.62,41.83c-.03-.13-.25-.1-.24.03.53,3.99,1.11,8.01,2,11.94.03.14.26.11.25-.03-.45-4-1.21-7.99-2.01-11.94"/>
      <path class="cls-1" d="M95.15,50.03c-.4-1.71-.81-3.42-1.21-5.13-.05-.23-.39-.13-.35.1.3,1.67.6,3.35.9,5.02.29,1.64.5,3.4,1.09,4.97.1.26.54.25.52-.07-.09-1.64-.57-3.29-.95-4.89"/>
      <path class="cls-12" d="M99.63,38.37c-.61-1.63-1.37-3.18-2.38-4.61-.49-.69-1.12-1.34-1.55-2.06-.48-.82-.82-1.53-1.49-2.24-2.45-2.6-5.43-4.79-8.66-6.3-1.68-.78-3.41-1.32-5.18-1.86-2.13-.64-3.64-2.06-5.4-3.35-3.28-2.41-6.92-4.39-10.75-5.8-4.33-1.59-8.91-2.53-13.53-2.42-.21,0-.27.35-.05.38,7.95,1.12,15.64,3.5,22.31,8.06,1.62,1.11,3.06,2.54,4.76,3.52,1.63.95,3.56,1.25,5.31,1.9,3.33,1.25,6.43,3.15,9.08,5.52.71.64,1.35,1.35,2.06,1.99.31.28.66.48.99.74.49.39.83.93,1.18,1.44,1.13,1.65,2.15,3.39,3.05,5.17.07.13.29.04.24-.1"/>
      <path class="cls-7" d="M89.74,72.24c-1.31-.51-3.18-.42-4.06.81-.05.08.04.19.12.16,1.25-.4,2.4-.54,3.64.01.58.26,1.11.66,1.48,1.18.29.41.4.89.81,1.21.14.1.39.03.46-.12.63-1.37-1.39-2.82-2.46-3.24"/>
      <path class="cls-7" d="M12.55,41.7c-1.2-.53-2.51-.44-3.52.42-.15.13.01.42.2.34.96-.4,2.05-.29,2.94.25.41.25.81.6,1.06,1.01.24.38.32.78.62,1.12.21.25.56.07.66-.17.51-1.22-.98-2.54-1.96-2.97"/>
      <path class="cls-7" d="M50.39,62.76c-.72-1.23-2.51-.57-3.58-.3-.21.05-.15.34.05.35.61.04,1.15.29,1.72.5.51.19.95.42,1.49.22.31-.12.5-.46.32-.78"/>
      <path class="cls-7" d="M65.46,116.19c-1.85-3.73-4.82-7.16-7.82-10.01-1.49-1.41-3.07-2.71-4.77-3.86-.88-.6-1.8-1.14-2.75-1.64-.45-.24-.9-.47-1.37-.69-.49-.23-1.01-.28-1.51-.49-.11-.04-.16.12-.07.18.44.29.76.69,1.19.99.42.29.84.58,1.26.88.86.63,1.71,1.28,2.54,1.94,1.55,1.23,3.04,2.54,4.44,3.95,1.42,1.42,2.75,2.95,3.95,4.56,1.22,1.64,2.21,3.4,3.29,5.13.64,1.04,2.16.13,1.62-.95"/>
      <path class="cls-7" d="M25.51,94.18c-.88.71-1.58,1.56-2.11,2.56-.6,1.13-1.27,2.23-1.8,3.39-.98,2.13-1.9,4.31-2.67,6.53-1.57,4.55-2.74,9.24-3.45,14-1.42,9.49-1.25,19.15.58,28.57.51,2.62,1.15,5.22,1.92,7.78.4,1.33.84,2.65,1.31,3.96.47,1.29.81,2.82,1.91,3.7.81.65,1.83.21,1.95-.81.13-1.21-.47-2.27-.88-3.39-.41-1.1-.79-2.22-1.14-3.34-.71-2.24-1.32-4.52-1.83-6.82-1-4.52-1.59-9.12-1.79-13.75-.41-9.34.77-18.74,3.48-27.68.74-2.45,1.57-4.89,2.5-7.27.48-1.21.89-2.44,1.42-3.63.54-1.2.93-2.31,1.07-3.62.03-.27-.31-.33-.47-.2"/>
      <path class="cls-7" d="M27,164.93c-.36-.99-2.2-.87-3.07-.92-1.38-.08-3.07-.06-4.24.78-.33.23-.28.7.11.84,1.45.5,3.19.16,4.68.03.21-.02,2.8.05,2.52-.73"/>
      <path class="cls-7" d="M54.5,164.12c-.98-.88-2.76-.74-4-.75-1.65-.01-2.99.16-4.5.79-.26.11-.23.47.07.5,1.43.11,2.81.09,4.25.12.68.01,1.36.06,2.04.13.68.07,1.31.22,1.96-.04.28-.12.47-.49.2-.74"/>
      <path class="cls-16" d="M9.48,125.25c.22.07.39-.18.32-.36.11.02.23.04.35.03.18,0,.32-.26.16-.39-.8-.7-1.5-1.17-1.7-2.3-.14-.73-.04-1.42.09-2.11.23.24.77-.03.63-.39-.11-.31-.25-.59-.4-.87.01-.06.02-.12.03-.19.01-.11-.12-.15-.19-.1-1.26-2.03-3.5-3.36-5.01-5.2-1.73-2.1-2.81-4.73-3.11-7.43-.06-.55-.09-1.11-.08-1.66.04-3.42,1.36-6.52,4.21-8.49,2.36-1.63,5.21-2.43,8.01-2.91,1.34-.23,2.7-.4,4.05-.53.08,1.2.4,2.41.76,3.55.35,1.08.77,2.34,1.42,3.3-1.53.4-3.02.98-4.44,1.63-1.88.87-4.87,2.05-4.88,4.52,0,1.2.52,2.37,1.01,3.44.61,1.33,1.32,2.62,1.95,3.94,1.36,2.86,2.05,5.97,2.15,9.14,0,.1.04.18.1.23-.48,2.82-.81,5.65-.98,8.49-.83.28-1.62.83-2.44,1.07-1.22.36-2.51.47-3.77.22-1.06-.2-2.46-.68-3.17-1.55-.76-.93.18-1.27.9-1.53.38-.14.77-.28,1.16-.4.35.16.69.3,1.03.43.92.35,1.89.59,2.86.72.85.12,1.92.31,2.69-.16.28-.17.19-.55-.09-.65-.58-.23-1.2-.11-1.82-.12-.69-.02-1.38-.1-2.05-.26-.6-.14-1.21-.34-1.79-.59-.69-.29-1.35-.66-1.95-1.1-.58-.42-1.34-1.12-1.29-1.9.05-.81.91-1.07,1.58-1.04,1.33.07,2.45,1.15,3.7,1.54"/>
      <path class="cls-5" d="M25,91.92c.07.02.15.04.22.06-1.12,2.19-2.18,4.42-3.17,6.69-.89.07-1.78.22-2.66.42-.45-1.11-1.05-2.15-1.43-3.31-.38-1.15-.58-2.3-.81-3.48.69-.07,1.38-.12,2.08-.16,1.91-.12,3.86-.25,5.78-.23"/>
      <path class="cls-10" d="M38.92,74.3c1.57.97,2.62,2.48,2.73,4.31-2.22-.21-4.32-1.36-5.8-3.03-.76-.86-1.32-1.84-1.71-2.88,1.65.39,3.3.68,4.78,1.6"/>
      <path class="cls-2" d="M49.27,74.35c.02.46-.79,1.34-1.07,1.65-.43.5-.94.94-1.49,1.3-1.11.74-2.4,1.2-3.73,1.31-.29.02-.58.03-.87.02.16-4.09-4.7-5.89-8.13-6.37-.53-1.64-.64-3.41-.37-5.12,2.33,1.55,4.87,2.81,7.42,3.92,1.31.57,2.64,1.1,3.98,1.58.66.24,1.32.46,1.99.67.45.14,2.23.45,2.26,1.04"/>
      <path class="cls-7" d="M25.32,92.33c-.06,0-.06.09,0,.09s.06-.09,0-.09"/>
      <path class="cls-7" d="M25.1,92.18c-1.07-.51-2.3-.38-3.46-.34-1.34.05-2.68.15-4.02.31-2.54.31-5.06.79-7.52,1.48-3.23.9-7.86,2.76-8.54,6.52-.03.19.2.3.32.13,1.03-1.54,2.19-2.81,3.83-3.72,1.68-.93,3.57-1.5,5.42-1.98,2.31-.6,4.67-1.02,7.04-1.27,1.15-.12,2.31-.2,3.47-.25,1.11-.04,2.33.12,3.38-.32.22-.09.35-.45.08-.58"/>
      <path class="cls-1" d="M15.36,121.82c-.05-.66-.89-.76-1.12-.15-.58,1.5-.63,3.35-.87,4.93-.12.8-.24,1.59-.36,2.39-.1.64-.23,1.11.03,1.72.14.32.67.37.89.11.44-.53.44-1.14.53-1.82.12-.8.23-1.6.34-2.4.22-1.53.68-3.25.55-4.8"/>
      <path class="cls-2" d="M49.64,73.48c-.49-.38-1.21-.45-1.78-.62-.95-.27-1.89-.6-2.83-.93-3.97-1.41-7.64-3.32-11.33-5.31.02-.1.04-.19.06-.28.11-.51-.67-.73-.78-.22-.69,3.07-.28,6.41,1.53,9.03,1.63,2.38,4.31,4.04,7.2,4.27,2.81.22,5.7-1.06,7.4-3.3.53-.7,1.47-1.91.53-2.64M48.21,76c-.44.5-.94.94-1.49,1.31-1.11.73-2.4,1.2-3.73,1.31-2.7.22-5.36-1.04-7.13-3.04-2.03-2.29-2.7-5.46-2.24-8.44,2.33,1.54,4.87,2.81,7.43,3.92,1.31.57,2.64,1.1,3.98,1.58.66.24,1.32.46,1.99.67.45.14,2.23.45,2.26,1.04.02.46-.79,1.34-1.07,1.65"/>
      <path class="cls-2" d="M33.46,72.2c-.18-.02-.22.27-.04.32,1.88.5,3.8.73,5.5,1.78,1.65,1.02,2.73,2.64,2.74,4.6,0,.29.42.28.44,0,.4-4.49-5.14-6.33-8.64-6.69"/>
      <path class="cls-15" d="M37.34,50.53c-.7-2.2-2.17-4.15-4.25-5.22-2.15-1.11-4.68-1.23-6.98-.54-2.07.62-4.84,2.09-5.46,4.34-.11.39.36.81.73.56.81-.56,1.45-1.32,2.24-1.91.84-.63,1.78-1.12,2.79-1.44,1.91-.6,4.1-.6,5.92.31,1.72.86,3.08,2.46,3.74,4.26.32.87.5,1.8.49,2.74,0,.98-.35,1.88-.43,2.84-.02.28.34.39.52.22,1.51-1.42,1.26-4.38.69-6.15"/>
      <path class="cls-15" d="M33.97,46.36c-1.53-1.53-3.26-2.38-5.42-2.68-1.95-.27-4.15-.1-5.83,1.01-.21.14-.08.48.17.41,1.9-.5,3.76-.94,5.74-.65,1.8.26,3.73,1.01,5.23,2.05.09.06.19-.07.11-.15"/>
      <path class="cls-2" d="M22.53,98.63c-2.76.12-5.47,1.03-7.96,2.18-1.88.87-4.87,2.05-4.88,4.52,0,1.2.52,2.37,1.01,3.44.61,1.33,1.32,2.62,1.95,3.94,1.37,2.86,2.05,5.98,2.15,9.14.01.42.66.42.65,0-.08-2.55-.56-5.08-1.46-7.48-.92-2.43-2.38-4.63-3.17-7.11-.45-1.39-.65-2.74.57-3.81,1.01-.87,2.34-1.47,3.54-2.03,2.46-1.15,5.04-1.85,7.61-2.66.08-.02.07-.14-.02-.14"/>
      <path class="cls-2" d="M13.09,128.72c-.58-.22-1.2-.11-1.82-.12-.69-.02-1.38-.1-2.05-.26-1.32-.31-2.64-.88-3.74-1.68-.58-.42-1.34-1.12-1.29-1.9.05-.81.91-1.07,1.58-1.04,1.33.07,2.44,1.15,3.7,1.54.28.09.48-.35.21-.49-1.5-.73-2.79-2.18-4.61-1.85-1.37.24-2.14,1.54-1.54,2.84.71,1.56,2.58,2.48,4.1,3.05.92.35,1.89.59,2.86.72.85.12,1.92.31,2.69-.16.28-.17.19-.55-.08-.65"/>
      <path class="cls-2" d="M14.25,130.48c-.94.22-1.84.89-2.76,1.16-1.23.36-2.51.47-3.77.22-1.06-.2-2.46-.68-3.17-1.55-.76-.93.18-1.27.9-1.53.59-.22,1.19-.43,1.8-.59.05-.01.03-.08-.01-.08-1.03-.06-3.13.04-3.66,1.18-.52,1.12,1.42,2.21,2.2,2.58,1.46.7,3.07.88,4.67.66,1.04-.14,2.66-.43,3.71-1.12.03-.31.06-.63.1-.94"/>
      <path class="cls-2" d="M10.32,124.52c-.8-.7-1.5-1.17-1.71-2.3-.23-1.23.2-2.37.34-3.57.02-.13-.18-.17-.24-.06-.64,1.21-1.07,2.86-.69,4.21.26.94,1.02,2.16,2.13,2.11.18,0,.32-.25.16-.39"/>
      <path class="cls-2" d="M25.98,91.86c-2.14-.17-4.23-.38-6.38-.3-2.03.07-4.05.26-6.06.56-2.99.45-6.04,1.2-8.62,2.82-2.65,1.67-4.3,4.2-4.75,7.3-.46,3.14.15,6.43,1.63,9.23.83,1.57,1.95,2.91,3.25,4.12,1.42,1.33,2.81,2.59,3.6,4.41.17.39.85.11.7-.3-1-2.73-3.8-4.19-5.58-6.36-2.08-2.53-3.23-5.82-3.19-9.09.04-3.42,1.36-6.52,4.21-8.49,2.36-1.63,5.21-2.43,8.01-2.92,2.12-.36,4.28-.58,6.43-.72,2.23-.14,4.53-.3,6.76-.2.05,0,.05-.08,0-.08"/>
      <path class="cls-15" d="M76.83,60.84c-.84-1.85-2.49-3.26-4.38-3.96-4.07-1.5-8.43,1.17-9.55,5.23-.61,2.21-.1,4.58,1.27,6.41,1.17,1.57,3.1,3.08,5.13,2.99.93.23,1.88.31,2.77.18,2.31-.32,3.81-2.16,4.63-4.21.84-2.1,1.07-4.54.13-6.64"/>
      <path class="cls-2" d="M84.14,47.92c-.48-2.76-3.91-4.45-6.47-3.86-.1.02-.07.17.02.18,1.25.08,2.49.46,3.55,1.13,1.1.69,1.74,1.69,2.46,2.74.16.23.49.08.44-.18"/>
      <path class="cls-2" d="M39.69,31.12c-.92-2.6-4.66-1.49-6.46-.84-.13.05-.08.24.06.21,1.21-.25,2.44-.49,3.67-.24.91.19,1.53.71,2.28,1.22.21.15.54-.1.45-.35"/>
      <path class="cls-15" d="M83.69,59.7c-.6-2.33-2.03-4.41-3.92-5.88-1.78-1.39-4.36-2.28-6.64-1.99-1.27.16-2.58.46-3.75.96-1.15.48-1.89,1.11-2.78,1.95-.02.02,0,.05.03.04,3.72-2.65,8.73-2.35,12.15.62,1.52,1.32,2.58,3.05,3.01,5.01.26,1.19.3,2.48.29,3.7,0,1.17-.55,2.43-.31,3.57.08.39.63.52.9.24.88-.94,1-2.69,1.22-3.91.25-1.44.17-2.89-.2-4.3"/>
      <path class="cls-2" d="M50.63,63.45c-.82-1.89-3.2-1.74-4.8-1.14-.34.13-.21.66.15.56,1.17-.31,2.65-.62,3.61.35.44.45.59,1.06.24,1.6-.28.42-.71.44-1.09.68-.2.12-.17.37,0,.5.53.41,1.27-.01,1.64-.47.46-.58.54-1.41.25-2.07"/>
      <path class="cls-2" d="M47.62,60.25c-.4.35-.84.62-1.2,1.02-.26.3-.68.68-.66,1.1,0,.17.15.26.31.23.41-.08.69-.58.91-.9.31-.44.46-.92.71-1.4.03-.05-.03-.09-.07-.06"/>
      <path class="cls-2" d="M73.38,73.51c-3.36-.22-6.39-.9-9.15-2.93-.13-.1-.3.12-.18.23,2.55,2.06,6.05,3.45,9.36,2.94.14-.02.1-.23-.03-.24"/>
      <path class="cls-2" d="M45.77,14.19c-3.07-1-6.3-1.31-9.52-1.21-3.1.1-6.3.55-9.14,1.86-.24.11-.07.47.17.41,3.03-.71,6.01-1.46,9.14-1.6,3.11-.14,6.2.27,9.25.9.23.05.33-.28.1-.36"/>
      <path class="cls-2" d="M25.39,25.56c-1.43,1.03-2.81,1.96-4.04,3.23-1.25,1.29-2.37,2.7-3.38,4.19-1.75,2.59-3.04,5.4-3.97,8.36-.79-1.12-2.55-1.47-3.93-1.07-2.06.59-3.65,2.28-4.38,4.26-.74,2.02-.42,4.26.85,5.99,1.17,1.59,3.3,3.01,5.35,2.86,0-.37.02-.74.06-1.1-1.56-.24-2.89-.62-4.03-1.81-1.15-1.19-1.75-2.84-1.5-4.49.23-1.53,1.09-2.99,2.35-3.91,1.32-.96,4.81-1.76,4.77.88,0,.48.74.59.84.11.75-3.41,2.2-6.67,4.11-9.6.95-1.46,2.02-2.83,3.21-4.1,1.18-1.27,2.4-2.64,3.76-3.71.06-.04-.02-.14-.08-.1"/>
      <path class="cls-2" d="M91.77,71.72c-1.43-1.35-3.56-1.59-5.31-.83,3.39-10.39,2.6-21.97-1.78-31.95-1.02-2.33-2.23-4.74-3.75-6.84-.12.05-.25.1-.37.15,1.17,1.88,2.33,3.74,3.27,5.77,1.19,2.57,2.12,5.26,2.78,8.02,1.31,5.39,1.68,11.07.92,16.57-.43,3.12-1.21,6.16-2.28,9.12-.12.34.34.72.64.49,1.58-1.18,3.9-1.25,5.33.22,1.66,1.7,1.28,4.03-.14,5.73-1.27,1.52-3.1,2.81-5.13,2.95-1.84.12-3.65-.79-4.42-2.49-.25.29-.51.56-.79.81,1.04,1.95,3.34,2.94,5.51,2.7,2.51-.28,4.83-2.01,6.19-4.09,1.31-1.99,1.09-4.69-.67-6.36"/>
      <path class="cls-2" d="M82,76.69c-2.99,4.96-7.87,8.62-13.28,10.59-6.32,2.3-13.22,2.36-19.78,1.16-12.1-2.2-24.82-7.91-31.79-18.49-3.77-5.73-5.69-12.51-4.8-19.37.03-.21-.33-.26-.37-.05-1.14,6.11.31,12.26,3.18,17.7,2.96,5.6,7.71,10.11,13.05,13.41,5.62,3.48,11.95,5.76,18.4,7.13,6.8,1.45,14.06,1.81,20.79-.18,6.3-1.86,12.06-5.69,15.43-11.4.32-.54-.52-1.03-.84-.49"/>
      <path class="cls-2" d="M36.79,8.1c-3.7.45-7.36,1.32-10.72,2.73-5.5,2.31-9.76,6.38-12.23,11.81-1.32,2.9-2.2,5.99-2.69,9.13-.45,2.86-.83,5.95-.6,8.87.23-.05.47-.08.71-.06.17-2.47.14-4.94.46-7.41.35-2.77.92-5.56,1.87-8.19,2.02-5.59,5.78-10.17,11.14-12.84,3.97-1.98,8.4-2.99,12.85-3.42-.28-.19-.53-.4-.77-.63"/>
      <path class="cls-2" d="M71.64,15.05c-2.71-1.53-5.55-2.84-8.47-3.9-5.91-2.15-12.22-3.31-18.51-3.44-.08,0-.15,0-.23,0,.44.28.89.55,1.35.81,5.13.22,10.21,1.1,15.11,2.65,3.31,1.05,6.52,2.37,9.6,3.98,1.48.78,2.94,1.6,4.34,2.5.88.56,1.72,1.17,2.56,1.76.31.02.61.05.92.11-2.01-1.74-4.39-3.2-6.67-4.48"/>
      <path class="cls-2" d="M50.7,10.92c-.94-.98-2.37-1.52-3.6-2.04-1.45-.61-2.86-1.25-4.12-2.2-2.14-1.61-3.86-3.72-6.08-5.23-1.12-.76-4.91-2.83-4.92-.03,0,1.14.75,2.18,1.36,3.08.74,1.08,1.58,2.08,2.52,2.99,2.18,2.1,5.02,3.82,8.02,4.42.2.04.27-.23.08-.3-2.92-1.15-5.55-2.61-7.78-4.85-1.09-1.09-2.03-2.31-2.81-3.63-.29-.49-.96-1.59-.52-2.17.49-.65,2.25.35,2.72.6,2.53,1.39,4.35,3.72,6.61,5.47,1.12.88,2.34,1.54,3.65,2.1,1.56.67,3.1,1.41,4.66,2.08.18.08.38-.13.22-.29"/>
      <path class="cls-2" d="M89.58,24.51c-4.2-2.87-9.44-5.22-14.55-5.65-.11-.01-.13.16-.02.19,2.17.64,4.38,1.16,6.51,1.95,2.2.81,4.33,1.82,6.33,3.05,3.89,2.38,7.27,5.57,9.68,9.45,2.43,3.91,3.87,8.47,3.84,13.1-.04,4.59-1.57,8.98-3.79,12.96-1.25,2.24-2.73,4.36-4.27,6.41-1.3,1.73-2.74,3.36-4.03,5.11.27.02.54.08.79.17,1.24-1.39,2.37-2.9,3.48-4.38,1.49-1.98,2.87-4.01,4.1-6.15,2.29-3.99,3.99-8.39,4.26-13.02.53-9.31-4.79-18.03-12.32-23.17"/>
      <path class="cls-2" d="M28.47,63.07c-1.89-1.25-4-2.32-6.13-3.07-.1-.04-.17.12-.07.17,2.03,1.03,4.08,2.04,6.14,3.02.08.04.15-.07.07-.12"/>
      <path class="cls-2" d="M27.88,63.66c-1.81-.99-3.79-2.03-5.78-2.6-.04-.01-.07.05-.03.07,1.74,1.11,3.83,1.92,5.77,2.62.05.02.09-.06.04-.09"/>
      <path class="cls-2" d="M27.03,64.5c-1.46-.92-3.07-1.6-4.72-2.12-.07-.02-.11.09-.05.11,1.58.67,3.12,1.42,4.69,2.13.09.04.16-.08.08-.13"/>
      <path class="cls-2" d="M71.43,77.49c-1.1-.65-2.43-1.04-3.62-1.5-1.32-.5-2.65-.99-3.98-1.49-.1-.04-.14.12-.04.16,1.25.52,2.51,1.05,3.76,1.57,1.22.51,2.51,1.15,3.8,1.45.11.02.18-.13.08-.19"/>
      <path class="cls-2" d="M69.12,77.52c-.92-.65-2.12-1.02-3.14-1.48-.95-.42-1.91-.9-2.92-1.17-.09-.02-.13.09-.06.14.96.63,2.06,1.06,3.11,1.53.94.42,1.9,1,2.9,1.23.16.04.24-.17.11-.26"/>
      <path class="cls-2" d="M68.24,78.13c-1.69-.92-3.7-1.39-5.53-1.97-.11-.04-.15.13-.05.17,1.76.72,3.61,1.63,5.49,2,.12.02.21-.14.09-.21"/>
      <path class="cls-2" d="M34.9,94.2c.24-1.06.46-2.13.7-3.18.25-1.09.52-2.18.76-3.27.15-.68.43-1.44.48-2.17-.23-.08-.45-.16-.68-.25-.32.73-.39,1.66-.56,2.41-.26,1.15-.5,2.31-.75,3.47-.19.91-.41,1.82-.62,2.74.23.07.45.15.67.25"/>
      <path class="cls-2" d="M42.07,87.32c-.46.8-.67,1.76-.93,2.65-.31,1.05-.58,2.1-.84,3.16-.19.78-.37,1.57-.54,2.37.19.07.38.14.57.22.19-.81.37-1.62.59-2.42.25-.94.52-1.87.8-2.79.3-.96.74-1.96.88-2.96.04-.31-.36-.54-.54-.23"/>
      <path class="cls-2" d="M66.47,117.03c-.3-1.41-1.28-2.76-2.04-3.96-.8-1.26-1.68-2.48-2.62-3.64-1.94-2.39-4.15-4.53-6.6-6.39-5.5-4.18-12.12-6.79-18.68-8.79-3.76-1.14-7.72-2.28-11.65-2.52-.08,0-.1.12-.02.14,3.31.88,6.69,1.44,9.99,2.39,3.36.96,6.7,2.11,9.91,3.51,5.96,2.62,11.4,6.08,15.71,11.01,1.16,1.32,2.22,2.73,3.19,4.2.88,1.35,1.52,2.97,2.55,4.2.11.13.3-.01.27-.16"/>
      <path class="cls-2" d="M25.37,91.68c-9.11,17.68-14.31,38.06-10.09,57.86.56,2.65,1.29,5.26,2.2,7.81.82,2.29,1.67,4.91,3.06,6.96.04,0,.09,0,.13-.01.03,0,.05,0,.07,0,.01,0,.03,0,.05-.01.06-.01.11-.03.16-.04-.75-2.12-1.88-4.12-2.67-6.24-.82-2.22-1.51-4.49-2.08-6.79-1.16-4.76-1.77-9.65-1.88-14.54-.22-9.85,1.61-19.64,4.72-28.96,1.82-5.44,4.08-10.72,6.62-15.86.1-.2-.2-.38-.3-.18"/>
      <path class="cls-2" d="M50.4,157.37c.23,1.94.38,3.91.73,5.83.24.01.48.04.72.07-.22-3.73-.89-7.48-1.29-11.2-.41-3.72-.78-7.45-1.16-11.17-.76-7.52-1.34-15.04-1.79-22.58-.25-4.3-.31-8.64-.71-12.92-.02-.2-.32-.21-.33,0-.06,3.79.24,7.62.45,11.4.21,3.8.45,7.6.72,11.39.55,7.59,1.12,15.17,1.93,22.74.23,2.14.47,4.29.72,6.43"/>
      <path class="cls-2" d="M56.68,116.07c-.72-1.01-1.91-1.73-2.8-2.61-.92-.92-1.82-1.87-2.68-2.85-1.83-2.07-3.47-4.29-5.09-6.53-.1-.14-.34-.02-.24.14,1.38,2.3,3.01,4.45,4.74,6.49.88,1.04,1.8,2.05,2.75,3.02.88.9,1.77,2.16,2.87,2.77.26.15.64-.17.44-.44"/>
      <path class="cls-2" d="M66.54,116.2c-.05-.22-.36-.16-.37.05-.07,1.58-.38,2.94-1.26,4.28-.83,1.27-1.93,2.35-3.09,3.32-1.29,1.08-2.67,2.08-4.07,3.02-1.36.91-2.92,1.57-4.24,2.52-.4.29-.06.85.38.65,1.68-.72,3.24-2.02,4.74-3.07,1.44-1,2.88-2.05,4.18-3.23,2.02-1.82,4.36-4.62,3.73-7.56"/>
      <path class="cls-2" d="M56.3,134.31c-.54-2.04-1.72-4.31-3.3-5.73-.15-.14-.41.04-.29.22.56.87,1.17,1.69,1.65,2.61.52,1,.81,2.05,1.11,3.13.15.53.97.31.83-.23"/>
      <path class="cls-2" d="M60.09,131.38c-1.57-1.32-3.47.21-4.44,1.46-.13.17.07.38.24.24.53-.46,1.1-1,1.73-1.31.82-.4,2.09-.39,2.42.66.43,1.39-.77,2.9-1.92,3.5-1.18.63-2.58.54-3.68-.22-.48-.33-.89-.77-1.18-1.28-.26-.45-.34-.9-.68-1.3-.12-.14-.33-.05-.38.1-.53,1.48,1.43,3.13,2.62,3.6,1.69.67,3.62.15,4.84-1.16,1-1.07,1.77-3.16.43-4.29"/>
      <path class="cls-2" d="M55.83,136.78c-.58-.17-1.22.08-1.83.03-.82-.06-1.67-.31-2.39-.71-.69-.38-1.29-.88-1.78-1.49-.48-.6-.71-1.3-1.1-1.95-.04-.07-.14-.04-.14.04-.08,1.6,1.45,3.15,2.72,3.92.74.45,1.54.75,2.4.86.68.09,1.71.19,2.23-.33.12-.12.06-.33-.1-.38"/>
      <path class="cls-2" d="M54.79,131.23c-.03.09.09.15.16.09.72-.67,1.4-1.33,2.47-1.24,1.12.1,1.55.87,2.21,1.62.08.1.29.02.27-.11-.28-2.37-4.41-2.58-5.11-.36"/>
      <path class="cls-2" d="M57.58,115.77c-1.04-.14-2.28.71-3.13,1.23-1.02.61-1.97,1.32-2.84,2.13-1.79,1.65-3.2,3.77-3.94,6.09-.03.1.12.16.17.07,1.11-2.07,2.47-3.93,4.2-5.53.86-.79,1.8-1.49,2.81-2.08.5-.29,1.01-.56,1.54-.79.47-.21.95-.33,1.3-.72.1-.11.08-.36-.1-.39"/>
      <path class="cls-2" d="M55.03,103.77c-.64,1.15-1.44,2.18-2.42,3.05-.93.83-2.06,1.28-3.02,2.03-.1.08.01.21.11.2,1.17-.18,2.37-1.13,3.25-1.89,1.03-.88,1.88-1.94,2.55-3.11.18-.31-.3-.59-.48-.28"/>
      <path class="cls-2" d="M47.86,126.74c-5.28-2.07-10.69-3.81-16.18-5.22-2.69-.69-5.4-1.3-8.12-1.85-1.42-.29-2.84-.55-4.27-.8-.71-.12-1.43-.24-2.14-.35-.52-.08-.98-.21-1.5-.08-.04.01-.05.07-.01.09.52.33,1.16.34,1.76.44.71.12,1.42.25,2.14.38,1.3.24,2.6.51,3.9.78,2.77.59,5.52,1.27,8.26,2.03,5.41,1.49,10.73,3.28,15.97,5.3.46.18.65-.56.2-.73"/>
      <path class="cls-2" d="M33.36,137.95c-1.52.03-3.01,0-4.54-.28-.92-.17-1.83-.42-2.72-.74-.98-.35-1.9-.86-2.92-1.11-.17-.04-.31.17-.17.3,1.43,1.4,3.87,1.95,5.78,2.28,1.51.26,3.15.38,4.7.17-.04-.21-.09-.42-.13-.63"/>
      <path class="cls-2" d="M39.15,163.46c-.3-1.29-.6-2.57-.91-3.86-.6-2.51-1.17-5.02-1.72-7.54-1.12-5.08-1.94-10.29-3.36-15.29-.03-.12-.24-.1-.22.03.6,5.11,1.91,10.2,2.99,15.22.54,2.52,1.09,5.04,1.63,7.56.28,1.29.56,2.58.86,3.87.27,1.19.39,2.63,1.02,3.68.11.19.37.1.39-.1.09-1.17-.42-2.45-.68-3.59"/>
      <path class="cls-2" d="M35.44,166.64c-.97-4.73-2.39-9.36-3.24-14.13-.41-2.32-.77-4.64-1.09-6.98-.33-2.44-.48-4.93-.93-7.36-.02-.11-.18-.08-.19.02-.04,2.46.33,4.96.63,7.4.28,2.3.61,4.59.99,6.88.8,4.79,1.48,9.76,2.97,14.39.17.54.97.32.85-.24"/>
      <path class="cls-2" d="M35.02,167.03s-.01.02,0,.02.01-.02,0-.02"/>
      <path class="cls-2" d="M34.99,166.59c.2-.19.24-.55-.06-.73-2.77-1.63-5.89-2.57-9.1-2.7-1.59-.07-3.29.01-4.84.42-.95.25-2.06.77-2.45,1.73-1.22,2.94,3.95,2.91,5.43,2.96,3.72.12,7.52-.15,11.15-.98.43-.1.27-.7-.12-.69M21.75,167.32c-1.02-.09-3.56-.68-2.12-2.15.84-.85,2.36-.97,3.47-1.07,1.23-.12,2.47-.11,3.7.01,2.71.28,5.33,1.16,7.67,2.54.01,0,.02,0,.03.01-2.82.47-5.63.8-8.49.82-1.42,0-2.84-.03-4.26-.16"/>
      <path class="cls-2" d="M52.82,162.95c-2.22-.7-4.62-.77-6.9-.29-1.3.27-2.57.73-3.74,1.36-1.07.57-2.42,1.35-3.07,2.41-.19.3.18.66.48.48,0,0,.01,0,.02-.01,2.88.63,5.92.89,8.86.99,1.5.05,3.05.14,4.55-.02.85-.09,1.81-.32,2.36-1.03,1.46-1.84-1.04-3.41-2.55-3.88M54.76,166.16c-.28.51-.97.68-1.5.78-1.42.25-2.99.12-4.42.1-2.91-.04-5.77-.3-8.66-.52.81-.58,1.55-1.27,2.45-1.75,1.07-.57,2.21-.98,3.39-1.24,2.41-.53,5.41-.5,7.64.69.65.35,1.59,1.08,1.11,1.94"/>
      <path class="cls-13" d="M71.14,59.5c-3.19-.71-6.26,2.29-5.6,5.49.32,1.59,1.54,2.93,3.1,3.31,1.93.8,4.36-.06,5.53-1.89,1.68-2.62-.08-6.26-3.03-6.92"/>
      <path class="cls-7" d="M73.25,57.63c-.12-.43-.34-.81-.66-1.13-.17-.13-.35-.27-.52-.4-.4-.23-.83-.35-1.29-.35-.35-.01-.68.06-.99.22-.32.1-.59.28-.82.53-.25.23-.43.51-.53.82-.16.3-.23.63-.22.98.03.23.06.45.09.68.12.43.34.81.66,1.13.17.13.35.27.52.4.4.23.83.35,1.29.35.35.01.68-.06.99-.22.32-.1.59-.28.82-.53.25-.23.43-.51.53-.82.16-.3.23-.63.22-.99-.03-.23-.06-.45-.09-.68"/>
      <path class="cls-7" d="M74.82,58.2c-1.63,0-1.64,2.54,0,2.54s1.64-2.54,0-2.54"/>
      <path class="cls-7" d="M69.05,68.16c-1.43,0-1.43,2.23,0,2.23s1.43-2.23,0-2.23"/>
      <path class="cls-2" d="M19.46,99.25c-.46-1.18-1.1-2.26-1.5-3.48-.4-1.21-.6-2.45-.86-3.69-.03-.15-.28-.12-.27.04.06,1.27.39,2.55.77,3.75.37,1.16.83,2.52,1.56,3.51.1.13.37.06.3-.12"/>
      <path class="cls-2" d="M38.52,41.01c-1.43-2.08-4.46-3.86-7.06-3.52-.24.03-.32.37-.06.44,1.25.36,2.5.52,3.69,1.09,1.16.55,2.24,1.34,3.23,2.15.1.08.29-.03.2-.15"/>
      <path class="cls-9" d="M43.23,109.43c.43,5.18-3.43,9.72-8.61,10.15-5.18.42-9.72-3.43-10.15-8.61-.43-5.18,3.43-9.72,8.6-10.15,5.18-.43,9.72,3.43,10.15,8.61"/>
      <path class="cls-2" d="M35.49,109.2s-.05,0-.07,0c-.24-.04-.41-.27-.37-.51.2-1.25,1.19-2.24,2.58-2.59,1.39-.35,2.73.05,3.5,1.05.15.2.11.48-.08.62-.19.15-.47.11-.62-.08-.66-.85-1.76-.94-2.57-.73-.81.21-1.74.81-1.92,1.87-.04.22-.22.37-.44.37"/>
      <path class="cls-7" d="M33.44,107.64c.15,1.88-1.24,3.53-3.12,3.68s-3.53-1.24-3.68-3.12c-.15-1.88,1.24-3.53,3.12-3.68,1.88-.15,3.53,1.24,3.68,3.12"/>
      <path class="cls-2" d="M31.82,108.18c.06.72-.48,1.35-1.19,1.41s-1.35-.48-1.41-1.2c-.06-.72.47-1.35,1.19-1.41.72-.06,1.35.48,1.41,1.2"/>
      <path class="cls-2" d="M30.57,112.98c-.3.06-.46.37-.36.66.73,2.08,2.92,3.34,5.13,2.87,2.21-.48,3.69-2.52,3.5-4.72-.03-.3-.31-.52-.6-.45l-7.67,1.65Z"/>
      <path class="cls-7" d="M34.74,113.8c1.73-.37,3.09-1.36,3.61-2.48-.04,0-.08,0-.12.01l-7.66,1.65s-.09.03-.13.05c.94.81,2.57,1.14,4.3.77"/>
      <path class="cls-11" d="M32.91,116.34c.75.27,1.59.34,2.43.16,1.07-.23,1.97-.83,2.59-1.64-.72-.37-1.62-.51-2.53-.31-1.13.24-2.02.93-2.49,1.79"/>
      <path class="cls-8" d="M51.42,12.99c-2.2-2.56-5.12-3.5-8.11-4.88-1.32-.61-2.62-1.3-3.76-2.21-1.23-.98-1.89-2.2-2.83-3.41-.93-1.2-2.97-.58-2.57,1.08.7,2.91,3.99,5.03,6.52,6.24,3.37,1.6,6.97,2.5,10.51,3.58.25.07.38-.23.24-.41"/>
      <path class="cls-8" d="M52.83,17.95c-1.44-1.49-4.3-1.41-6.22-1.41-2.58,0-5.19.29-7.75.64-2.54.35-5.04.86-7.51,1.52-2.37.64-5.33,1.18-7.25,2.77-1.05.87-.18,2.69,1.1,2.65,2.36-.07,4.81-1.38,7.1-1.99,2.35-.63,4.75-1.13,7.15-1.52,2.49-.41,4.99-.58,7.51-.77,1.85-.14,4.39-.03,5.87-1.29.18-.15.15-.44,0-.59"/>
      <path class="cls-8" d="M81.35,26.92c-4.46.2-8.75,1.82-12.9,3.33-4.17,1.52-8.71,2.94-12.58,5.14-.45.26-.84.83-.79,1.37.04.49.11.78.47,1.12.38.37,1.03.61,1.55.41,4.21-1.63,8.19-3.87,12.41-5.51,4.04-1.58,8.31-2.77,12.1-4.93.42-.24.25-.96-.25-.93"/>
      <path class="cls-8" d="M70.1,26.94c-2.46.21-4.88.51-7.31.93-2.38.42-4.91.73-7.06,1.9-.58.32-.28,1.14.32,1.17,2.33.13,4.67-.58,6.92-1.07,2.44-.53,4.87-1.1,7.3-1.7.67-.17.55-1.3-.17-1.24"/>
      <path class="cls-8" d="M70.35,22.99c-6.48-.33-12.72-.02-19.14.92-3.19.47-6.39.88-9.57,1.39-1.65.27-3.29.58-4.93.92-1.42.3-2.85.46-3.9,1.54-.63.65-.35,1.79.54,2.03,1.46.39,2.76-.17,4.19-.58,1.37-.4,2.75-.78,4.13-1.14,3.19-.84,6.34-1.59,9.61-2.04,6.3-.86,12.73-1.46,19.07-1.87.75-.05.75-1.13,0-1.16"/>
      <path class="cls-8" d="M99.72,47.13c-.18-3.29-.89-6.43-2.59-9.3-1.23-2.07-4.01-6.22-6.86-5.44-.37.1-.7.49-.68.89.09,1.37,1,2.14,1.93,3.05,1,.99,1.86,2.05,2.63,3.24,1.61,2.47,2.89,5.45,3,8.43.13,3.39-.79,6.75-2.07,9.86-1.25,3.01-3.02,5.91-3.74,9.11-.04.19.18.32.32.19,2.71-2.39,4.53-5.84,5.91-9.13,1.45-3.45,2.35-7.12,2.14-10.89"/>
      <path class="cls-12" d="M73.89,32.65c-2.12-.51-4.78.3-6.92.64-.66.11-3.72.99-3.77-.21-.02-.57,2.75-2.7,3.12-2.93.51-.32.53-1.07,0-1.39-2.49-1.47-6.26-1.51-9.1-1.65-1.46-.08-2.93-.1-4.39-.14-1.67-.05-3.6.19-5.24-.16-1.05-.23-2.51-.85-2.29-2.28.09-.6.63-1.2.74-1.83.17-.94-.11-1.83-.66-2.59-1.3-1.8-4.55-2.39-6.57-2.76-.51-.09-.81.44-.49.84.76.94,1.9,1.15,3,1.55.8.3,2.31.89,2.58,1.85.21.74-.33,1.7-.49,2.42-.45,2.05,1.25,3.81,3.09,4.37,2.88.87,6.28.26,9.26.62,1.85.22,3.68.52,5.52.77.97.14,1.96.38,2.95.48-.78.87-1.61,1.7-2.27,2.68-.13.2-.05.43.08.6,1,1.29,2.92,1.39,4.43,1.5,2.18.15,5.71.18,7.57-1.13.45-.32.45-1.1-.16-1.24"/>
      <path class="cls-2" d="M83.17,30.87c-3.44,1.38-6.72,2.99-10.27,4.1-3.54,1.11-7.16,1.97-10.78,2.75-1.82.39-3.64.75-5.47,1.09-1.91.36-4.1,1.02-6.03.49-1.96-.54-.01-2.03.76-2.51.83-.51,1.66-1.01,2.51-1.48,1.6-.89,3.23-1.73,4.89-2.49,1.89-.87,3.83-1.64,5.79-2.33,1.9-.66,3.94-1.04,5.77-1.88.23-.1.12-.49-.13-.47-2,.13-3.97.95-5.85,1.61-1.92.67-3.81,1.43-5.66,2.27-1.93.87-3.81,1.84-5.65,2.89-1.24.71-3.57,1.63-3.98,3.19-.93,3.53,7.25,1.41,8.6,1.15,4.16-.8,8.3-1.7,12.37-2.89,2.32-.68,4.63-1.49,6.89-2.37,2.15-.84,4.36-1.71,6.3-2.97.07-.05.03-.17-.06-.14"/>
      <path class="cls-2" d="M70.17,27.9c-6.1,1.36-12.12,2.98-18.25,4.24-3.06.63-6.13,1.21-9.21,1.73-1.48.25-2.96.49-4.44.72-1.06.16-2.4.45-3.37-.1,3.39-1.23,6.76-2.5,10.14-3.74.45-.17.26-.9-.2-.73-2.98,1.08-6.06,1.89-9.2,2.34-1.68.24-3.38.39-5.08.45-.78.03-1.55.03-2.33.02-.62-.01-1.55.05-2.05-.38-1.86-1.64,5.15-5.21,6.32-5.72,2.9-1.27,5.97-2.23,9.04-3.02,3.57-.92,7.2-1.45,10.82-2.12.22-.04.17-.39-.05-.39-3.72.04-7.4.78-10.99,1.7-3.44.89-6.91,1.97-10.13,3.5-1.48.71-2.9,1.55-4.16,2.6-.87.73-2.29,1.86-2.01,3.17.22,1.05,1.38,1.38,2.31,1.46,1.77.14,3.61,0,5.37-.16,1.31-.12,2.61-.29,3.91-.51-.89.32-1.78.64-2.67.97-.31.11-.4.46-.19.71,1.59,1.87,4.94.71,6.94.38,3.32-.56,6.64-1.18,9.94-1.86,6.57-1.35,13.24-2.82,19.59-4.98.18-.06.11-.33-.08-.29"/>
      <path class="cls-2" d="M47.71,21.52c-1.71-.14-3.5.12-5.2.29-1.69.17-3.38.39-5.06.67-3.47.57-6.87,1.42-10.28,2.27-1.73.43-3.47.84-5.23,1.07-.63.08-1.7.31-2.33.06-1.28-.51-.12-1.87.46-2.44,2.16-2.1,4.87-3.55,7.67-4.59,3.13-1.16,6.4-1.94,9.62-2.81.2-.05.11-.32-.08-.3-6.29.91-13.47,2.5-18.04,7.3-.74.78-1.54,2.13-.67,3.1.87.99,2.71.45,3.81.29,3.98-.57,7.81-1.92,11.74-2.75,2.28-.48,4.59-.88,6.9-1.18,2.22-.29,4.52-.3,6.72-.7.18-.03.12-.28-.04-.29"/>
    </g>
  </g>
</svg>