<?xml version="1.0" encoding="UTF-8"?>
<svg id="Layer_1" xmlns="http://www.w3.org/2000/svg" version="1.1" viewBox="0 0 1024 1024">
  <!-- Generator: Adobe Illustrator 29.8.3, SVG Export Plug-In . SVG Version: 2.1.1 Build 3)  -->
  <defs>
    <style>
      .st0, .st1 {
        isolation: isolate;
      }

      .st2 {
        fill: #fff;
      }

      .st1 {
        fill: #ff6a00;
      }
    </style>
  </defs>
  <circle class="st1" cx="483" cy="475" r="169.53"/>
  <g class="st0">
    <path class="st2" d="M387.96,567.64c-39.28,1.51-41.53-53.22-15.08-72.59-5.77-23.76,2.29-54.06,17.23-73.29,5.19-6.67,22.6-19.59,24.97-23.7,3.12-5.4.4-7.19,7.36-12.91,25.5-20.96,93.49-19.49,120.57-1.62,8.72,5.76,6.21,9.21,10.57,15.11,3.28,4.43,12.78,10.55,17.44,16.36,17.13,21.35,26.42,53.04,20.97,80.06,5.13,3.87,10.32,6.51,13.87,12.16,7.63,12.16,5.99,39.8-3.59,51-5.27,6.15-23.42,16.1-25.12,3.4-.89-6.69-.62-66.23.78-69.63.64-1.56,3.29-2.89,4.09-5.37,3.42-10.57-4.91-38.01-9.98-48.3-3.29-6.68-19.21-30.18-26.6-30.1-2.91.03-4.77,3.29-9.13,2.42-2.88-.58-12.6-7.81-17.27-9.89-26.36-11.76-50.48-9.63-76.16,2.15-3.95,1.81-8.07,6.12-11.96,7.08-4.53,1.12-6.67-1.77-9.3-1.19-8.29,1.81-26.13,24.33-29.83,32.24-4.21,9-12.35,38.83-7.85,47.18.8,1.49,4.03,2.52,4.03,3.07v76.37h-.01Z"/>
    <path class="st2" d="M556.61,477.33c9.86-1.14,15.79,2.84,16.59,12.54,1.47,17.9,2.25,62.75-.18,79.68-2.21,15.37-27.93,13.37-29.64-1.19-2.92-24.94,2.17-55.49.11-81.05.07-5.41,8.61-9.45,13.11-9.97h.01Z"/>
    <path class="st2" d="M402.46,478.75c6.16-1.26,17.88-.22,19.26,7.15v86.45c-4.68,11.56-26.29,9.82-28.27-2.76v-82.29c.28-4.49,4.92-7.72,9.02-8.55h-.01Z"/>
  </g>
</svg>